<?xml version="1.0" encoding="UTF-8" ?>
<svg version="1.1" width="32" height="32" xmlns="http://www.w3.org/2000/svg" shape-rendering="crispEdges">
<rect x="0" y="0" width="32" height="32" fill="#000000" />
<rect x="22" y="10" width="1" height="1" fill="#FFFFFF" />
<rect x="23" y="10" width="1" height="1" fill="#FFFFFF" />
<rect x="24" y="10" width="1" height="1" fill="#FFFFFF" />
<rect x="0" y="11" width="1" height="1" fill="#FFFFFF" />
<rect x="1" y="11" width="1" height="1" fill="#FFFFFF" />
<rect x="2" y="11" width="1" height="1" fill="#FFFFFF" />
<rect x="22" y="11" width="1" height="1" fill="#FFFFFF" />
<rect x="23" y="11" width="1" height="1" fill="#FFFFFF" />
<rect x="24" y="11" width="1" height="1" fill="#FFFFFF" />
<rect x="0" y="12" width="1" height="1" fill="#FFFFFF" />
<rect x="1" y="12" width="1" height="1" fill="#FFFFFF" />
<rect x="2" y="12" width="1" height="1" fill="#FFFFFF" />
<rect x="22" y="12" width="1" height="1" fill="#FFFFFF" />
<rect x="23" y="12" width="1" height="1" fill="#FFFFFF" />
<rect x="24" y="12" width="1" height="1" fill="#FFFFFF" />
<rect x="0" y="13" width="1" height="1" fill="#FFFFFF" />
<rect x="1" y="13" width="1" height="1" fill="#FFFFFF" />
<rect x="2" y="13" width="1" height="1" fill="#FFFFFF" />
<rect x="9" y="23" width="1" height="1" fill="#FFFFFF" />
<rect x="10" y="23" width="1" height="1" fill="#FFFFFF" />
<rect x="11" y="23" width="1" height="1" fill="#FFFFFF" />
<rect x="9" y="24" width="1" height="1" fill="#FFFFFF" />
<rect x="10" y="24" width="1" height="1" fill="#FFFFFF" />
<rect x="11" y="24" width="1" height="1" fill="#FFFFFF" />
<rect x="9" y="25" width="1" height="1" fill="#FFFFFF" />
<rect x="10" y="25" width="1" height="1" fill="#FFFFFF" />
<rect x="11" y="25" width="1" height="1" fill="#FFFFFF" />
<rect x="0" y="26" width="1" height="1" fill="#FFFFFF" />
<rect x="1" y="26" width="1" height="1" fill="#FFFFFF" />
<rect x="2" y="26" width="1" height="1" fill="#FFFFFF" />
<rect x="4" y="26" width="1" height="1" fill="#FFFFFF" />
<rect x="5" y="26" width="1" height="1" fill="#FFFFFF" />
<rect x="6" y="26" width="1" height="1" fill="#FFFFFF" />
<rect x="0" y="27" width="1" height="1" fill="#FFFFFF" />
<rect x="1" y="27" width="1" height="1" fill="#FFFFFF" />
<rect x="2" y="27" width="1" height="1" fill="#FFFFFF" />
<rect x="4" y="27" width="1" height="1" fill="#FFFFFF" />
<rect x="5" y="27" width="1" height="1" fill="#FFFFFF" />
<rect x="6" y="27" width="1" height="1" fill="#FFFFFF" />
<rect x="27" y="27" width="1" height="1" fill="#FFFFFF" />
<rect x="28" y="27" width="1" height="1" fill="#FFFFFF" />
<rect x="29" y="27" width="1" height="1" fill="#FFFFFF" />
<rect x="0" y="28" width="1" height="1" fill="#FFFFFF" />
<rect x="1" y="28" width="1" height="1" fill="#FFFFFF" />
<rect x="2" y="28" width="1" height="1" fill="#FFFFFF" />
<rect x="4" y="28" width="1" height="1" fill="#FFFFFF" />
<rect x="5" y="28" width="1" height="1" fill="#FFFFFF" />
<rect x="6" y="28" width="1" height="1" fill="#FFFFFF" />
<rect x="16" y="28" width="1" height="1" fill="#FFFFFF" />
<rect x="17" y="28" width="1" height="1" fill="#FFFFFF" />
<rect x="18" y="28" width="1" height="1" fill="#FFFFFF" />
<rect x="19" y="28" width="1" height="1" fill="#FFFFFF" />
<rect x="27" y="28" width="1" height="1" fill="#FFFFFF" />
<rect x="28" y="28" width="1" height="1" fill="#FFFFFF" />
<rect x="29" y="28" width="1" height="1" fill="#FFFFFF" />
<rect x="0" y="29" width="1" height="1" fill="#FFFFFF" />
<rect x="1" y="29" width="1" height="1" fill="#FFFFFF" />
<rect x="2" y="29" width="1" height="1" fill="#FFFFFF" />
<rect x="16" y="29" width="1" height="1" fill="#FFFFFF" />
<rect x="17" y="29" width="1" height="1" fill="#FFFFFF" />
<rect x="18" y="29" width="1" height="1" fill="#FFFFFF" />
<rect x="19" y="29" width="1" height="1" fill="#FFFFFF" />
<rect x="27" y="29" width="1" height="1" fill="#FFFFFF" />
<rect x="28" y="29" width="1" height="1" fill="#FFFFFF" />
<rect x="29" y="29" width="1" height="1" fill="#FFFFFF" />
<rect x="0" y="30" width="1" height="1" fill="#FFFFFF" />
<rect x="1" y="30" width="1" height="1" fill="#FFFFFF" />
<rect x="2" y="30" width="1" height="1" fill="#FFFFFF" />
<rect x="5" y="30" width="1" height="1" fill="#FFFFFF" />
<rect x="6" y="30" width="1" height="1" fill="#FFFFFF" />
<rect x="7" y="30" width="1" height="1" fill="#FFFFFF" />
<rect x="16" y="30" width="1" height="1" fill="#FFFFFF" />
<rect x="17" y="30" width="1" height="1" fill="#FFFFFF" />
<rect x="18" y="30" width="1" height="1" fill="#FFFFFF" />
<rect x="19" y="30" width="1" height="1" fill="#FFFFFF" />
<rect x="25" y="30" width="1" height="1" fill="#FFFFFF" />
<rect x="26" y="30" width="1" height="1" fill="#FFFFFF" />
<rect x="27" y="30" width="1" height="1" fill="#FFFFFF" />
<rect x="28" y="30" width="1" height="1" fill="#FFFFFF" />
<rect x="29" y="30" width="1" height="1" fill="#FFFFFF" />
<rect x="30" y="30" width="1" height="1" fill="#FFFFFF" />
<rect x="31" y="30" width="1" height="1" fill="#FFFFFF" />
<rect x="5" y="31" width="1" height="1" fill="#FFFFFF" />
<rect x="6" y="31" width="1" height="1" fill="#FFFFFF" />
<rect x="7" y="31" width="1" height="1" fill="#FFFFFF" />
<rect x="25" y="31" width="1" height="1" fill="#FFFFFF" />
<rect x="26" y="31" width="1" height="1" fill="#FFFFFF" />
<rect x="27" y="31" width="1" height="1" fill="#FFFFFF" />
<rect x="28" y="31" width="1" height="1" fill="#FFFFFF" />
<rect x="29" y="31" width="1" height="1" fill="#FFFFFF" />
<rect x="30" y="31" width="1" height="1" fill="#FFFFFF" />
<rect x="31" y="31" width="1" height="1" fill="#FFFFFF" />
</svg>
