<?xml version="1.0" encoding="UTF-8" ?>
<svg version="1.1" width="32" height="32" xmlns="http://www.w3.org/2000/svg" shape-rendering="crispEdges">
<rect x="0" y="0" width="32" height="32" fill="#8080FF" />
<rect x="21" y="8" width="1" height="1" fill="#807CFF" />
<rect x="22" y="8" width="1" height="1" fill="#807AFF" />
<rect x="23" y="8" width="1" height="1" fill="#8076FF" />
<rect x="24" y="8" width="1" height="1" fill="#807AFF" />
<rect x="25" y="8" width="1" height="1" fill="#807CFF" />
<rect x="0" y="9" width="1" height="1" fill="#8076FF" />
<rect x="1" y="9" width="1" height="1" fill="#8076FF" />
<rect x="2" y="9" width="1" height="1" fill="#807AFF" />
<rect x="3" y="9" width="1" height="1" fill="#807CFF" />
<rect x="20" y="9" width="1" height="1" fill="#7C80FF" />
<rect x="21" y="9" width="1" height="1" fill="#7A7AFF" />
<rect x="22" y="9" width="1" height="1" fill="#7A74FF" />
<rect x="23" y="9" width="1" height="1" fill="#806DFE" />
<rect x="24" y="9" width="1" height="1" fill="#8574FF" />
<rect x="25" y="9" width="1" height="1" fill="#857AFF" />
<rect x="26" y="9" width="1" height="1" fill="#8280FF" />
<rect x="0" y="10" width="1" height="1" fill="#806DFE" />
<rect x="1" y="10" width="1" height="1" fill="#826DFE" />
<rect x="2" y="10" width="1" height="1" fill="#8574FF" />
<rect x="3" y="10" width="1" height="1" fill="#857AFF" />
<rect x="4" y="10" width="1" height="1" fill="#8280FF" />
<rect x="20" y="10" width="1" height="1" fill="#7A80FF" />
<rect x="21" y="10" width="1" height="1" fill="#747AFF" />
<rect x="22" y="10" width="1" height="1" fill="#7474FE" />
<rect x="23" y="10" width="1" height="1" fill="#806DFE" />
<rect x="24" y="10" width="1" height="1" fill="#8B74FE" />
<rect x="25" y="10" width="1" height="1" fill="#8B7AFF" />
<rect x="26" y="10" width="1" height="1" fill="#8580FF" />
<rect x="0" y="11" width="1" height="1" fill="#806DFE" />
<rect x="1" y="11" width="1" height="1" fill="#856DFE" />
<rect x="2" y="11" width="1" height="1" fill="#8B74FE" />
<rect x="3" y="11" width="1" height="1" fill="#8B7AFF" />
<rect x="4" y="11" width="1" height="1" fill="#8580FF" />
<rect x="20" y="11" width="1" height="1" fill="#7680FF" />
<rect x="21" y="11" width="1" height="1" fill="#6D80FE" />
<rect x="22" y="11" width="1" height="1" fill="#6D80FE" />
<rect x="24" y="11" width="1" height="1" fill="#9280FE" />
<rect x="25" y="11" width="1" height="1" fill="#9280FE" />
<rect x="26" y="11" width="1" height="1" fill="#8980FF" />
<rect x="1" y="12" width="1" height="1" fill="#8980FF" />
<rect x="2" y="12" width="1" height="1" fill="#9280FE" />
<rect x="3" y="12" width="1" height="1" fill="#9280FE" />
<rect x="4" y="12" width="1" height="1" fill="#8980FF" />
<rect x="20" y="12" width="1" height="1" fill="#7A80FF" />
<rect x="21" y="12" width="1" height="1" fill="#7485FF" />
<rect x="22" y="12" width="1" height="1" fill="#748BFE" />
<rect x="23" y="12" width="1" height="1" fill="#8092FE" />
<rect x="24" y="12" width="1" height="1" fill="#8B8BFE" />
<rect x="25" y="12" width="1" height="1" fill="#8B85FF" />
<rect x="26" y="12" width="1" height="1" fill="#8580FF" />
<rect x="0" y="13" width="1" height="1" fill="#8092FE" />
<rect x="1" y="13" width="1" height="1" fill="#8592FE" />
<rect x="2" y="13" width="1" height="1" fill="#8B8BFE" />
<rect x="3" y="13" width="1" height="1" fill="#8B85FF" />
<rect x="4" y="13" width="1" height="1" fill="#8580FF" />
<rect x="20" y="13" width="1" height="1" fill="#7C80FF" />
<rect x="21" y="13" width="1" height="1" fill="#7A85FF" />
<rect x="22" y="13" width="1" height="1" fill="#7A8BFF" />
<rect x="23" y="13" width="1" height="1" fill="#8092FE" />
<rect x="24" y="13" width="1" height="1" fill="#858BFF" />
<rect x="25" y="13" width="1" height="1" fill="#8585FF" />
<rect x="26" y="13" width="1" height="1" fill="#8280FF" />
<rect x="0" y="14" width="1" height="1" fill="#8092FE" />
<rect x="1" y="14" width="1" height="1" fill="#8292FE" />
<rect x="2" y="14" width="1" height="1" fill="#858BFF" />
<rect x="3" y="14" width="1" height="1" fill="#8585FF" />
<rect x="4" y="14" width="1" height="1" fill="#8280FF" />
<rect x="21" y="14" width="1" height="1" fill="#8082FF" />
<rect x="22" y="14" width="1" height="1" fill="#8085FF" />
<rect x="23" y="14" width="1" height="1" fill="#8089FF" />
<rect x="24" y="14" width="1" height="1" fill="#8085FF" />
<rect x="25" y="14" width="1" height="1" fill="#8082FF" />
<rect x="0" y="15" width="1" height="1" fill="#8089FF" />
<rect x="1" y="15" width="1" height="1" fill="#8089FF" />
<rect x="2" y="15" width="1" height="1" fill="#8085FF" />
<rect x="3" y="15" width="1" height="1" fill="#8082FF" />
<rect x="8" y="21" width="1" height="1" fill="#807CFF" />
<rect x="9" y="21" width="1" height="1" fill="#807AFF" />
<rect x="10" y="21" width="1" height="1" fill="#8076FF" />
<rect x="11" y="21" width="1" height="1" fill="#807AFF" />
<rect x="12" y="21" width="1" height="1" fill="#807CFF" />
<rect x="7" y="22" width="1" height="1" fill="#7C80FF" />
<rect x="8" y="22" width="1" height="1" fill="#7A7AFF" />
<rect x="9" y="22" width="1" height="1" fill="#7A74FF" />
<rect x="10" y="22" width="1" height="1" fill="#806DFE" />
<rect x="11" y="22" width="1" height="1" fill="#8574FF" />
<rect x="12" y="22" width="1" height="1" fill="#857AFF" />
<rect x="13" y="22" width="1" height="1" fill="#8280FF" />
<rect x="7" y="23" width="1" height="1" fill="#7A80FF" />
<rect x="8" y="23" width="1" height="1" fill="#747AFF" />
<rect x="9" y="23" width="1" height="1" fill="#7474FE" />
<rect x="10" y="23" width="1" height="1" fill="#806DFE" />
<rect x="11" y="23" width="1" height="1" fill="#8B74FE" />
<rect x="12" y="23" width="1" height="1" fill="#8B7AFF" />
<rect x="13" y="23" width="1" height="1" fill="#8580FF" />
<rect x="0" y="24" width="1" height="1" fill="#8076FF" />
<rect x="1" y="24" width="1" height="1" fill="#8076FF" />
<rect x="2" y="24" width="1" height="1" fill="#807AFF" />
<rect x="3" y="24" width="1" height="1" fill="#807AFF" />
<rect x="4" y="24" width="1" height="1" fill="#807AFF" />
<rect x="5" y="24" width="1" height="1" fill="#8076FF" />
<rect x="6" y="24" width="1" height="1" fill="#807AFF" />
<rect x="7" y="24" width="1" height="1" fill="#767CFF" />
<rect x="8" y="24" width="1" height="1" fill="#6D80FE" />
<rect x="9" y="24" width="1" height="1" fill="#6D80FE" />
<rect x="11" y="24" width="1" height="1" fill="#9280FE" />
<rect x="12" y="24" width="1" height="1" fill="#9280FE" />
<rect x="13" y="24" width="1" height="1" fill="#8980FF" />
<rect x="0" y="25" width="1" height="1" fill="#8066FD" />
<rect x="1" y="25" width="1" height="1" fill="#8266FD" />
<rect x="2" y="25" width="1" height="1" fill="#826DFE" />
<rect x="3" y="25" width="1" height="1" fill="#8071FE" />
<rect x="4" y="25" width="1" height="1" fill="#7C74FF" />
<rect x="5" y="25" width="1" height="1" fill="#806DFE" />
<rect x="6" y="25" width="1" height="1" fill="#8574FF" />
<rect x="7" y="25" width="1" height="1" fill="#807AFF" />
<rect x="8" y="25" width="1" height="1" fill="#7685FF" />
<rect x="9" y="25" width="1" height="1" fill="#748BFE" />
<rect x="10" y="25" width="1" height="1" fill="#8092FE" />
<rect x="11" y="25" width="1" height="1" fill="#8B8BFE" />
<rect x="12" y="25" width="1" height="1" fill="#8B85FF" />
<rect x="13" y="25" width="1" height="1" fill="#8580FF" />
<rect x="26" y="25" width="1" height="1" fill="#807CFF" />
<rect x="27" y="25" width="1" height="1" fill="#807AFF" />
<rect x="28" y="25" width="1" height="1" fill="#8076FF" />
<rect x="29" y="25" width="1" height="1" fill="#807AFF" />
<rect x="30" y="25" width="1" height="1" fill="#807CFF" />
<rect x="0" y="26" width="1" height="1" fill="#8054FB" />
<rect x="1" y="26" width="1" height="1" fill="#8854FB" />
<rect x="2" y="26" width="1" height="1" fill="#8B62FD" />
<rect x="3" y="26" width="1" height="1" fill="#856BFE" />
<rect x="4" y="26" width="1" height="1" fill="#7C74FF" />
<rect x="5" y="26" width="1" height="1" fill="#806DFE" />
<rect x="6" y="26" width="1" height="1" fill="#8B74FE" />
<rect x="7" y="26" width="1" height="1" fill="#897AFF" />
<rect x="8" y="26" width="1" height="1" fill="#8085FF" />
<rect x="9" y="26" width="1" height="1" fill="#7A8BFF" />
<rect x="10" y="26" width="1" height="1" fill="#8092FE" />
<rect x="11" y="26" width="1" height="1" fill="#858BFF" />
<rect x="12" y="26" width="1" height="1" fill="#8585FF" />
<rect x="13" y="26" width="1" height="1" fill="#8280FF" />
<rect x="15" y="26" width="1" height="1" fill="#807CFF" />
<rect x="16" y="26" width="1" height="1" fill="#8076FF" />
<rect x="17" y="26" width="1" height="1" fill="#8071FE" />
<rect x="18" y="26" width="1" height="1" fill="#8071FE" />
<rect x="19" y="26" width="1" height="1" fill="#8076FF" />
<rect x="20" y="26" width="1" height="1" fill="#807CFF" />
<rect x="25" y="26" width="1" height="1" fill="#7C80FF" />
<rect x="26" y="26" width="1" height="1" fill="#7A7AFF" />
<rect x="27" y="26" width="1" height="1" fill="#7A74FF" />
<rect x="28" y="26" width="1" height="1" fill="#806DFE" />
<rect x="29" y="26" width="1" height="1" fill="#8574FF" />
<rect x="30" y="26" width="1" height="1" fill="#857AFF" />
<rect x="31" y="26" width="1" height="1" fill="#8280FF" />
<rect x="0" y="27" width="1" height="1" fill="#805DFC" />
<rect x="1" y="27" width="1" height="1" fill="#905DFC" />
<rect x="2" y="27" width="1" height="1" fill="#9968FC" />
<rect x="3" y="27" width="1" height="1" fill="#9274FE" />
<rect x="6" y="27" width="1" height="1" fill="#9280FE" />
<rect x="7" y="27" width="1" height="1" fill="#9280FE" />
<rect x="8" y="27" width="1" height="1" fill="#8982FF" />
<rect x="9" y="27" width="1" height="1" fill="#8085FF" />
<rect x="10" y="27" width="1" height="1" fill="#8089FF" />
<rect x="11" y="27" width="1" height="1" fill="#8085FF" />
<rect x="12" y="27" width="1" height="1" fill="#8082FF" />
<rect x="14" y="27" width="1" height="1" fill="#7C80FF" />
<rect x="15" y="27" width="1" height="1" fill="#767AFF" />
<rect x="16" y="27" width="1" height="1" fill="#746DFE" />
<rect x="17" y="27" width="1" height="1" fill="#7A62FD" />
<rect x="18" y="27" width="1" height="1" fill="#8562FD" />
<rect x="19" y="27" width="1" height="1" fill="#8B6DFE" />
<rect x="20" y="27" width="1" height="1" fill="#897AFF" />
<rect x="21" y="27" width="1" height="1" fill="#8280FF" />
<rect x="25" y="27" width="1" height="1" fill="#7A80FF" />
<rect x="26" y="27" width="1" height="1" fill="#747AFF" />
<rect x="27" y="27" width="1" height="1" fill="#7474FE" />
<rect x="28" y="27" width="1" height="1" fill="#806DFE" />
<rect x="29" y="27" width="1" height="1" fill="#8B74FE" />
<rect x="30" y="27" width="1" height="1" fill="#8B7AFF" />
<rect x="31" y="27" width="1" height="1" fill="#8580FF" />
<rect x="0" y="28" width="1" height="1" fill="#807FFF" />
<rect x="1" y="28" width="1" height="1" fill="#947FFE" />
<rect x="2" y="28" width="1" height="1" fill="#A280FC" />
<rect x="3" y="28" width="1" height="1" fill="#9D85FD" />
<rect x="4" y="28" width="1" height="1" fill="#8989FF" />
<rect x="5" y="28" width="1" height="1" fill="#808BFF" />
<rect x="6" y="28" width="1" height="1" fill="#8B82FF" />
<rect x="7" y="28" width="1" height="1" fill="#8B80FF" />
<rect x="8" y="28" width="1" height="1" fill="#857CFF" />
<rect x="14" y="28" width="1" height="1" fill="#7A80FF" />
<rect x="15" y="28" width="1" height="1" fill="#6D7AFE" />
<rect x="16" y="28" width="1" height="1" fill="#686EFD" />
<rect x="17" y="28" width="1" height="1" fill="#7462FD" />
<rect x="18" y="28" width="1" height="1" fill="#8B62FD" />
<rect x="19" y="28" width="1" height="1" fill="#966EFD" />
<rect x="20" y="28" width="1" height="1" fill="#927AFE" />
<rect x="21" y="28" width="1" height="1" fill="#8580FF" />
<rect x="24" y="28" width="1" height="1" fill="#807CFF" />
<rect x="25" y="28" width="1" height="1" fill="#7676FF" />
<rect x="26" y="28" width="1" height="1" fill="#6D71FE" />
<rect x="27" y="28" width="1" height="1" fill="#6E6EFD" />
<rect x="28" y="28" width="1" height="1" fill="#806DFE" />
<rect x="29" y="28" width="1" height="1" fill="#906EFD" />
<rect x="30" y="28" width="1" height="1" fill="#9271FE" />
<rect x="31" y="28" width="1" height="1" fill="#8974FE" />
<rect x="0" y="29" width="1" height="1" fill="#80A2FC" />
<rect x="1" y="29" width="1" height="1" fill="#90A2FC" />
<rect x="2" y="29" width="1" height="1" fill="#9F96FC" />
<rect x="3" y="29" width="1" height="1" fill="#9990FD" />
<rect x="4" y="29" width="1" height="1" fill="#8582FF" />
<rect x="5" y="29" width="1" height="1" fill="#7A80FF" />
<rect x="6" y="29" width="1" height="1" fill="#8571FE" />
<rect x="7" y="29" width="1" height="1" fill="#8B74FE" />
<rect x="8" y="29" width="1" height="1" fill="#8976FF" />
<rect x="9" y="29" width="1" height="1" fill="#8280FF" />
<rect x="14" y="29" width="1" height="1" fill="#7680FF" />
<rect x="15" y="29" width="1" height="1" fill="#6680FD" />
<rect x="16" y="29" width="1" height="1" fill="#5D80FC" />
<rect x="17" y="29" width="1" height="1" fill="#6D80FE" />
<rect x="18" y="29" width="1" height="1" fill="#9280FE" />
<rect x="19" y="29" width="1" height="1" fill="#A280FC" />
<rect x="20" y="29" width="1" height="1" fill="#9980FD" />
<rect x="21" y="29" width="1" height="1" fill="#8980FF" />
<rect x="23" y="29" width="1" height="1" fill="#7C80FF" />
<rect x="24" y="29" width="1" height="1" fill="#7676FF" />
<rect x="25" y="29" width="1" height="1" fill="#6E66FD" />
<rect x="26" y="29" width="1" height="1" fill="#6C5AFB" />
<rect x="27" y="29" width="1" height="1" fill="#7158FB" />
<rect x="28" y="29" width="1" height="1" fill="#805DFC" />
<rect x="29" y="29" width="1" height="1" fill="#8E58FB" />
<rect x="30" y="29" width="1" height="1" fill="#905AFC" />
<rect x="31" y="29" width="1" height="1" fill="#885DFC" />
<rect x="0" y="30" width="1" height="1" fill="#80AAFB" />
<rect x="1" y="30" width="1" height="1" fill="#88AAFB" />
<rect x="2" y="30" width="1" height="1" fill="#909DFC" />
<rect x="3" y="30" width="1" height="1" fill="#8992FE" />
<rect x="4" y="30" width="1" height="1" fill="#767AFF" />
<rect x="5" y="30" width="1" height="1" fill="#6D71FE" />
<rect x="6" y="30" width="1" height="1" fill="#8062FD" />
<rect x="7" y="30" width="1" height="1" fill="#906BFD" />
<rect x="8" y="30" width="1" height="1" fill="#9274FE" />
<rect x="9" y="30" width="1" height="1" fill="#8980FF" />
<rect x="14" y="30" width="1" height="1" fill="#7A80FF" />
<rect x="15" y="30" width="1" height="1" fill="#6D85FE" />
<rect x="16" y="30" width="1" height="1" fill="#6890FD" />
<rect x="17" y="30" width="1" height="1" fill="#749DFD" />
<rect x="18" y="30" width="1" height="1" fill="#8B9DFD" />
<rect x="19" y="30" width="1" height="1" fill="#9690FD" />
<rect x="20" y="30" width="1" height="1" fill="#9285FE" />
<rect x="21" y="30" width="1" height="1" fill="#8580FF" />
<rect x="23" y="30" width="1" height="1" fill="#7680FF" />
<rect x="24" y="30" width="1" height="1" fill="#6674FD" />
<rect x="25" y="30" width="1" height="1" fill="#5A5EFA" />
<rect x="26" y="30" width="1" height="1" fill="#614EF7" />
<rect x="27" y="30" width="1" height="1" fill="#7148F8" />
<rect x="28" y="30" width="1" height="1" fill="#804DF9" />
<rect x="29" y="30" width="1" height="1" fill="#8E48F8" />
<rect x="30" y="30" width="1" height="1" fill="#954EF8" />
<rect x="31" y="30" width="1" height="1" fill="#8B52FA" />
<rect x="0" y="31" width="1" height="1" fill="#8092FE" />
<rect x="1" y="31" width="1" height="1" fill="#8292FE" />
<rect x="2" y="31" width="1" height="1" fill="#858BFF" />
<rect x="3" y="31" width="1" height="1" fill="#7685FF" />
<rect x="4" y="31" width="1" height="1" fill="#667AFD" />
<rect x="5" y="31" width="1" height="1" fill="#6274FD" />
<rect x="6" y="31" width="1" height="1" fill="#806DFE" />
<rect x="7" y="31" width="1" height="1" fill="#9D74FD" />
<rect x="8" y="31" width="1" height="1" fill="#9D7AFD" />
<rect x="9" y="31" width="1" height="1" fill="#8E80FE" />
<rect x="14" y="31" width="1" height="1" fill="#7C80FF" />
<rect x="15" y="31" width="1" height="1" fill="#7682FF" />
<rect x="16" y="31" width="1" height="1" fill="#7489FE" />
<rect x="17" y="31" width="1" height="1" fill="#7A8EFE" />
<rect x="18" y="31" width="1" height="1" fill="#858EFE" />
<rect x="19" y="31" width="1" height="1" fill="#8B89FE" />
<rect x="20" y="31" width="1" height="1" fill="#8982FF" />
<rect x="21" y="31" width="1" height="1" fill="#8280FF" />
<rect x="23" y="31" width="1" height="1" fill="#7180FE" />
<rect x="24" y="31" width="1" height="1" fill="#547AFB" />
<rect x="25" y="31" width="1" height="1" fill="#486EF7" />
<rect x="26" y="31" width="1" height="1" fill="#5666FA" />
<rect x="27" y="31" width="1" height="1" fill="#7162FC" />
<rect x="28" y="31" width="1" height="1" fill="#8066FD" />
<rect x="29" y="31" width="1" height="1" fill="#8E62FC" />
<rect x="30" y="31" width="1" height="1" fill="#9C66FC" />
<rect x="31" y="31" width="1" height="1" fill="#8E68FD" />
</svg>
