<?xml version="1.0" encoding="UTF-8" ?>
<svg version="1.1" width="32" height="32" xmlns="http://www.w3.org/2000/svg" shape-rendering="crispEdges">
<rect x="0" y="0" width="2" height="3" fill="#000000" />
<rect x="2" y="0" width="1" height="1" fill="#101010" />
<rect x="3" y="0" width="6" height="1" fill="#000000" />
<rect x="9" y="0" width="1" height="1" fill="#4C4C4C" />
<rect x="10" y="0" width="1" height="1" fill="#050505" />
<rect x="11" y="0" width="1" height="1" fill="#0D0D0D" />
<rect x="12" y="0" width="2" height="1" fill="#000000" />
<rect x="14" y="0" width="1" height="1" fill="#020202" />
<rect x="15" y="0" width="2" height="1" fill="#000000" />
<rect x="17" y="0" width="1" height="1" fill="#2B2B2D" />
<rect x="18" y="0" width="1" height="1" fill="#010103" />
<rect x="19" y="0" width="2" height="2" fill="#000000" />
<rect x="21" y="0" width="1" height="1" fill="#030303" />
<rect x="22" y="0" width="1" height="1" fill="#060606" />
<rect x="23" y="0" width="1" height="1" fill="#929292" />
<rect x="24" y="0" width="1" height="1" fill="#202020" />
<rect x="25" y="0" width="1" height="1" fill="#1C1C1C" />
<rect x="26" y="0" width="1" height="1" fill="#060606" />
<rect x="27" y="0" width="2" height="3" fill="#000000" />
<rect x="29" y="0" width="1" height="1" fill="#070803" />
<rect x="30" y="0" width="1" height="1" fill="#020202" />
<rect x="31" y="0" width="1" height="1" fill="#0F0F11" />
<rect x="2" y="1" width="4" height="3" fill="#000000" />
<rect x="6" y="1" width="1" height="1" fill="#030303" />
<rect x="7" y="1" width="1" height="1" fill="#090909" />
<rect x="8" y="1" width="1" height="1" fill="#000000" />
<rect x="9" y="1" width="1" height="1" fill="#0F0F0F" />
<rect x="10" y="1" width="1" height="1" fill="#131313" />
<rect x="11" y="1" width="1" height="1" fill="#4B4B4B" />
<rect x="12" y="1" width="1" height="5" fill="#000000" />
<rect x="13" y="1" width="1" height="1" fill="#050505" />
<rect x="14" y="1" width="1" height="1" fill="#010101" />
<rect x="15" y="1" width="1" height="1" fill="#060606" />
<rect x="16" y="1" width="1" height="1" fill="#050505" />
<rect x="17" y="1" width="1" height="1" fill="#4E4E50" />
<rect x="18" y="1" width="1" height="1" fill="#8B8B8D" />
<rect x="21" y="1" width="2" height="3" fill="#000000" />
<rect x="23" y="1" width="1" height="1" fill="#050505" />
<rect x="24" y="1" width="1" height="1" fill="#7D7D7D" />
<rect x="25" y="1" width="1" height="1" fill="#0D0D0D" />
<rect x="26" y="1" width="1" height="2" fill="#000000" />
<rect x="29" y="1" width="1" height="1" fill="#040500" />
<rect x="30" y="1" width="1" height="1" fill="#090909" />
<rect x="31" y="1" width="1" height="1" fill="#2A2A2C" />
<rect x="6" y="2" width="1" height="1" fill="#5F5F5F" />
<rect x="7" y="2" width="1" height="1" fill="#050505" />
<rect x="8" y="2" width="1" height="1" fill="#040404" />
<rect x="9" y="2" width="3" height="1" fill="#000000" />
<rect x="13" y="2" width="2" height="1" fill="#000000" />
<rect x="15" y="2" width="1" height="1" fill="#0A0A0A" />
<rect x="16" y="2" width="1" height="1" fill="#080808" />
<rect x="17" y="2" width="1" height="1" fill="#000004" />
<rect x="18" y="2" width="1" height="1" fill="#060608" />
<rect x="19" y="2" width="1" height="1" fill="#4B4B4D" />
<rect x="20" y="2" width="1" height="1" fill="#000000" />
<rect x="23" y="2" width="1" height="1" fill="#1F1F1F" />
<rect x="24" y="2" width="1" height="1" fill="#020202" />
<rect x="25" y="2" width="1" height="1" fill="#000000" />
<rect x="29" y="2" width="1" height="1" fill="#444442" />
<rect x="30" y="2" width="1" height="1" fill="#1A1A1A" />
<rect x="31" y="2" width="1" height="1" fill="#010103" />
<rect x="0" y="3" width="1" height="1" fill="#010101" />
<rect x="1" y="3" width="1" height="3" fill="#000000" />
<rect x="6" y="3" width="2" height="1" fill="#000000" />
<rect x="8" y="3" width="1" height="1" fill="#020202" />
<rect x="9" y="3" width="1" height="1" fill="#010101" />
<rect x="10" y="3" width="2" height="2" fill="#000000" />
<rect x="13" y="3" width="1" height="4" fill="#000000" />
<rect x="14" y="3" width="1" height="1" fill="#2E2E2E" />
<rect x="15" y="3" width="1" height="3" fill="#000000" />
<rect x="16" y="3" width="1" height="1" fill="#4C4C4C" />
<rect x="17" y="3" width="1" height="1" fill="#000009" />
<rect x="18" y="3" width="1" height="1" fill="#000004" />
<rect x="19" y="3" width="1" height="1" fill="#59585E" />
<rect x="20" y="3" width="1" height="1" fill="#4F4F51" />
<rect x="23" y="3" width="2" height="2" fill="#000000" />
<rect x="25" y="3" width="1" height="1" fill="#040500" />
<rect x="26" y="3" width="1" height="1" fill="#050505" />
<rect x="27" y="3" width="1" height="1" fill="#000000" />
<rect x="28" y="3" width="1" height="1" fill="#030303" />
<rect x="29" y="3" width="1" height="1" fill="#090909" />
<rect x="30" y="3" width="2" height="1" fill="#000000" />
<rect x="0" y="4" width="1" height="1" fill="#000000" />
<rect x="2" y="4" width="3" height="1" fill="#000000" />
<rect x="5" y="4" width="1" height="1" fill="#010101" />
<rect x="6" y="4" width="1" height="1" fill="#060606" />
<rect x="7" y="4" width="1" height="1" fill="#8C8C8C" />
<rect x="8" y="4" width="1" height="4" fill="#000000" />
<rect x="9" y="4" width="1" height="1" fill="#646464" />
<rect x="14" y="4" width="1" height="1" fill="#040404" />
<rect x="16" y="4" width="1" height="2" fill="#000000" />
<rect x="17" y="4" width="1" height="1" fill="#0C0A15" />
<rect x="18" y="4" width="1" height="1" fill="#5C5B60" />
<rect x="19" y="4" width="1" height="1" fill="#232228" />
<rect x="20" y="4" width="1" height="1" fill="#535355" />
<rect x="21" y="4" width="1" height="1" fill="#606060" />
<rect x="22" y="4" width="1" height="1" fill="#000000" />
<rect x="25" y="4" width="1" height="1" fill="#090A05" />
<rect x="26" y="4" width="1" height="1" fill="#121212" />
<rect x="27" y="4" width="1" height="1" fill="#1F1F1F" />
<rect x="28" y="4" width="1" height="1" fill="#2E2E2E" />
<rect x="29" y="4" width="2" height="1" fill="#000000" />
<rect x="31" y="4" width="1" height="1" fill="#050505" />
<rect x="0" y="5" width="1" height="1" fill="#898989" />
<rect x="2" y="5" width="2" height="1" fill="#000000" />
<rect x="4" y="5" width="1" height="1" fill="#0A0A0A" />
<rect x="5" y="5" width="1" height="1" fill="#323232" />
<rect x="6" y="5" width="1" height="1" fill="#010101" />
<rect x="7" y="5" width="1" height="5" fill="#000000" />
<rect x="9" y="5" width="1" height="1" fill="#030303" />
<rect x="10" y="5" width="1" height="1" fill="#050505" />
<rect x="11" y="5" width="1" height="1" fill="#000000" />
<rect x="14" y="5" width="1" height="2" fill="#000000" />
<rect x="17" y="5" width="1" height="3" fill="#000000" />
<rect x="18" y="5" width="1" height="1" fill="#030303" />
<rect x="19" y="5" width="1" height="1" fill="#9E9EA0" />
<rect x="20" y="5" width="1" height="1" fill="#0A0A0C" />
<rect x="21" y="5" width="1" height="1" fill="#1E1E1E" />
<rect x="22" y="5" width="1" height="1" fill="#060606" />
<rect x="23" y="5" width="1" height="1" fill="#111111" />
<rect x="24" y="5" width="1" height="1" fill="#020202" />
<rect x="25" y="5" width="1" height="1" fill="#010101" />
<rect x="26" y="5" width="1" height="1" fill="#020202" />
<rect x="27" y="5" width="1" height="1" fill="#0A0A0A" />
<rect x="28" y="5" width="1" height="1" fill="#000000" />
<rect x="29" y="5" width="1" height="1" fill="#0E0E0E" />
<rect x="30" y="5" width="2" height="1" fill="#000000" />
<rect x="0" y="6" width="1" height="2" fill="#010101" />
<rect x="1" y="6" width="1" height="1" fill="#060606" />
<rect x="2" y="6" width="1" height="1" fill="#050505" />
<rect x="3" y="6" width="3" height="1" fill="#000000" />
<rect x="6" y="6" width="1" height="1" fill="#080808" />
<rect x="9" y="6" width="1" height="1" fill="#000000" />
<rect x="10" y="6" width="1" height="1" fill="#818181" />
<rect x="11" y="6" width="1" height="1" fill="#040404" />
<rect x="12" y="6" width="1" height="1" fill="#060606" />
<rect x="15" y="6" width="1" height="1" fill="#020202" />
<rect x="16" y="6" width="1" height="1" fill="#0A0A0A" />
<rect x="18" y="6" width="1" height="5" fill="#000000" />
<rect x="19" y="6" width="1" height="1" fill="#070709" />
<rect x="20" y="6" width="1" height="1" fill="#2C2C2E" />
<rect x="21" y="6" width="1" height="1" fill="#090909" />
<rect x="22" y="6" width="1" height="1" fill="#000000" />
<rect x="23" y="6" width="1" height="1" fill="#535353" />
<rect x="24" y="6" width="1" height="1" fill="#0F0F0F" />
<rect x="25" y="6" width="1" height="1" fill="#000000" />
<rect x="26" y="6" width="1" height="1" fill="#0F0F0F" />
<rect x="27" y="6" width="1" height="1" fill="#0C0C0C" />
<rect x="28" y="6" width="1" height="1" fill="#7E7E7E" />
<rect x="29" y="6" width="1" height="1" fill="#222222" />
<rect x="30" y="6" width="1" height="1" fill="#1C1C1C" />
<rect x="31" y="6" width="1" height="2" fill="#000000" />
<rect x="1" y="7" width="1" height="1" fill="#000000" />
<rect x="2" y="7" width="1" height="1" fill="#767676" />
<rect x="3" y="7" width="1" height="1" fill="#000000" />
<rect x="4" y="7" width="1" height="1" fill="#0D0D0D" />
<rect x="5" y="7" width="1" height="1" fill="#000000" />
<rect x="6" y="7" width="1" height="1" fill="#060606" />
<rect x="9" y="7" width="1" height="1" fill="#030303" />
<rect x="10" y="7" width="1" height="11" fill="#000000" />
<rect x="11" y="7" width="1" height="1" fill="#060606" />
<rect x="12" y="7" width="1" height="9" fill="#000000" />
<rect x="13" y="7" width="1" height="1" fill="#202020" />
<rect x="14" y="7" width="1" height="1" fill="#070707" />
<rect x="15" y="7" width="1" height="1" fill="#505050" />
<rect x="16" y="7" width="1" height="1" fill="#5D5D5D" />
<rect x="19" y="7" width="1" height="1" fill="#040406" />
<rect x="20" y="7" width="1" height="1" fill="#0B0B0D" />
<rect x="21" y="7" width="1" height="1" fill="#5F5F5F" />
<rect x="22" y="7" width="1" height="1" fill="#010101" />
<rect x="23" y="7" width="1" height="1" fill="#000000" />
<rect x="24" y="7" width="1" height="1" fill="#141414" />
<rect x="25" y="7" width="1" height="1" fill="#424242" />
<rect x="26" y="7" width="1" height="1" fill="#6D6D6D" />
<rect x="27" y="7" width="1" height="1" fill="#4D4D4D" />
<rect x="28" y="7" width="1" height="1" fill="#6F6F6F" />
<rect x="29" y="7" width="1" height="1" fill="#0B0B0B" />
<rect x="30" y="7" width="1" height="1" fill="#272727" />
<rect x="0" y="8" width="1" height="1" fill="#000000" />
<rect x="1" y="8" width="1" height="1" fill="#070707" />
<rect x="2" y="8" width="1" height="1" fill="#040404" />
<rect x="3" y="8" width="1" height="1" fill="#030303" />
<rect x="4" y="8" width="1" height="2" fill="#000000" />
<rect x="5" y="8" width="1" height="1" fill="#434343" />
<rect x="6" y="8" width="1" height="2" fill="#000000" />
<rect x="8" y="8" width="1" height="1" fill="#3C3C3C" />
<rect x="9" y="8" width="1" height="7" fill="#000000" />
<rect x="11" y="8" width="1" height="1" fill="#040404" />
<rect x="13" y="8" width="3" height="1" fill="#000000" />
<rect x="16" y="8" width="1" height="1" fill="#040404" />
<rect x="17" y="8" width="1" height="1" fill="#0F0F0F" />
<rect x="19" y="8" width="1" height="5" fill="#000000" />
<rect x="20" y="8" width="1" height="1" fill="#030303" />
<rect x="21" y="8" width="1" height="1" fill="#090909" />
<rect x="22" y="8" width="1" height="1" fill="#777777" />
<rect x="23" y="8" width="1" height="1" fill="#000100" />
<rect x="24" y="8" width="1" height="1" fill="#07060B" />
<rect x="25" y="8" width="1" height="1" fill="#040406" />
<rect x="26" y="8" width="1" height="1" fill="#4F4F51" />
<rect x="27" y="8" width="1" height="1" fill="#434343" />
<rect x="28" y="8" width="1" height="1" fill="#727274" />
<rect x="29" y="8" width="1" height="1" fill="#212123" />
<rect x="30" y="8" width="1" height="1" fill="#7C7C7E" />
<rect x="31" y="8" width="1" height="1" fill="#010101" />
<rect x="0" y="9" width="1" height="1" fill="#010101" />
<rect x="1" y="9" width="1" height="1" fill="#040404" />
<rect x="2" y="9" width="2" height="2" fill="#000000" />
<rect x="5" y="9" width="1" height="1" fill="#676767" />
<rect x="8" y="9" width="1" height="1" fill="#111111" />
<rect x="11" y="9" width="1" height="7" fill="#000000" />
<rect x="13" y="9" width="2" height="1" fill="#000000" />
<rect x="15" y="9" width="1" height="1" fill="#040404" />
<rect x="16" y="9" width="1" height="19" fill="#000000" />
<rect x="17" y="9" width="1" height="1" fill="#050505" />
<rect x="20" y="9" width="1" height="5" fill="#000000" />
<rect x="21" y="9" width="1" height="1" fill="#010101" />
<rect x="22" y="9" width="1" height="1" fill="#9A9A9A" />
<rect x="23" y="9" width="1" height="1" fill="#969696" />
<rect x="24" y="9" width="1" height="1" fill="#35343C" />
<rect x="25" y="9" width="1" height="1" fill="#010103" />
<rect x="26" y="9" width="1" height="1" fill="#777779" />
<rect x="27" y="9" width="1" height="1" fill="#010101" />
<rect x="28" y="9" width="1" height="1" fill="#6B6B6D" />
<rect x="29" y="9" width="1" height="1" fill="#7A7A7C" />
<rect x="30" y="9" width="1" height="1" fill="#000002" />
<rect x="31" y="9" width="1" height="1" fill="#030303" />
<rect x="0" y="10" width="1" height="1" fill="#060606" />
<rect x="1" y="10" width="1" height="1" fill="#0E0E0E" />
<rect x="4" y="10" width="2" height="1" fill="#040404" />
<rect x="6" y="10" width="1" height="1" fill="#202020" />
<rect x="7" y="10" width="1" height="1" fill="#060606" />
<rect x="8" y="10" width="1" height="1" fill="#020202" />
<rect x="13" y="10" width="1" height="6" fill="#000000" />
<rect x="14" y="10" width="1" height="1" fill="#020202" />
<rect x="15" y="10" width="1" height="1" fill="#000000" />
<rect x="17" y="10" width="1" height="1" fill="#020202" />
<rect x="21" y="10" width="1" height="1" fill="#030303" />
<rect x="22" y="10" width="1" height="1" fill="#7E7E7E" />
<rect x="23" y="10" width="1" height="1" fill="#333333" />
<rect x="24" y="10" width="1" height="1" fill="#363638" />
<rect x="25" y="10" width="1" height="1" fill="#313036" />
<rect x="26" y="10" width="1" height="1" fill="#000002" />
<rect x="27" y="10" width="1" height="1" fill="#1C1C1E" />
<rect x="28" y="10" width="1" height="1" fill="#1A1A1C" />
<rect x="29" y="10" width="1" height="1" fill="#030305" />
<rect x="30" y="10" width="1" height="1" fill="#171719" />
<rect x="31" y="10" width="1" height="1" fill="#131313" />
<rect x="0" y="11" width="1" height="1" fill="#000000" />
<rect x="1" y="11" width="1" height="1" fill="#555555" />
<rect x="2" y="11" width="1" height="1" fill="#080808" />
<rect x="3" y="11" width="1" height="1" fill="#0B0B0B" />
<rect x="4" y="11" width="1" height="1" fill="#202020" />
<rect x="5" y="11" width="1" height="1" fill="#040404" />
<rect x="6" y="11" width="1" height="4" fill="#000000" />
<rect x="7" y="11" width="1" height="1" fill="#010101" />
<rect x="8" y="11" width="1" height="4" fill="#000000" />
<rect x="14" y="11" width="1" height="1" fill="#000000" />
<rect x="15" y="11" width="1" height="2" fill="#020202" />
<rect x="17" y="11" width="1" height="2" fill="#010101" />
<rect x="18" y="11" width="1" height="1" fill="#4A4A4A" />
<rect x="21" y="11" width="2" height="6" fill="#000000" />
<rect x="23" y="11" width="1" height="1" fill="#A4A4A4" />
<rect x="24" y="11" width="1" height="1" fill="#48484A" />
<rect x="25" y="11" width="1" height="1" fill="#343339" />
<rect x="26" y="11" width="1" height="1" fill="#19191B" />
<rect x="27" y="11" width="1" height="1" fill="#1F1F21" />
<rect x="28" y="11" width="1" height="1" fill="#3A3A3C" />
<rect x="29" y="11" width="1" height="1" fill="#1F1F21" />
<rect x="30" y="11" width="1" height="1" fill="#0D0D0F" />
<rect x="31" y="11" width="1" height="2" fill="#000000" />
<rect x="0" y="12" width="1" height="1" fill="#8F8F8F" />
<rect x="1" y="12" width="1" height="1" fill="#A2A2A2" />
<rect x="2" y="12" width="1" height="1" fill="#646464" />
<rect x="3" y="12" width="1" height="1" fill="#353535" />
<rect x="4" y="12" width="1" height="1" fill="#1D1D1D" />
<rect x="5" y="12" width="1" height="1" fill="#090909" />
<rect x="7" y="12" width="1" height="1" fill="#070707" />
<rect x="14" y="12" width="1" height="1" fill="#010101" />
<rect x="18" y="12" width="1" height="1" fill="#0B0B0B" />
<rect x="23" y="12" width="1" height="1" fill="#030303" />
<rect x="24" y="12" width="1" height="1" fill="#363638" />
<rect x="25" y="12" width="1" height="1" fill="#38373D" />
<rect x="26" y="12" width="1" height="1" fill="#434345" />
<rect x="27" y="12" width="1" height="1" fill="#000002" />
<rect x="28" y="12" width="1" height="1" fill="#08080A" />
<rect x="29" y="12" width="1" height="1" fill="#020204" />
<rect x="30" y="12" width="1" height="1" fill="#0A0A0C" />
<rect x="0" y="13" width="1" height="1" fill="#151515" />
<rect x="1" y="13" width="1" height="1" fill="#262626" />
<rect x="2" y="13" width="1" height="1" fill="#020202" />
<rect x="3" y="13" width="1" height="1" fill="#060606" />
<rect x="4" y="13" width="1" height="1" fill="#030303" />
<rect x="5" y="13" width="1" height="1" fill="#000000" />
<rect x="7" y="13" width="1" height="1" fill="#5E5E5E" />
<rect x="14" y="13" width="1" height="1" fill="#252525" />
<rect x="15" y="13" width="1" height="15" fill="#000000" />
<rect x="17" y="13" width="2" height="16" fill="#000000" />
<rect x="19" y="13" width="1" height="1" fill="#696969" />
<rect x="23" y="13" width="2" height="8" fill="#000000" />
<rect x="25" y="13" width="1" height="1" fill="#4E4E50" />
<rect x="26" y="13" width="1" height="1" fill="#313133" />
<rect x="27" y="13" width="1" height="1" fill="#030303" />
<rect x="28" y="13" width="1" height="1" fill="#505050" />
<rect x="29" y="13" width="1" height="1" fill="#010101" />
<rect x="30" y="13" width="1" height="7" fill="#000000" />
<rect x="31" y="13" width="1" height="1" fill="#1B1B1B" />
<rect x="0" y="14" width="1" height="1" fill="#757575" />
<rect x="1" y="14" width="4" height="1" fill="#000000" />
<rect x="5" y="14" width="1" height="1" fill="#555555" />
<rect x="7" y="14" width="1" height="1" fill="#010101" />
<rect x="14" y="14" width="1" height="6" fill="#000000" />
<rect x="19" y="14" width="1" height="1" fill="#070707" />
<rect x="20" y="14" width="1" height="1" fill="#232323" />
<rect x="25" y="14" width="1" height="1" fill="#222224" />
<rect x="26" y="14" width="1" height="1" fill="#6B6B6D" />
<rect x="27" y="14" width="1" height="1" fill="#010101" />
<rect x="28" y="14" width="1" height="1" fill="#080808" />
<rect x="29" y="14" width="1" height="2" fill="#000000" />
<rect x="31" y="14" width="1" height="5" fill="#000000" />
<rect x="0" y="15" width="1" height="1" fill="#040406" />
<rect x="1" y="15" width="1" height="1" fill="#AAAAAC" />
<rect x="2" y="15" width="1" height="1" fill="#040404" />
<rect x="3" y="15" width="2" height="4" fill="#000000" />
<rect x="5" y="15" width="1" height="1" fill="#030303" />
<rect x="6" y="15" width="1" height="1" fill="#070707" />
<rect x="7" y="15" width="1" height="3" fill="#000000" />
<rect x="8" y="15" width="1" height="1" fill="#070707" />
<rect x="9" y="15" width="1" height="1" fill="#020202" />
<rect x="19" y="15" width="1" height="1" fill="#010101" />
<rect x="20" y="15" width="1" height="1" fill="#040404" />
<rect x="25" y="15" width="1" height="1" fill="#050505" />
<rect x="26" y="15" width="1" height="1" fill="#2C2C2C" />
<rect x="27" y="15" width="1" height="1" fill="#040301" />
<rect x="28" y="15" width="1" height="1" fill="#09070C" />
<rect x="0" y="16" width="1" height="1" fill="#030305" />
<rect x="1" y="16" width="1" height="1" fill="#000002" />
<rect x="2" y="16" width="1" height="1" fill="#000000" />
<rect x="5" y="16" width="1" height="4" fill="#000000" />
<rect x="6" y="16" width="1" height="1" fill="#252525" />
<rect x="8" y="16" width="1" height="1" fill="#303030" />
<rect x="9" y="16" width="1" height="1" fill="#040404" />
<rect x="11" y="16" width="1" height="1" fill="#020202" />
<rect x="12" y="16" width="1" height="1" fill="#0E0E0E" />
<rect x="13" y="16" width="1" height="1" fill="#1C1C1C" />
<rect x="19" y="16" width="1" height="13" fill="#000000" />
<rect x="20" y="16" width="1" height="1" fill="#232323" />
<rect x="25" y="16" width="1" height="4" fill="#000000" />
<rect x="26" y="16" width="1" height="1" fill="#888888" />
<rect x="27" y="16" width="1" height="1" fill="#08060B" />
<rect x="28" y="16" width="1" height="1" fill="#0D0917" />
<rect x="29" y="16" width="1" height="2" fill="#010101" />
<rect x="0" y="17" width="1" height="1" fill="#161618" />
<rect x="1" y="17" width="1" height="1" fill="#020204" />
<rect x="2" y="17" width="1" height="1" fill="#404040" />
<rect x="6" y="17" width="1" height="3" fill="#000000" />
<rect x="8" y="17" width="1" height="1" fill="#080808" />
<rect x="9" y="17" width="1" height="2" fill="#000000" />
<rect x="11" y="17" width="1" height="1" fill="#000000" />
<rect x="12" y="17" width="1" height="1" fill="#A6A6A6" />
<rect x="13" y="17" width="1" height="1" fill="#000000" />
<rect x="20" y="17" width="1" height="1" fill="#060606" />
<rect x="21" y="17" width="1" height="1" fill="#0A0A0A" />
<rect x="22" y="17" width="1" height="2" fill="#000000" />
<rect x="26" y="17" width="1" height="1" fill="#7A7A7A" />
<rect x="27" y="17" width="1" height="1" fill="#0A0907" />
<rect x="28" y="17" width="1" height="1" fill="#262429" />
<rect x="0" y="18" width="1" height="1" fill="#141318" />
<rect x="1" y="18" width="1" height="1" fill="#040406" />
<rect x="2" y="18" width="1" height="1" fill="#151515" />
<rect x="7" y="18" width="1" height="1" fill="#030303" />
<rect x="8" y="18" width="1" height="2" fill="#010101" />
<rect x="10" y="18" width="1" height="1" fill="#090909" />
<rect x="11" y="18" width="1" height="1" fill="#494949" />
<rect x="12" y="18" width="1" height="5" fill="#000000" />
<rect x="13" y="18" width="1" height="1" fill="#262626" />
<rect x="20" y="18" width="1" height="10" fill="#000000" />
<rect x="21" y="18" width="1" height="2" fill="#030303" />
<rect x="26" y="18" width="1" height="1" fill="#797979" />
<rect x="27" y="18" width="1" height="1" fill="#1B1B1D" />
<rect x="28" y="18" width="1" height="1" fill="#28282A" />
<rect x="29" y="18" width="1" height="1" fill="#0B0B0B" />
<rect x="0" y="19" width="1" height="1" fill="#1D1C21" />
<rect x="1" y="19" width="1" height="1" fill="#757577" />
<rect x="2" y="19" width="1" height="1" fill="#030303" />
<rect x="3" y="19" width="1" height="1" fill="#7F7F7F" />
<rect x="4" y="19" width="1" height="1" fill="#141414" />
<rect x="7" y="19" width="1" height="1" fill="#2E2E2E" />
<rect x="9" y="19" width="1" height="1" fill="#515151" />
<rect x="10" y="19" width="2" height="3" fill="#000000" />
<rect x="13" y="19" width="1" height="1" fill="#121212" />
<rect x="22" y="19" width="1" height="1" fill="#141414" />
<rect x="26" y="19" width="1" height="1" fill="#696969" />
<rect x="27" y="19" width="1" height="1" fill="#59595B" />
<rect x="28" y="19" width="1" height="1" fill="#737375" />
<rect x="29" y="19" width="1" height="1" fill="#010101" />
<rect x="31" y="19" width="1" height="1" fill="#000004" />
<rect x="0" y="20" width="1" height="1" fill="#312F34" />
<rect x="1" y="20" width="1" height="1" fill="#0B090E" />
<rect x="2" y="20" width="1" height="1" fill="#000002" />
<rect x="3" y="20" width="1" height="1" fill="#000000" />
<rect x="4" y="20" width="1" height="1" fill="#010101" />
<rect x="5" y="20" width="1" height="1" fill="#0A0A0A" />
<rect x="6" y="20" width="1" height="1" fill="#020202" />
<rect x="7" y="20" width="1" height="1" fill="#030303" />
<rect x="8" y="20" width="1" height="4" fill="#000000" />
<rect x="9" y="20" width="1" height="1" fill="#050505" />
<rect x="13" y="20" width="1" height="1" fill="#030303" />
<rect x="14" y="20" width="1" height="2" fill="#040404" />
<rect x="21" y="20" width="1" height="1" fill="#020202" />
<rect x="22" y="20" width="1" height="1" fill="#585858" />
<rect x="25" y="20" width="1" height="1" fill="#010103" />
<rect x="26" y="20" width="1" height="1" fill="#4F4F51" />
<rect x="27" y="20" width="1" height="1" fill="#4C4C4E" />
<rect x="28" y="20" width="1" height="1" fill="#29292B" />
<rect x="29" y="20" width="1" height="1" fill="#434343" />
<rect x="30" y="20" width="1" height="1" fill="#010103" />
<rect x="31" y="20" width="1" height="1" fill="#04020D" />
<rect x="0" y="21" width="1" height="2" fill="#2E2C31" />
<rect x="1" y="21" width="1" height="1" fill="#0E0C11" />
<rect x="2" y="21" width="1" height="1" fill="#222224" />
<rect x="3" y="21" width="1" height="1" fill="#060606" />
<rect x="4" y="21" width="1" height="2" fill="#000000" />
<rect x="5" y="21" width="1" height="1" fill="#020202" />
<rect x="6" y="21" width="2" height="1" fill="#000000" />
<rect x="9" y="21" width="1" height="2" fill="#000000" />
<rect x="13" y="21" width="1" height="3" fill="#000000" />
<rect x="21" y="21" width="1" height="5" fill="#000000" />
<rect x="22" y="21" width="1" height="1" fill="#030303" />
<rect x="23" y="21" width="1" height="1" fill="#434343" />
<rect x="24" y="21" width="1" height="1" fill="#4B4B4B" />
<rect x="25" y="21" width="1" height="1" fill="#565658" />
<rect x="26" y="21" width="1" height="1" fill="#000002" />
<rect x="27" y="21" width="1" height="2" fill="#7D7D7F" />
<rect x="28" y="21" width="1" height="1" fill="#272729" />
<rect x="29" y="21" width="1" height="1" fill="#101010" />
<rect x="30" y="21" width="1" height="1" fill="#030305" />
<rect x="31" y="21" width="1" height="1" fill="#07060C" />
<rect x="1" y="22" width="1" height="1" fill="#201E23" />
<rect x="2" y="22" width="1" height="1" fill="#09090B" />
<rect x="3" y="22" width="1" height="1" fill="#050505" />
<rect x="5" y="22" width="1" height="2" fill="#000000" />
<rect x="6" y="22" width="1" height="1" fill="#868686" />
<rect x="7" y="22" width="1" height="1" fill="#000000" />
<rect x="10" y="22" width="1" height="1" fill="#000000" />
<rect x="11" y="22" width="1" height="1" fill="#6F6F6F" />
<rect x="14" y="22" width="1" height="1" fill="#020202" />
<rect x="22" y="22" width="1" height="1" fill="#010101" />
<rect x="23" y="22" width="1" height="1" fill="#1E1E1E" />
<rect x="24" y="22" width="1" height="1" fill="#7E7E7E" />
<rect x="25" y="22" width="1" height="1" fill="#4B4B4D" />
<rect x="26" y="22" width="1" height="1" fill="#414143" />
<rect x="28" y="22" width="1" height="1" fill="#3C3C3E" />
<rect x="29" y="22" width="1" height="1" fill="#222222" />
<rect x="30" y="22" width="1" height="1" fill="#000002" />
<rect x="31" y="22" width="1" height="1" fill="#06050A" />
<rect x="0" y="23" width="1" height="1" fill="#303032" />
<rect x="1" y="23" width="1" height="1" fill="#38373D" />
<rect x="2" y="23" width="1" height="1" fill="#060608" />
<rect x="3" y="23" width="1" height="1" fill="#141414" />
<rect x="4" y="23" width="1" height="1" fill="#090909" />
<rect x="6" y="23" width="1" height="1" fill="#000000" />
<rect x="7" y="23" width="1" height="1" fill="#474747" />
<rect x="9" y="23" width="1" height="1" fill="#050505" />
<rect x="10" y="23" width="1" height="1" fill="#060606" />
<rect x="11" y="23" width="1" height="1" fill="#626262" />
<rect x="12" y="23" width="1" height="1" fill="#101010" />
<rect x="14" y="23" width="1" height="1" fill="#040404" />
<rect x="22" y="23" width="1" height="2" fill="#000000" />
<rect x="23" y="23" width="1" height="1" fill="#08080A" />
<rect x="24" y="23" width="1" height="1" fill="#8A8A8C" />
<rect x="25" y="23" width="1" height="1" fill="#707072" />
<rect x="26" y="23" width="1" height="1" fill="#3A3A3C" />
<rect x="27" y="23" width="1" height="1" fill="#0E0E10" />
<rect x="28" y="23" width="1" height="1" fill="#1A1A1C" />
<rect x="29" y="23" width="1" height="1" fill="#7B7B7D" />
<rect x="30" y="23" width="1" height="1" fill="#252527" />
<rect x="31" y="23" width="1" height="1" fill="#202020" />
<rect x="0" y="24" width="1" height="1" fill="#28282A" />
<rect x="1" y="24" width="1" height="1" fill="#5F5E64" />
<rect x="2" y="24" width="1" height="1" fill="#222127" />
<rect x="3" y="24" width="1" height="1" fill="#0E0D15" />
<rect x="4" y="24" width="1" height="1" fill="#59585D" />
<rect x="5" y="24" width="1" height="1" fill="#2C2B30" />
<rect x="6" y="24" width="1" height="1" fill="#1C1B20" />
<rect x="7" y="24" width="1" height="1" fill="#17161B" />
<rect x="8" y="24" width="1" height="1" fill="#0C0B10" />
<rect x="9" y="24" width="1" height="1" fill="#0B0B0D" />
<rect x="10" y="24" width="1" height="1" fill="#A8A8A8" />
<rect x="11" y="24" width="1" height="1" fill="#7B7B7B" />
<rect x="12" y="24" width="1" height="1" fill="#020202" />
<rect x="13" y="24" width="1" height="1" fill="#777777" />
<rect x="14" y="24" width="1" height="2" fill="#000000" />
<rect x="23" y="24" width="1" height="1" fill="#000002" />
<rect x="24" y="24" width="1" height="1" fill="#060608" />
<rect x="25" y="24" width="1" height="1" fill="#5B5B5D" />
<rect x="26" y="24" width="1" height="1" fill="#575759" />
<rect x="27" y="24" width="1" height="1" fill="#363638" />
<rect x="28" y="24" width="1" height="1" fill="#232325" />
<rect x="29" y="24" width="1" height="1" fill="#767678" />
<rect x="30" y="24" width="1" height="1" fill="#909092" />
<rect x="31" y="24" width="1" height="1" fill="#656565" />
<rect x="0" y="25" width="1" height="1" fill="#0B0B0D" />
<rect x="1" y="25" width="1" height="1" fill="#161618" />
<rect x="2" y="25" width="1" height="1" fill="#373739" />
<rect x="3" y="25" width="1" height="1" fill="#262628" />
<rect x="4" y="25" width="1" height="1" fill="#0C0C0E" />
<rect x="5" y="25" width="1" height="1" fill="#7F7F81" />
<rect x="6" y="25" width="1" height="1" fill="#111113" />
<rect x="7" y="25" width="1" height="1" fill="#1B1B1D" />
<rect x="8" y="25" width="1" height="1" fill="#0B0A0F" />
<rect x="9" y="25" width="1" height="1" fill="#252429" />
<rect x="10" y="25" width="1" height="1" fill="#2A292E" />
<rect x="11" y="25" width="1" height="1" fill="#000002" />
<rect x="12" y="25" width="1" height="3" fill="#000000" />
<rect x="13" y="25" width="1" height="1" fill="#060606" />
<rect x="22" y="25" width="1" height="1" fill="#020202" />
<rect x="23" y="25" width="1" height="1" fill="#0C0B10" />
<rect x="24" y="25" width="1" height="1" fill="#2F2E33" />
<rect x="25" y="25" width="1" height="1" fill="#353537" />
<rect x="26" y="25" width="1" height="1" fill="#707072" />
<rect x="27" y="25" width="1" height="1" fill="#71726D" />
<rect x="28" y="25" width="1" height="1" fill="#282828" />
<rect x="29" y="25" width="1" height="1" fill="#343436" />
<rect x="30" y="25" width="1" height="1" fill="#464648" />
<rect x="31" y="25" width="1" height="1" fill="#878787" />
<rect x="0" y="26" width="1" height="1" fill="#848486" />
<rect x="1" y="26" width="1" height="1" fill="#58585A" />
<rect x="2" y="26" width="1" height="1" fill="#6A6A6C" />
<rect x="3" y="26" width="1" height="1" fill="#333335" />
<rect x="4" y="26" width="1" height="1" fill="#1F1F21" />
<rect x="5" y="26" width="1" height="1" fill="#8C8C8E" />
<rect x="6" y="26" width="1" height="1" fill="#000002" />
<rect x="7" y="26" width="1" height="1" fill="#050507" />
<rect x="8" y="26" width="1" height="1" fill="#302F34" />
<rect x="9" y="26" width="1" height="1" fill="#37363B" />
<rect x="10" y="26" width="1" height="1" fill="#121116" />
<rect x="11" y="26" width="1" height="1" fill="#575759" />
<rect x="13" y="26" width="1" height="2" fill="#000000" />
<rect x="14" y="26" width="1" height="1" fill="#0C0C0C" />
<rect x="21" y="26" width="1" height="1" fill="#121212" />
<rect x="22" y="26" width="1" height="1" fill="#252525" />
<rect x="23" y="26" width="1" height="1" fill="#252429" />
<rect x="24" y="26" width="1" height="1" fill="#2E2D32" />
<rect x="25" y="26" width="1" height="1" fill="#28282A" />
<rect x="26" y="26" width="1" height="1" fill="#88888A" />
<rect x="27" y="26" width="1" height="1" fill="#989994" />
<rect x="28" y="26" width="1" height="1" fill="#9A9A9A" />
<rect x="29" y="26" width="1" height="1" fill="#58585A" />
<rect x="30" y="26" width="1" height="1" fill="#313133" />
<rect x="31" y="26" width="1" height="1" fill="#5E5E5E" />
<rect x="0" y="27" width="1" height="1" fill="#1A1A1C" />
<rect x="1" y="27" width="1" height="1" fill="#BEBEC0" />
<rect x="2" y="27" width="1" height="1" fill="#272729" />
<rect x="3" y="27" width="1" height="2" fill="#363638" />
<rect x="4" y="27" width="1" height="1" fill="#434345" />
<rect x="5" y="27" width="1" height="1" fill="#A1A1A3" />
<rect x="6" y="27" width="1" height="1" fill="#141416" />
<rect x="7" y="27" width="1" height="1" fill="#060608" />
<rect x="8" y="27" width="1" height="1" fill="#111015" />
<rect x="9" y="27" width="1" height="1" fill="#403F44" />
<rect x="10" y="27" width="1" height="1" fill="#09080D" />
<rect x="11" y="27" width="1" height="1" fill="#2C2C2E" />
<rect x="14" y="27" width="1" height="1" fill="#030303" />
<rect x="21" y="27" width="1" height="1" fill="#5B5B5B" />
<rect x="22" y="27" width="1" height="1" fill="#4C4C4C" />
<rect x="23" y="27" width="1" height="1" fill="#49484D" />
<rect x="24" y="27" width="1" height="1" fill="#3A393E" />
<rect x="25" y="27" width="1" height="1" fill="#414143" />
<rect x="26" y="27" width="1" height="1" fill="#515153" />
<rect x="27" y="27" width="1" height="1" fill="#93948F" />
<rect x="28" y="27" width="1" height="1" fill="#A6A6A6" />
<rect x="29" y="27" width="1" height="1" fill="#09090B" />
<rect x="30" y="27" width="1" height="1" fill="#656567" />
<rect x="31" y="27" width="1" height="1" fill="#636363" />
<rect x="0" y="28" width="1" height="1" fill="#252527" />
<rect x="1" y="28" width="1" height="1" fill="#BABABC" />
<rect x="2" y="28" width="1" height="1" fill="#0A0A0C" />
<rect x="4" y="28" width="1" height="1" fill="#727274" />
<rect x="5" y="28" width="1" height="1" fill="#3A3A3C" />
<rect x="6" y="28" width="1" height="1" fill="#373739" />
<rect x="7" y="28" width="1" height="1" fill="#2B2B2D" />
<rect x="8" y="28" width="1" height="1" fill="#000002" />
<rect x="9" y="28" width="1" height="1" fill="#0A090E" />
<rect x="10" y="28" width="1" height="1" fill="#161618" />
<rect x="11" y="28" width="1" height="1" fill="#262429" />
<rect x="12" y="28" width="1" height="1" fill="#110F14" />
<rect x="13" y="28" width="1" height="1" fill="#0D0D0F" />
<rect x="14" y="28" width="1" height="1" fill="#000000" />
<rect x="15" y="28" width="1" height="1" fill="#070707" />
<rect x="16" y="28" width="1" height="1" fill="#272727" />
<rect x="20" y="28" width="1" height="1" fill="#0B0B0B" />
<rect x="21" y="28" width="1" height="2" fill="#202022" />
<rect x="22" y="28" width="1" height="1" fill="#2B2B2D" />
<rect x="23" y="28" width="1" height="1" fill="#353439" />
<rect x="24" y="28" width="1" height="1" fill="#222126" />
<rect x="25" y="28" width="1" height="1" fill="#1D1D1F" />
<rect x="26" y="28" width="1" height="1" fill="#404042" />
<rect x="27" y="28" width="1" height="1" fill="#6D6D6F" />
<rect x="28" y="28" width="1" height="1" fill="#A5A5A7" />
<rect x="29" y="28" width="1" height="1" fill="#7E7E80" />
<rect x="30" y="28" width="1" height="1" fill="#1B1B1D" />
<rect x="31" y="28" width="1" height="1" fill="#686868" />
<rect x="0" y="29" width="1" height="1" fill="#444446" />
<rect x="1" y="29" width="1" height="1" fill="#A7A7A9" />
<rect x="2" y="29" width="1" height="1" fill="#79797B" />
<rect x="3" y="29" width="1" height="1" fill="#909092" />
<rect x="4" y="29" width="1" height="1" fill="#69696B" />
<rect x="5" y="29" width="1" height="1" fill="#515153" />
<rect x="6" y="29" width="1" height="1" fill="#333335" />
<rect x="7" y="29" width="1" height="1" fill="#3C3C3E" />
<rect x="8" y="29" width="1" height="1" fill="#050507" />
<rect x="9" y="29" width="1" height="1" fill="#000000" />
<rect x="10" y="29" width="1" height="1" fill="#7A7A7C" />
<rect x="11" y="29" width="1" height="1" fill="#07050A" />
<rect x="12" y="29" width="1" height="1" fill="#27252A" />
<rect x="13" y="29" width="1" height="1" fill="#36353A" />
<rect x="14" y="29" width="2" height="1" fill="#17161B" />
<rect x="16" y="29" width="1" height="1" fill="#434247" />
<rect x="17" y="29" width="1" height="1" fill="#ACABB0" />
<rect x="18" y="29" width="1" height="1" fill="#B5B4B9" />
<rect x="19" y="29" width="1" height="1" fill="#8C8C8A" />
<rect x="20" y="29" width="1" height="1" fill="#373737" />
<rect x="22" y="29" width="1" height="1" fill="#464648" />
<rect x="23" y="29" width="1" height="1" fill="#56555A" />
<rect x="24" y="29" width="1" height="1" fill="#626166" />
<rect x="25" y="29" width="1" height="1" fill="#2D2D2F" />
<rect x="26" y="29" width="1" height="1" fill="#8A8A8C" />
<rect x="27" y="29" width="1" height="1" fill="#3B3B3D" />
<rect x="28" y="29" width="1" height="1" fill="#979799" />
<rect x="29" y="29" width="1" height="1" fill="#AAAAAC" />
<rect x="30" y="29" width="1" height="1" fill="#9E9EA0" />
<rect x="31" y="29" width="1" height="1" fill="#474747" />
<rect x="0" y="30" width="1" height="1" fill="#1E1E1E" />
<rect x="1" y="30" width="1" height="1" fill="#6E6E6E" />
<rect x="2" y="30" width="1" height="1" fill="#000000" />
<rect x="3" y="30" width="1" height="1" fill="#151515" />
<rect x="4" y="30" width="1" height="1" fill="#5A5A5A" />
<rect x="5" y="30" width="1" height="1" fill="#5E5E5E" />
<rect x="6" y="30" width="1" height="1" fill="#323232" />
<rect x="7" y="30" width="1" height="1" fill="#343434" />
<rect x="8" y="30" width="1" height="1" fill="#363638" />
<rect x="9" y="30" width="1" height="1" fill="#0E0E10" />
<rect x="10" y="30" width="1" height="1" fill="#070707" />
<rect x="11" y="30" width="1" height="1" fill="#06050A" />
<rect x="12" y="30" width="1" height="1" fill="#020107" />
<rect x="13" y="30" width="1" height="1" fill="#000005" />
<rect x="14" y="30" width="1" height="1" fill="#4C4B51" />
<rect x="15" y="30" width="2" height="1" fill="#1C1B21" />
<rect x="17" y="30" width="1" height="2" fill="#262628" />
<rect x="18" y="30" width="1" height="1" fill="#1D1D1F" />
<rect x="19" y="30" width="1" height="1" fill="#29282D" />
<rect x="20" y="30" width="1" height="1" fill="#2B2A2F" />
<rect x="21" y="30" width="1" height="1" fill="#1B1B1D" />
<rect x="22" y="30" width="1" height="1" fill="#4B4B4D" />
<rect x="23" y="30" width="1" height="1" fill="#575759" />
<rect x="24" y="30" width="1" height="1" fill="#4F4F51" />
<rect x="25" y="30" width="1" height="1" fill="#6A6A6C" />
<rect x="26" y="30" width="1" height="1" fill="#959597" />
<rect x="27" y="30" width="1" height="1" fill="#9B9C9E" />
<rect x="28" y="30" width="1" height="1" fill="#6B6C6E" />
<rect x="29" y="30" width="1" height="1" fill="#9FA0A2" />
<rect x="30" y="30" width="1" height="1" fill="#A3A4A6" />
<rect x="31" y="30" width="1" height="1" fill="#515153" />
<rect x="0" y="31" width="1" height="1" fill="#5D5D5D" />
<rect x="1" y="31" width="1" height="1" fill="#1B1B1B" />
<rect x="2" y="31" width="1" height="1" fill="#717171" />
<rect x="3" y="31" width="1" height="1" fill="#3A3A3A" />
<rect x="4" y="31" width="1" height="1" fill="#0B0B0B" />
<rect x="5" y="31" width="1" height="1" fill="#090909" />
<rect x="6" y="31" width="1" height="1" fill="#A7A7A7" />
<rect x="7" y="31" width="1" height="1" fill="#6F6F6F" />
<rect x="8" y="31" width="1" height="1" fill="#323234" />
<rect x="9" y="31" width="1" height="1" fill="#434345" />
<rect x="10" y="31" width="1" height="1" fill="#040404" />
<rect x="11" y="31" width="1" height="1" fill="#535355" />
<rect x="12" y="31" width="1" height="1" fill="#000002" />
<rect x="13" y="31" width="1" height="1" fill="#040406" />
<rect x="14" y="31" width="1" height="1" fill="#000002" />
<rect x="15" y="31" width="1" height="1" fill="#040406" />
<rect x="16" y="31" width="1" height="1" fill="#6A6A6C" />
<rect x="18" y="31" width="1" height="1" fill="#2A2A2C" />
<rect x="19" y="31" width="1" height="1" fill="#46454A" />
<rect x="20" y="31" width="1" height="1" fill="#16151A" />
<rect x="21" y="31" width="1" height="1" fill="#949496" />
<rect x="22" y="31" width="1" height="1" fill="#444446" />
<rect x="23" y="31" width="1" height="1" fill="#535355" />
<rect x="24" y="31" width="1" height="1" fill="#4A4A4C" />
<rect x="25" y="31" width="1" height="1" fill="#9B9B9D" />
<rect x="26" y="31" width="1" height="1" fill="#A3A3A5" />
<rect x="27" y="31" width="1" height="1" fill="#A5A6A8" />
<rect x="28" y="31" width="1" height="1" fill="#A3A4A6" />
<rect x="29" y="31" width="1" height="1" fill="#A6A7A9" />
<rect x="30" y="31" width="1" height="1" fill="#B1B2B4" />
<rect x="31" y="31" width="1" height="1" fill="#68686A" />
</svg>