<?xml version="1.0" encoding="UTF-8" ?>
<svg version="1.1" width="32" height="32" xmlns="http://www.w3.org/2000/svg" shape-rendering="crispEdges">
<rect x="0" y="0" width="32" height="32" fill="#8080FF" />
<rect x="0" y="0" width="1" height="1" fill="#7180FE" />
<rect x="1" y="0" width="1" height="1" fill="#6285FD" />
<rect x="2" y="0" width="1" height="1" fill="#628BFD" />
<rect x="3" y="0" width="1" height="1" fill="#8092FE" />
<rect x="4" y="0" width="1" height="1" fill="#9D8BFD" />
<rect x="5" y="0" width="1" height="1" fill="#9D85FD" />
<rect x="6" y="0" width="1" height="1" fill="#8E80FE" />
<rect x="10" y="0" width="1" height="1" fill="#7C80FF" />
<rect x="11" y="0" width="1" height="1" fill="#7A7CFF" />
<rect x="12" y="0" width="1" height="1" fill="#717AFE" />
<rect x="13" y="0" width="1" height="1" fill="#6D74FE" />
<rect x="14" y="0" width="1" height="1" fill="#6B74FE" />
<rect x="15" y="0" width="1" height="1" fill="#7474FE" />
<rect x="16" y="0" width="1" height="1" fill="#827AFF" />
<rect x="17" y="0" width="1" height="1" fill="#927CFE" />
<rect x="18" y="0" width="1" height="1" fill="#9980FD" />
<rect x="19" y="0" width="1" height="1" fill="#9280FE" />
<rect x="20" y="0" width="1" height="1" fill="#8980FF" />
<rect x="0" y="1" width="1" height="1" fill="#7680FF" />
<rect x="1" y="1" width="1" height="1" fill="#6D8BFE" />
<rect x="2" y="1" width="1" height="1" fill="#6E96FD" />
<rect x="3" y="1" width="1" height="1" fill="#80A2FC" />
<rect x="4" y="1" width="1" height="1" fill="#9096FD" />
<rect x="5" y="1" width="1" height="1" fill="#928BFE" />
<rect x="6" y="1" width="1" height="1" fill="#8980FF" />
<rect x="10" y="1" width="1" height="1" fill="#7A80FF" />
<rect x="11" y="1" width="1" height="1" fill="#7476FE" />
<rect x="12" y="1" width="1" height="1" fill="#686EFD" />
<rect x="13" y="1" width="1" height="1" fill="#6863FC" />
<rect x="14" y="1" width="1" height="1" fill="#6B68FD" />
<rect x="15" y="1" width="1" height="1" fill="#7A71FE" />
<rect x="16" y="1" width="1" height="1" fill="#8B80FF" />
<rect x="17" y="1" width="1" height="1" fill="#9685FE" />
<rect x="18" y="1" width="1" height="1" fill="#9D85FD" />
<rect x="19" y="1" width="1" height="1" fill="#9282FE" />
<rect x="20" y="1" width="1" height="1" fill="#8980FF" />
<rect x="21" y="1" width="1" height="1" fill="#807CFF" />
<rect x="22" y="1" width="1" height="1" fill="#807AFF" />
<rect x="23" y="1" width="1" height="1" fill="#8076FF" />
<rect x="24" y="1" width="1" height="1" fill="#807AFF" />
<rect x="25" y="1" width="1" height="1" fill="#807CFF" />
<rect x="0" y="2" width="1" height="1" fill="#7C80FF" />
<rect x="1" y="2" width="1" height="1" fill="#7A89FF" />
<rect x="2" y="2" width="1" height="1" fill="#7A92FE" />
<rect x="3" y="2" width="1" height="1" fill="#8099FD" />
<rect x="4" y="2" width="1" height="1" fill="#8592FE" />
<rect x="5" y="2" width="1" height="1" fill="#8589FF" />
<rect x="6" y="2" width="1" height="1" fill="#8280FF" />
<rect x="10" y="2" width="1" height="1" fill="#7480FF" />
<rect x="11" y="2" width="1" height="1" fill="#687AFE" />
<rect x="12" y="2" width="1" height="1" fill="#5D74FC" />
<rect x="13" y="2" width="1" height="1" fill="#686EFD" />
<rect x="14" y="2" width="1" height="1" fill="#7A74FF" />
<rect x="15" y="2" width="1" height="1" fill="#8B80FF" />
<rect x="16" y="2" width="1" height="1" fill="#968BFD" />
<rect x="17" y="2" width="1" height="1" fill="#9690FD" />
<rect x="18" y="2" width="1" height="1" fill="#968BFD" />
<rect x="19" y="2" width="1" height="1" fill="#8B85FF" />
<rect x="20" y="2" width="1" height="1" fill="#8280FF" />
<rect x="21" y="2" width="1" height="1" fill="#7A7AFF" />
<rect x="22" y="2" width="1" height="1" fill="#7A74FF" />
<rect x="23" y="2" width="1" height="1" fill="#806DFE" />
<rect x="24" y="2" width="1" height="1" fill="#8574FF" />
<rect x="25" y="2" width="1" height="1" fill="#857AFF" />
<rect x="26" y="2" width="1" height="1" fill="#8280FF" />
<rect x="1" y="3" width="1" height="1" fill="#8082FF" />
<rect x="2" y="3" width="1" height="1" fill="#8085FF" />
<rect x="3" y="3" width="1" height="1" fill="#8089FF" />
<rect x="4" y="3" width="1" height="1" fill="#8085FF" />
<rect x="5" y="3" width="1" height="1" fill="#8082FF" />
<rect x="10" y="3" width="1" height="1" fill="#7480FF" />
<rect x="11" y="3" width="1" height="1" fill="#6880FE" />
<rect x="12" y="3" width="1" height="1" fill="#5D80FC" />
<rect x="13" y="3" width="1" height="1" fill="#6885FE" />
<rect x="14" y="3" width="1" height="1" fill="#7C8BFF" />
<rect x="15" y="3" width="1" height="1" fill="#9096FD" />
<rect x="16" y="3" width="1" height="1" fill="#9C96FC" />
<rect x="17" y="3" width="1" height="1" fill="#9696FC" />
<rect x="18" y="3" width="1" height="1" fill="#928BFE" />
<rect x="19" y="3" width="1" height="1" fill="#8585FF" />
<rect x="20" y="3" width="1" height="1" fill="#7C80FF" />
<rect x="21" y="3" width="1" height="1" fill="#747AFF" />
<rect x="22" y="3" width="1" height="1" fill="#7474FE" />
<rect x="23" y="3" width="1" height="1" fill="#806DFE" />
<rect x="24" y="3" width="1" height="1" fill="#8B74FE" />
<rect x="25" y="3" width="1" height="1" fill="#8B7AFF" />
<rect x="26" y="3" width="1" height="1" fill="#8580FF" />
<rect x="10" y="4" width="1" height="1" fill="#7480FF" />
<rect x="11" y="4" width="1" height="1" fill="#6885FE" />
<rect x="12" y="4" width="1" height="1" fill="#628BFD" />
<rect x="13" y="4" width="1" height="1" fill="#7499FD" />
<rect x="14" y="4" width="1" height="1" fill="#8B9DFD" />
<rect x="15" y="4" width="1" height="1" fill="#96A2FC" />
<rect x="16" y="4" width="1" height="1" fill="#9696FC" />
<rect x="17" y="4" width="1" height="1" fill="#8B92FE" />
<rect x="18" y="4" width="1" height="1" fill="#8585FF" />
<rect x="19" y="4" width="1" height="1" fill="#8082FF" />
<rect x="20" y="4" width="1" height="1" fill="#7680FF" />
<rect x="21" y="4" width="1" height="1" fill="#6D80FE" />
<rect x="22" y="4" width="1" height="1" fill="#6D80FE" />
<rect x="24" y="4" width="1" height="1" fill="#9280FE" />
<rect x="25" y="4" width="1" height="1" fill="#9280FE" />
<rect x="26" y="4" width="1" height="1" fill="#8980FF" />
<rect x="10" y="5" width="1" height="1" fill="#7A80FF" />
<rect x="11" y="5" width="1" height="1" fill="#7489FE" />
<rect x="12" y="5" width="1" height="1" fill="#7192FE" />
<rect x="13" y="5" width="1" height="1" fill="#7A9FFC" />
<rect x="14" y="5" width="1" height="1" fill="#859DFD" />
<rect x="15" y="5" width="1" height="1" fill="#8B99FD" />
<rect x="16" y="5" width="1" height="1" fill="#8B8BFE" />
<rect x="17" y="5" width="1" height="1" fill="#8585FF" />
<rect x="18" y="5" width="1" height="1" fill="#8280FF" />
<rect x="20" y="5" width="1" height="1" fill="#7A80FF" />
<rect x="21" y="5" width="1" height="1" fill="#7485FF" />
<rect x="22" y="5" width="1" height="1" fill="#748BFE" />
<rect x="23" y="5" width="1" height="1" fill="#8092FE" />
<rect x="24" y="5" width="1" height="1" fill="#8B8BFE" />
<rect x="25" y="5" width="1" height="1" fill="#8B85FF" />
<rect x="26" y="5" width="1" height="1" fill="#8580FF" />
<rect x="10" y="6" width="1" height="1" fill="#7C80FF" />
<rect x="11" y="6" width="1" height="1" fill="#7A85FF" />
<rect x="12" y="6" width="1" height="1" fill="#7A8BFF" />
<rect x="13" y="6" width="1" height="1" fill="#8094FE" />
<rect x="14" y="6" width="1" height="1" fill="#8592FE" />
<rect x="15" y="6" width="1" height="1" fill="#858EFE" />
<rect x="16" y="6" width="1" height="1" fill="#8285FF" />
<rect x="17" y="6" width="1" height="1" fill="#8082FF" />
<rect x="20" y="6" width="1" height="1" fill="#7C80FF" />
<rect x="21" y="6" width="1" height="1" fill="#7A85FF" />
<rect x="22" y="6" width="1" height="1" fill="#7A8BFF" />
<rect x="23" y="6" width="1" height="1" fill="#8092FE" />
<rect x="24" y="6" width="1" height="1" fill="#858BFF" />
<rect x="25" y="6" width="1" height="1" fill="#8585FF" />
<rect x="26" y="6" width="1" height="1" fill="#8280FF" />
<rect x="11" y="7" width="1" height="1" fill="#8082FF" />
<rect x="12" y="7" width="1" height="1" fill="#8085FF" />
<rect x="13" y="7" width="1" height="1" fill="#8089FF" />
<rect x="14" y="7" width="1" height="1" fill="#8085FF" />
<rect x="15" y="7" width="1" height="1" fill="#8082FF" />
<rect x="21" y="7" width="1" height="1" fill="#8082FF" />
<rect x="22" y="7" width="1" height="1" fill="#8085FF" />
<rect x="23" y="7" width="1" height="1" fill="#8089FF" />
<rect x="24" y="7" width="1" height="1" fill="#8085FF" />
<rect x="25" y="7" width="1" height="1" fill="#8082FF" />
<rect x="19" y="21" width="1" height="1" fill="#807CFF" />
<rect x="20" y="21" width="1" height="1" fill="#807AFF" />
<rect x="21" y="21" width="1" height="1" fill="#8076FF" />
<rect x="22" y="21" width="1" height="1" fill="#807AFF" />
<rect x="23" y="21" width="1" height="1" fill="#807CFF" />
<rect x="18" y="22" width="1" height="1" fill="#7C80FF" />
<rect x="19" y="22" width="1" height="1" fill="#7A76FF" />
<rect x="20" y="22" width="1" height="1" fill="#7A6DFE" />
<rect x="21" y="22" width="1" height="1" fill="#8066FD" />
<rect x="22" y="22" width="1" height="1" fill="#856DFE" />
<rect x="23" y="22" width="1" height="1" fill="#8576FF" />
<rect x="24" y="22" width="1" height="1" fill="#8280FF" />
<rect x="18" y="23" width="1" height="1" fill="#7680FF" />
<rect x="19" y="23" width="1" height="1" fill="#6D74FE" />
<rect x="20" y="23" width="1" height="1" fill="#6E68FD" />
<rect x="21" y="23" width="1" height="1" fill="#805DFC" />
<rect x="22" y="23" width="1" height="1" fill="#9068FD" />
<rect x="23" y="23" width="1" height="1" fill="#9274FE" />
<rect x="24" y="23" width="1" height="1" fill="#8980FF" />
<rect x="18" y="24" width="1" height="1" fill="#717CFE" />
<rect x="19" y="24" width="1" height="1" fill="#6271FC" />
<rect x="20" y="24" width="1" height="1" fill="#6366FC" />
<rect x="21" y="24" width="1" height="1" fill="#8060FC" />
<rect x="22" y="24" width="1" height="1" fill="#9D6BFC" />
<rect x="23" y="24" width="1" height="1" fill="#9D77FD" />
<rect x="24" y="24" width="1" height="1" fill="#8E80FE" />
<rect x="17" y="25" width="1" height="1" fill="#7C7CFF" />
<rect x="18" y="25" width="1" height="1" fill="#6871FD" />
<rect x="19" y="25" width="1" height="1" fill="#5866FA" />
<rect x="20" y="25" width="1" height="1" fill="#5D61FB" />
<rect x="21" y="25" width="1" height="1" fill="#856BFE" />
<rect x="22" y="25" width="1" height="1" fill="#A777FC" />
<rect x="23" y="25" width="1" height="1" fill="#A480FC" />
<rect x="24" y="25" width="1" height="1" fill="#9280FE" />
<rect x="16" y="26" width="1" height="1" fill="#7C80FF" />
<rect x="17" y="26" width="1" height="1" fill="#717AFE" />
<rect x="18" y="26" width="1" height="1" fill="#5A68FB" />
<rect x="19" y="26" width="1" height="1" fill="#535EF8" />
<rect x="20" y="26" width="1" height="1" fill="#685DFC" />
<rect x="21" y="26" width="1" height="1" fill="#9674FD" />
<rect x="22" y="26" width="1" height="1" fill="#B080FA" />
<rect x="23" y="26" width="1" height="1" fill="#A485FC" />
<rect x="24" y="26" width="1" height="1" fill="#8E80FE" />
<rect x="16" y="27" width="1" height="1" fill="#7A80FF" />
<rect x="17" y="27" width="1" height="1" fill="#667AFD" />
<rect x="18" y="27" width="1" height="1" fill="#4D6EF9" />
<rect x="19" y="27" width="1" height="1" fill="#4D6CF9" />
<rect x="20" y="27" width="1" height="1" fill="#7474FE" />
<rect x="21" y="27" width="1" height="1" fill="#A788FC" />
<rect x="22" y="27" width="1" height="1" fill="#B78AF8" />
<rect x="23" y="27" width="1" height="1" fill="#A488FC" />
<rect x="24" y="27" width="1" height="1" fill="#8B7CFF" />
<rect x="25" y="27" width="1" height="1" fill="#8076FF" />
<rect x="26" y="27" width="1" height="1" fill="#8071FE" />
<rect x="27" y="27" width="1" height="1" fill="#8071FE" />
<rect x="28" y="27" width="1" height="1" fill="#8076FF" />
<rect x="29" y="27" width="1" height="1" fill="#807CFF" />
<rect x="16" y="28" width="1" height="1" fill="#7680FF" />
<rect x="17" y="28" width="1" height="1" fill="#6080FC" />
<rect x="18" y="28" width="1" height="1" fill="#4D85F9" />
<rect x="19" y="28" width="1" height="1" fill="#5893FB" />
<rect x="20" y="28" width="1" height="1" fill="#85A2FC" />
<rect x="21" y="28" width="1" height="1" fill="#ACA3F8" />
<rect x="22" y="28" width="1" height="1" fill="#AE95F9" />
<rect x="23" y="28" width="1" height="1" fill="#9688FD" />
<rect x="24" y="28" width="1" height="1" fill="#7C7AFF" />
<rect x="25" y="28" width="1" height="1" fill="#746DFE" />
<rect x="26" y="28" width="1" height="1" fill="#7A62FD" />
<rect x="27" y="28" width="1" height="1" fill="#8562FD" />
<rect x="28" y="28" width="1" height="1" fill="#8B6DFE" />
<rect x="29" y="28" width="1" height="1" fill="#897AFF" />
<rect x="30" y="28" width="1" height="1" fill="#8280FF" />
<rect x="16" y="29" width="1" height="1" fill="#7A80FF" />
<rect x="17" y="29" width="1" height="1" fill="#6B85FE" />
<rect x="18" y="29" width="1" height="1" fill="#6096FC" />
<rect x="19" y="29" width="1" height="1" fill="#6AACFA" />
<rect x="20" y="29" width="1" height="1" fill="#85B7F8" />
<rect x="21" y="29" width="1" height="1" fill="#9CACF9" />
<rect x="22" y="29" width="1" height="1" fill="#9C96FC" />
<rect x="23" y="29" width="1" height="1" fill="#8985FF" />
<rect x="24" y="29" width="1" height="1" fill="#717AFE" />
<rect x="25" y="29" width="1" height="1" fill="#686EFD" />
<rect x="26" y="29" width="1" height="1" fill="#7462FD" />
<rect x="27" y="29" width="1" height="1" fill="#8B62FD" />
<rect x="28" y="29" width="1" height="1" fill="#966EFD" />
<rect x="29" y="29" width="1" height="1" fill="#927AFE" />
<rect x="30" y="29" width="1" height="1" fill="#8580FF" />
<rect x="16" y="30" width="1" height="1" fill="#7C80FF" />
<rect x="17" y="30" width="1" height="1" fill="#7685FF" />
<rect x="18" y="30" width="1" height="1" fill="#7494FE" />
<rect x="19" y="30" width="1" height="1" fill="#7AA4FC" />
<rect x="20" y="30" width="1" height="1" fill="#85AAFB" />
<rect x="21" y="30" width="1" height="1" fill="#8B9FFC" />
<rect x="22" y="30" width="1" height="1" fill="#898EFE" />
<rect x="23" y="30" width="1" height="1" fill="#7A82FF" />
<rect x="24" y="30" width="1" height="1" fill="#667CFD" />
<rect x="25" y="30" width="1" height="1" fill="#5D77FC" />
<rect x="26" y="30" width="1" height="1" fill="#6D71FE" />
<rect x="27" y="30" width="1" height="1" fill="#9271FE" />
<rect x="28" y="30" width="1" height="1" fill="#A277FC" />
<rect x="29" y="30" width="1" height="1" fill="#997CFD" />
<rect x="30" y="30" width="1" height="1" fill="#8980FF" />
<rect x="17" y="31" width="1" height="1" fill="#8082FF" />
<rect x="18" y="31" width="1" height="1" fill="#8089FF" />
<rect x="19" y="31" width="1" height="1" fill="#808EFE" />
<rect x="20" y="31" width="1" height="1" fill="#808EFE" />
<rect x="21" y="31" width="1" height="1" fill="#8089FF" />
<rect x="22" y="31" width="1" height="1" fill="#8082FF" />
<rect x="23" y="31" width="1" height="1" fill="#7680FF" />
<rect x="24" y="31" width="1" height="1" fill="#6680FD" />
<rect x="25" y="31" width="1" height="1" fill="#5D80FC" />
<rect x="26" y="31" width="1" height="1" fill="#6D80FE" />
<rect x="27" y="31" width="1" height="1" fill="#9280FE" />
<rect x="28" y="31" width="1" height="1" fill="#A280FC" />
<rect x="29" y="31" width="1" height="1" fill="#9980FD" />
<rect x="30" y="31" width="1" height="1" fill="#8980FF" />
</svg>
