<?xml version="1.0" encoding="UTF-8" ?>
<svg version="1.1" width="32" height="32" xmlns="http://www.w3.org/2000/svg" shape-rendering="crispEdges">
<rect x="0" y="0" width="1" height="8" fill="#CFCFCF" />
<rect x="1" y="0" width="2" height="8" fill="#D9D9D9" />
<rect x="3" y="0" width="1" height="7" fill="#CFCFCF" />
<rect x="4" y="0" width="3" height="8" fill="#D4D4D4" />
<rect x="7" y="0" width="1" height="3" fill="#D6D6D6" />
<rect x="8" y="0" width="1" height="6" fill="#D9D9D9" />
<rect x="9" y="0" width="1" height="2" fill="#D6D6D6" />
<rect x="10" y="0" width="1" height="3" fill="#D2D2D2" />
<rect x="11" y="0" width="1" height="4" fill="#CDCDCD" />
<rect x="12" y="0" width="1" height="4" fill="#D0D0D0" />
<rect x="13" y="0" width="2" height="2" fill="#DADADA" />
<rect x="15" y="0" width="1" height="10" fill="#D0D0D0" />
<rect x="16" y="0" width="4" height="3" fill="#C9C9C9" />
<rect x="20" y="0" width="4" height="4" fill="#D4D4D4" />
<rect x="24" y="0" width="1" height="1" fill="#C2C2C2" />
<rect x="25" y="0" width="1" height="1" fill="#C6C6C6" />
<rect x="26" y="0" width="1" height="1" fill="#CBCBCB" />
<rect x="27" y="0" width="1" height="1" fill="#CDCDCD" />
<rect x="28" y="0" width="1" height="1" fill="#CFCFCF" />
<rect x="29" y="0" width="1" height="1" fill="#C8C8C8" />
<rect x="30" y="0" width="1" height="1" fill="#B6B6B6" />
<rect x="31" y="0" width="1" height="1" fill="#BFBFBF" />
<rect x="24" y="1" width="1" height="1" fill="#C6C6C6" />
<rect x="25" y="1" width="1" height="1" fill="#C8C8C8" />
<rect x="26" y="1" width="1" height="1" fill="#CDCDCD" />
<rect x="27" y="1" width="1" height="1" fill="#D0D0D0" />
<rect x="28" y="1" width="1" height="1" fill="#D3D3D3" />
<rect x="29" y="1" width="1" height="1" fill="#CCCCCC" />
<rect x="30" y="1" width="1" height="1" fill="#B9B9B9" />
<rect x="31" y="1" width="1" height="1" fill="#C2C2C2" />
<rect x="9" y="2" width="1" height="1" fill="#D5D5D5" />
<rect x="13" y="2" width="1" height="1" fill="#DADADA" />
<rect x="14" y="2" width="1" height="1" fill="#DBDBDB" />
<rect x="24" y="2" width="1" height="1" fill="#CBCBCB" />
<rect x="25" y="2" width="1" height="1" fill="#CDCDCD" />
<rect x="26" y="2" width="1" height="1" fill="#D2D2D2" />
<rect x="27" y="2" width="1" height="1" fill="#D5D5D5" />
<rect x="28" y="2" width="1" height="1" fill="#D7D7D7" />
<rect x="29" y="2" width="1" height="1" fill="#D0D0D0" />
<rect x="30" y="2" width="1" height="1" fill="#BEBEBE" />
<rect x="31" y="2" width="1" height="1" fill="#C7C7C7" />
<rect x="7" y="3" width="1" height="2" fill="#D5D5D5" />
<rect x="9" y="3" width="1" height="1" fill="#D4D4D4" />
<rect x="10" y="3" width="1" height="2" fill="#D0D0D0" />
<rect x="13" y="3" width="1" height="1" fill="#D9D9D9" />
<rect x="14" y="3" width="1" height="1" fill="#DCDCDC" />
<rect x="16" y="3" width="1" height="1" fill="#C7C7C7" />
<rect x="17" y="3" width="3" height="1" fill="#C9C9C9" />
<rect x="24" y="3" width="1" height="1" fill="#CDCDCD" />
<rect x="25" y="3" width="1" height="4" fill="#D0D0D0" />
<rect x="26" y="3" width="1" height="5" fill="#D5D5D5" />
<rect x="27" y="3" width="1" height="4" fill="#D9D9D9" />
<rect x="28" y="3" width="1" height="5" fill="#DBDBDB" />
<rect x="29" y="3" width="1" height="5" fill="#D4D4D4" />
<rect x="30" y="3" width="1" height="5" fill="#C1C1C1" />
<rect x="31" y="3" width="1" height="5" fill="#CBCBCB" />
<rect x="9" y="4" width="1" height="1" fill="#D2D2D2" />
<rect x="11" y="4" width="1" height="3" fill="#D9D9D9" />
<rect x="12" y="4" width="1" height="4" fill="#C8C8C8" />
<rect x="13" y="4" width="1" height="1" fill="#D7D7D7" />
<rect x="14" y="4" width="1" height="1" fill="#DEDEDE" />
<rect x="16" y="4" width="1" height="1" fill="#C5C5C5" />
<rect x="17" y="4" width="1" height="1" fill="#CCCCCC" />
<rect x="18" y="4" width="1" height="3" fill="#D0D0D0" />
<rect x="19" y="4" width="1" height="2" fill="#CBCBCB" />
<rect x="20" y="4" width="1" height="1" fill="#CECECE" />
<rect x="21" y="4" width="2" height="1" fill="#DBDBDB" />
<rect x="23" y="4" width="1" height="2" fill="#D3D3D3" />
<rect x="24" y="4" width="1" height="4" fill="#CFCFCF" />
<rect x="7" y="5" width="1" height="6" fill="#D4D4D4" />
<rect x="9" y="5" width="1" height="5" fill="#D0D0D0" />
<rect x="10" y="5" width="1" height="3" fill="#CFCFCF" />
<rect x="13" y="5" width="1" height="2" fill="#D6D6D6" />
<rect x="14" y="5" width="1" height="1" fill="#E0E0E0" />
<rect x="16" y="5" width="1" height="1" fill="#C6C6C6" />
<rect x="17" y="5" width="1" height="1" fill="#CECECE" />
<rect x="20" y="5" width="1" height="1" fill="#CCCCCC" />
<rect x="21" y="5" width="1" height="1" fill="#D9D9D9" />
<rect x="22" y="5" width="1" height="2" fill="#DBDBDB" />
<rect x="8" y="6" width="1" height="4" fill="#DADADA" />
<rect x="14" y="6" width="1" height="2" fill="#E1E1E1" />
<rect x="16" y="6" width="1" height="2" fill="#C7C7C7" />
<rect x="17" y="6" width="1" height="1" fill="#CFCFCF" />
<rect x="19" y="6" width="1" height="2" fill="#CCCCCC" />
<rect x="20" y="6" width="1" height="2" fill="#C9C9C9" />
<rect x="21" y="6" width="1" height="1" fill="#D6D6D6" />
<rect x="23" y="6" width="1" height="2" fill="#D4D4D4" />
<rect x="3" y="7" width="1" height="2" fill="#D0D0D0" />
<rect x="11" y="7" width="1" height="1" fill="#D7D7D7" />
<rect x="13" y="7" width="1" height="1" fill="#D4D4D4" />
<rect x="17" y="7" width="1" height="3" fill="#D0D0D0" />
<rect x="18" y="7" width="1" height="1" fill="#D2D2D2" />
<rect x="21" y="7" width="1" height="1" fill="#D3D3D3" />
<rect x="22" y="7" width="1" height="1" fill="#D9D9D9" />
<rect x="25" y="7" width="1" height="1" fill="#D2D2D2" />
<rect x="27" y="7" width="1" height="1" fill="#D7D7D7" />
<rect x="0" y="8" width="1" height="1" fill="#D3D3D3" />
<rect x="1" y="8" width="1" height="1" fill="#D7D7D7" />
<rect x="2" y="8" width="1" height="1" fill="#D3D3D3" />
<rect x="4" y="8" width="1" height="1" fill="#D3D3D3" />
<rect x="5" y="8" width="2" height="1" fill="#D4D4D4" />
<rect x="10" y="8" width="1" height="2" fill="#DEDEDE" />
<rect x="11" y="8" width="1" height="1" fill="#D6D6D6" />
<rect x="12" y="8" width="1" height="4" fill="#D2D2D2" />
<rect x="13" y="8" width="1" height="1" fill="#D3D3D3" />
<rect x="14" y="8" width="1" height="2" fill="#D0D0D0" />
<rect x="16" y="8" width="1" height="2" fill="#D0D0D0" />
<rect x="18" y="8" width="1" height="1" fill="#D0D0D0" />
<rect x="19" y="8" width="1" height="1" fill="#CDCDCD" />
<rect x="20" y="8" width="1" height="1" fill="#CBCBCB" />
<rect x="21" y="8" width="1" height="1" fill="#CFCFCF" />
<rect x="22" y="8" width="1" height="1" fill="#D6D6D6" />
<rect x="23" y="8" width="1" height="2" fill="#D5D5D5" />
<rect x="24" y="8" width="1" height="2" fill="#D6D6D6" />
<rect x="25" y="8" width="1" height="2" fill="#D5D5D5" />
<rect x="26" y="8" width="2" height="1" fill="#D6D6D6" />
<rect x="28" y="8" width="1" height="1" fill="#DCDCDC" />
<rect x="29" y="8" width="1" height="1" fill="#CCCCCC" />
<rect x="30" y="8" width="2" height="1" fill="#C2C2C2" />
<rect x="0" y="9" width="2" height="1" fill="#D0D0D0" />
<rect x="2" y="9" width="1" height="1" fill="#CECECE" />
<rect x="3" y="9" width="1" height="1" fill="#CFCFCF" />
<rect x="4" y="9" width="1" height="1" fill="#D2D2D2" />
<rect x="5" y="9" width="1" height="1" fill="#D3D3D3" />
<rect x="6" y="9" width="1" height="2" fill="#D4D4D4" />
<rect x="11" y="9" width="1" height="1" fill="#D5D5D5" />
<rect x="13" y="9" width="1" height="3" fill="#D2D2D2" />
<rect x="18" y="9" width="1" height="6" fill="#CFCFCF" />
<rect x="19" y="9" width="1" height="1" fill="#CECECE" />
<rect x="20" y="9" width="1" height="1" fill="#CCCCCC" />
<rect x="21" y="9" width="1" height="1" fill="#CDCDCD" />
<rect x="22" y="9" width="1" height="1" fill="#D3D3D3" />
<rect x="26" y="9" width="1" height="1" fill="#D5D5D5" />
<rect x="27" y="9" width="1" height="1" fill="#D4D4D4" />
<rect x="28" y="9" width="1" height="1" fill="#DBDBDB" />
<rect x="29" y="9" width="1" height="1" fill="#CDCDCD" />
<rect x="30" y="9" width="1" height="1" fill="#C6C6C6" />
<rect x="31" y="9" width="1" height="1" fill="#C9C9C9" />
<rect x="0" y="10" width="1" height="1" fill="#CECECE" />
<rect x="1" y="10" width="1" height="1" fill="#C9C9C9" />
<rect x="2" y="10" width="1" height="1" fill="#C7C7C7" />
<rect x="3" y="10" width="1" height="1" fill="#C9C9C9" />
<rect x="4" y="10" width="2" height="1" fill="#D4D4D4" />
<rect x="8" y="10" width="1" height="1" fill="#DBDBDB" />
<rect x="9" y="10" width="1" height="2" fill="#D3D3D3" />
<rect x="10" y="10" width="1" height="1" fill="#DDDDDD" />
<rect x="11" y="10" width="1" height="3" fill="#D6D6D6" />
<rect x="14" y="10" width="1" height="1" fill="#D3D3D3" />
<rect x="15" y="10" width="1" height="2" fill="#D2D2D2" />
<rect x="16" y="10" width="2" height="5" fill="#CFCFCF" />
<rect x="19" y="10" width="1" height="1" fill="#CFCFCF" />
<rect x="20" y="10" width="1" height="2" fill="#CECECE" />
<rect x="21" y="10" width="1" height="1" fill="#CBCBCB" />
<rect x="22" y="10" width="1" height="1" fill="#CFCFCF" />
<rect x="23" y="10" width="1" height="1" fill="#D6D6D6" />
<rect x="24" y="10" width="1" height="1" fill="#D5D5D5" />
<rect x="25" y="10" width="1" height="1" fill="#D4D4D4" />
<rect x="26" y="10" width="2" height="1" fill="#D3D3D3" />
<rect x="28" y="10" width="1" height="1" fill="#D9D9D9" />
<rect x="29" y="10" width="1" height="1" fill="#CFCFCF" />
<rect x="30" y="10" width="1" height="1" fill="#CDCDCD" />
<rect x="31" y="10" width="1" height="1" fill="#D4D4D4" />
<rect x="0" y="11" width="1" height="1" fill="#C7C7C7" />
<rect x="1" y="11" width="2" height="1" fill="#C4C4C4" />
<rect x="3" y="11" width="1" height="1" fill="#C7C7C7" />
<rect x="4" y="11" width="1" height="2" fill="#D2D2D2" />
<rect x="5" y="11" width="3" height="1" fill="#D3D3D3" />
<rect x="8" y="11" width="1" height="1" fill="#DADADA" />
<rect x="10" y="11" width="1" height="1" fill="#DCDCDC" />
<rect x="14" y="11" width="1" height="1" fill="#D4D4D4" />
<rect x="19" y="11" width="1" height="2" fill="#CECECE" />
<rect x="21" y="11" width="1" height="1" fill="#CCCCCC" />
<rect x="22" y="11" width="1" height="1" fill="#CECECE" />
<rect x="23" y="11" width="1" height="2" fill="#D4D4D4" />
<rect x="24" y="11" width="1" height="1" fill="#D3D3D3" />
<rect x="25" y="11" width="1" height="1" fill="#D5D5D5" />
<rect x="26" y="11" width="1" height="1" fill="#D4D4D4" />
<rect x="27" y="11" width="1" height="1" fill="#D3D3D3" />
<rect x="28" y="11" width="1" height="1" fill="#D7D7D7" />
<rect x="29" y="11" width="1" height="1" fill="#D0D0D0" />
<rect x="30" y="11" width="1" height="1" fill="#D2D2D2" />
<rect x="31" y="11" width="1" height="1" fill="#DBDBDB" />
<rect x="0" y="12" width="1" height="4" fill="#CCCCCC" />
<rect x="1" y="12" width="3" height="1" fill="#C8C8C8" />
<rect x="5" y="12" width="1" height="1" fill="#D2D2D2" />
<rect x="6" y="12" width="1" height="1" fill="#D3D3D3" />
<rect x="7" y="12" width="1" height="1" fill="#D4D4D4" />
<rect x="8" y="12" width="1" height="2" fill="#D6D6D6" />
<rect x="9" y="12" width="1" height="1" fill="#D4D4D4" />
<rect x="10" y="12" width="1" height="1" fill="#DADADA" />
<rect x="12" y="12" width="1" height="4" fill="#D0D0D0" />
<rect x="13" y="12" width="1" height="1" fill="#D3D3D3" />
<rect x="14" y="12" width="1" height="3" fill="#D6D6D6" />
<rect x="15" y="12" width="1" height="4" fill="#C8C8C8" />
<rect x="20" y="12" width="2" height="1" fill="#CDCDCD" />
<rect x="22" y="12" width="1" height="1" fill="#D0D0D0" />
<rect x="24" y="12" width="1" height="1" fill="#DBDBDB" />
<rect x="25" y="12" width="1" height="1" fill="#D6D6D6" />
<rect x="26" y="12" width="1" height="1" fill="#D3D3D3" />
<rect x="27" y="12" width="1" height="1" fill="#D0D0D0" />
<rect x="28" y="12" width="1" height="1" fill="#D2D2D2" />
<rect x="29" y="12" width="1" height="1" fill="#CBCBCB" />
<rect x="30" y="12" width="1" height="1" fill="#CCCCCC" />
<rect x="31" y="12" width="1" height="1" fill="#D5D5D5" />
<rect x="1" y="13" width="2" height="3" fill="#C8C8C8" />
<rect x="3" y="13" width="1" height="1" fill="#CBCBCB" />
<rect x="4" y="13" width="2" height="1" fill="#D5D5D5" />
<rect x="6" y="13" width="2" height="1" fill="#D6D6D6" />
<rect x="9" y="13" width="1" height="1" fill="#D5D5D5" />
<rect x="10" y="13" width="1" height="1" fill="#D9D9D9" />
<rect x="11" y="13" width="1" height="1" fill="#D7D7D7" />
<rect x="13" y="13" width="1" height="2" fill="#D2D2D2" />
<rect x="19" y="13" width="1" height="3" fill="#CDCDCD" />
<rect x="20" y="13" width="1" height="2" fill="#CCCCCC" />
<rect x="21" y="13" width="1" height="3" fill="#CDCDCD" />
<rect x="22" y="13" width="1" height="3" fill="#D2D2D2" />
<rect x="23" y="13" width="1" height="1" fill="#D6D6D6" />
<rect x="24" y="13" width="1" height="1" fill="#D7D7D7" />
<rect x="25" y="13" width="1" height="1" fill="#D5D5D5" />
<rect x="26" y="13" width="1" height="1" fill="#D0D0D0" />
<rect x="27" y="13" width="1" height="1" fill="#CECECE" />
<rect x="28" y="13" width="1" height="1" fill="#CFCFCF" />
<rect x="29" y="13" width="1" height="1" fill="#C8C8C8" />
<rect x="30" y="13" width="1" height="1" fill="#C9C9C9" />
<rect x="31" y="13" width="1" height="1" fill="#D3D3D3" />
<rect x="3" y="14" width="1" height="1" fill="#CCCCCC" />
<rect x="4" y="14" width="3" height="1" fill="#DADADA" />
<rect x="7" y="14" width="2" height="1" fill="#D9D9D9" />
<rect x="9" y="14" width="2" height="1" fill="#D7D7D7" />
<rect x="11" y="14" width="1" height="1" fill="#DADADA" />
<rect x="23" y="14" width="1" height="1" fill="#D5D5D5" />
<rect x="24" y="14" width="1" height="1" fill="#D4D4D4" />
<rect x="25" y="14" width="1" height="1" fill="#D0D0D0" />
<rect x="26" y="14" width="1" height="1" fill="#CCCCCC" />
<rect x="27" y="14" width="1" height="1" fill="#C9C9C9" />
<rect x="28" y="14" width="1" height="1" fill="#CBCBCB" />
<rect x="29" y="14" width="1" height="1" fill="#C4C4C4" />
<rect x="30" y="14" width="1" height="1" fill="#C5C5C5" />
<rect x="31" y="14" width="1" height="1" fill="#CECECE" />
<rect x="3" y="15" width="1" height="2" fill="#CDCDCD" />
<rect x="4" y="15" width="1" height="1" fill="#DCDCDC" />
<rect x="5" y="15" width="2" height="1" fill="#DDDDDD" />
<rect x="7" y="15" width="2" height="1" fill="#DADADA" />
<rect x="9" y="15" width="1" height="4" fill="#D9D9D9" />
<rect x="10" y="15" width="1" height="1" fill="#D7D7D7" />
<rect x="11" y="15" width="1" height="2" fill="#DBDBDB" />
<rect x="13" y="15" width="1" height="2" fill="#D0D0D0" />
<rect x="14" y="15" width="1" height="2" fill="#D5D5D5" />
<rect x="16" y="15" width="1" height="1" fill="#CFCFCF" />
<rect x="17" y="15" width="2" height="2" fill="#D0D0D0" />
<rect x="20" y="15" width="1" height="1" fill="#CDCDCD" />
<rect x="23" y="15" width="1" height="1" fill="#D4D4D4" />
<rect x="24" y="15" width="1" height="1" fill="#D2D2D2" />
<rect x="25" y="15" width="1" height="1" fill="#CECECE" />
<rect x="26" y="15" width="1" height="1" fill="#C9C9C9" />
<rect x="27" y="15" width="1" height="1" fill="#C6C6C6" />
<rect x="28" y="15" width="1" height="1" fill="#C9C9C9" />
<rect x="29" y="15" width="1" height="1" fill="#C0C0C0" />
<rect x="30" y="15" width="1" height="1" fill="#C1C1C1" />
<rect x="31" y="15" width="1" height="1" fill="#CCCCCC" />
<rect x="0" y="16" width="1" height="4" fill="#BDBDBD" />
<rect x="1" y="16" width="1" height="4" fill="#C8C8C8" />
<rect x="2" y="16" width="1" height="2" fill="#D0D0D0" />
<rect x="4" y="16" width="1" height="1" fill="#D9D9D9" />
<rect x="5" y="16" width="2" height="4" fill="#DEDEDE" />
<rect x="7" y="16" width="1" height="1" fill="#D9D9D9" />
<rect x="8" y="16" width="1" height="3" fill="#DADADA" />
<rect x="10" y="16" width="1" height="3" fill="#CECECE" />
<rect x="12" y="16" width="1" height="2" fill="#D2D2D2" />
<rect x="15" y="16" width="1" height="3" fill="#D7D7D7" />
<rect x="16" y="16" width="1" height="1" fill="#DADADA" />
<rect x="19" y="16" width="1" height="1" fill="#DADADA" />
<rect x="20" y="16" width="1" height="1" fill="#CFCFCF" />
<rect x="21" y="16" width="1" height="1" fill="#D4D4D4" />
<rect x="22" y="16" width="1" height="1" fill="#D0D0D0" />
<rect x="23" y="16" width="1" height="1" fill="#D3D3D3" />
<rect x="24" y="16" width="1" height="1" fill="#DBDBDB" />
<rect x="25" y="16" width="1" height="1" fill="#D2D2D2" />
<rect x="26" y="16" width="1" height="1" fill="#BDBDBD" />
<rect x="27" y="16" width="1" height="1" fill="#C7C7C7" />
<rect x="28" y="16" width="1" height="1" fill="#CDCDCD" />
<rect x="29" y="16" width="1" height="1" fill="#C8C8C8" />
<rect x="30" y="16" width="1" height="1" fill="#D4D4D4" />
<rect x="31" y="16" width="1" height="1" fill="#CDCDCD" />
<rect x="3" y="17" width="1" height="1" fill="#CECECE" />
<rect x="4" y="17" width="1" height="3" fill="#D6D6D6" />
<rect x="7" y="17" width="1" height="3" fill="#D6D6D6" />
<rect x="11" y="17" width="1" height="1" fill="#DCDCDC" />
<rect x="13" y="17" width="1" height="3" fill="#CFCFCF" />
<rect x="14" y="17" width="1" height="1" fill="#D4D4D4" />
<rect x="16" y="17" width="1" height="1" fill="#D7D7D7" />
<rect x="17" y="17" width="2" height="1" fill="#CFCFCF" />
<rect x="19" y="17" width="1" height="1" fill="#D7D7D7" />
<rect x="20" y="17" width="1" height="1" fill="#D3D3D3" />
<rect x="21" y="17" width="1" height="1" fill="#CFCFCF" />
<rect x="22" y="17" width="1" height="1" fill="#D4D4D4" />
<rect x="23" y="17" width="1" height="1" fill="#D0D0D0" />
<rect x="24" y="17" width="1" height="1" fill="#D7D7D7" />
<rect x="25" y="17" width="1" height="1" fill="#D6D6D6" />
<rect x="26" y="17" width="1" height="1" fill="#C5C5C5" />
<rect x="27" y="17" width="1" height="1" fill="#CCCCCC" />
<rect x="28" y="17" width="1" height="1" fill="#D0D0D0" />
<rect x="29" y="17" width="1" height="1" fill="#CBCBCB" />
<rect x="30" y="17" width="1" height="1" fill="#D6D6D6" />
<rect x="31" y="17" width="1" height="1" fill="#CFCFCF" />
<rect x="2" y="18" width="1" height="2" fill="#D2D2D2" />
<rect x="3" y="18" width="1" height="1" fill="#CFCFCF" />
<rect x="11" y="18" width="1" height="3" fill="#DDDDDD" />
<rect x="12" y="18" width="1" height="4" fill="#D3D3D3" />
<rect x="14" y="18" width="1" height="3" fill="#D3D3D3" />
<rect x="16" y="18" width="1" height="1" fill="#D3D3D3" />
<rect x="17" y="18" width="2" height="1" fill="#CBCBCB" />
<rect x="19" y="18" width="1" height="1" fill="#D3D3D3" />
<rect x="20" y="18" width="1" height="1" fill="#D5D5D5" />
<rect x="21" y="18" width="1" height="1" fill="#C9C9C9" />
<rect x="22" y="18" width="1" height="1" fill="#DADADA" />
<rect x="23" y="18" width="1" height="1" fill="#CECECE" />
<rect x="24" y="18" width="1" height="1" fill="#D2D2D2" />
<rect x="25" y="18" width="1" height="1" fill="#DCDCDC" />
<rect x="26" y="18" width="1" height="1" fill="#CFCFCF" />
<rect x="27" y="18" width="2" height="1" fill="#D2D2D2" />
<rect x="29" y="18" width="1" height="2" fill="#CCCCCC" />
<rect x="30" y="18" width="1" height="2" fill="#D7D7D7" />
<rect x="31" y="18" width="1" height="2" fill="#D2D2D2" />
<rect x="3" y="19" width="1" height="1" fill="#D0D0D0" />
<rect x="8" y="19" width="1" height="2" fill="#D9D9D9" />
<rect x="9" y="19" width="1" height="2" fill="#D7D7D7" />
<rect x="10" y="19" width="1" height="2" fill="#CDCDCD" />
<rect x="15" y="19" width="1" height="1" fill="#D6D6D6" />
<rect x="16" y="19" width="1" height="1" fill="#D0D0D0" />
<rect x="17" y="19" width="2" height="1" fill="#C9C9C9" />
<rect x="19" y="19" width="1" height="1" fill="#D0D0D0" />
<rect x="20" y="19" width="1" height="1" fill="#D6D6D6" />
<rect x="21" y="19" width="1" height="1" fill="#C6C6C6" />
<rect x="22" y="19" width="1" height="1" fill="#DEDEDE" />
<rect x="23" y="19" width="1" height="2" fill="#CDCDCD" />
<rect x="24" y="19" width="1" height="1" fill="#CECECE" />
<rect x="25" y="19" width="1" height="1" fill="#E1E1E1" />
<rect x="26" y="19" width="1" height="1" fill="#D7D7D7" />
<rect x="27" y="19" width="1" height="1" fill="#D5D5D5" />
<rect x="28" y="19" width="1" height="1" fill="#D3D3D3" />
<rect x="0" y="20" width="1" height="2" fill="#C8C8C8" />
<rect x="1" y="20" width="1" height="3" fill="#D2D2D2" />
<rect x="2" y="20" width="1" height="1" fill="#D3D3D3" />
<rect x="3" y="20" width="1" height="4" fill="#D2D2D2" />
<rect x="4" y="20" width="1" height="2" fill="#D7D7D7" />
<rect x="5" y="20" width="2" height="3" fill="#E0E0E0" />
<rect x="7" y="20" width="1" height="3" fill="#D7D7D7" />
<rect x="13" y="20" width="1" height="1" fill="#D3D3D3" />
<rect x="15" y="20" width="1" height="1" fill="#D5D5D5" />
<rect x="16" y="20" width="1" height="1" fill="#D2D2D2" />
<rect x="17" y="20" width="2" height="1" fill="#CBCBCB" />
<rect x="19" y="20" width="1" height="1" fill="#D2D2D2" />
<rect x="20" y="20" width="1" height="1" fill="#D4D4D4" />
<rect x="21" y="20" width="1" height="1" fill="#BFBFBF" />
<rect x="22" y="20" width="1" height="1" fill="#D4D4D4" />
<rect x="24" y="20" width="1" height="1" fill="#C7C7C7" />
<rect x="25" y="20" width="1" height="1" fill="#DADADA" />
<rect x="26" y="20" width="1" height="1" fill="#D0D0D0" />
<rect x="27" y="20" width="1" height="1" fill="#CECECE" />
<rect x="28" y="20" width="1" height="1" fill="#C8C8C8" />
<rect x="29" y="20" width="1" height="1" fill="#C0C0C0" />
<rect x="30" y="20" width="1" height="1" fill="#CDCDCD" />
<rect x="31" y="20" width="1" height="1" fill="#CBCBCB" />
<rect x="2" y="21" width="1" height="1" fill="#D4D4D4" />
<rect x="8" y="21" width="1" height="3" fill="#D7D7D7" />
<rect x="9" y="21" width="1" height="3" fill="#D6D6D6" />
<rect x="10" y="21" width="1" height="3" fill="#CCCCCC" />
<rect x="11" y="21" width="1" height="3" fill="#DCDCDC" />
<rect x="13" y="21" width="3" height="3" fill="#D4D4D4" />
<rect x="16" y="21" width="1" height="2" fill="#D3D3D3" />
<rect x="17" y="21" width="2" height="2" fill="#CDCDCD" />
<rect x="19" y="21" width="1" height="3" fill="#D3D3D3" />
<rect x="20" y="21" width="1" height="1" fill="#D9D9D9" />
<rect x="21" y="21" width="1" height="1" fill="#BEBEBE" />
<rect x="22" y="21" width="1" height="1" fill="#DBDBDB" />
<rect x="23" y="21" width="1" height="1" fill="#CECECE" />
<rect x="24" y="21" width="1" height="1" fill="#C8C8C8" />
<rect x="25" y="21" width="1" height="1" fill="#DBDBDB" />
<rect x="26" y="21" width="1" height="1" fill="#D2D2D2" />
<rect x="27" y="21" width="1" height="1" fill="#CFCFCF" />
<rect x="28" y="21" width="1" height="1" fill="#C9C9C9" />
<rect x="29" y="21" width="1" height="1" fill="#C6C6C6" />
<rect x="30" y="21" width="1" height="1" fill="#CFCFCF" />
<rect x="31" y="21" width="1" height="1" fill="#C5C5C5" />
<rect x="0" y="22" width="1" height="1" fill="#C9C9C9" />
<rect x="2" y="22" width="1" height="2" fill="#D5D5D5" />
<rect x="4" y="22" width="1" height="4" fill="#D9D9D9" />
<rect x="12" y="22" width="1" height="2" fill="#D5D5D5" />
<rect x="20" y="22" width="1" height="1" fill="#E1E1E1" />
<rect x="21" y="22" width="1" height="1" fill="#BDBDBD" />
<rect x="22" y="22" width="1" height="1" fill="#E5E5E5" />
<rect x="23" y="22" width="1" height="1" fill="#D0D0D0" />
<rect x="24" y="22" width="1" height="1" fill="#CBCBCB" />
<rect x="25" y="22" width="1" height="1" fill="#DDDDDD" />
<rect x="26" y="22" width="1" height="1" fill="#D4D4D4" />
<rect x="27" y="22" width="1" height="1" fill="#D2D2D2" />
<rect x="28" y="22" width="2" height="1" fill="#CECECE" />
<rect x="30" y="22" width="1" height="1" fill="#D4D4D4" />
<rect x="31" y="22" width="1" height="1" fill="#BDBDBD" />
<rect x="0" y="23" width="1" height="1" fill="#CBCBCB" />
<rect x="1" y="23" width="1" height="2" fill="#D0D0D0" />
<rect x="5" y="23" width="1" height="1" fill="#E0E0E0" />
<rect x="6" y="23" width="1" height="2" fill="#DEDEDE" />
<rect x="7" y="23" width="1" height="2" fill="#D6D6D6" />
<rect x="16" y="23" width="1" height="2" fill="#D2D2D2" />
<rect x="17" y="23" width="1" height="1" fill="#CDCDCD" />
<rect x="18" y="23" width="1" height="1" fill="#CECECE" />
<rect x="20" y="23" width="1" height="1" fill="#E5E5E5" />
<rect x="21" y="23" width="1" height="1" fill="#BBBBBB" />
<rect x="22" y="23" width="1" height="1" fill="#ECECEC" />
<rect x="23" y="23" width="1" height="1" fill="#D2D2D2" />
<rect x="24" y="23" width="1" height="1" fill="#CCCCCC" />
<rect x="25" y="23" width="1" height="1" fill="#DEDEDE" />
<rect x="26" y="23" width="1" height="1" fill="#D5D5D5" />
<rect x="27" y="23" width="1" height="3" fill="#D3D3D3" />
<rect x="28" y="23" width="1" height="3" fill="#CFCFCF" />
<rect x="29" y="23" width="1" height="1" fill="#D5D5D5" />
<rect x="30" y="23" width="1" height="1" fill="#D6D6D6" />
<rect x="31" y="23" width="1" height="1" fill="#B7B7B7" />
<rect x="0" y="24" width="1" height="1" fill="#CCCCCC" />
<rect x="2" y="24" width="1" height="2" fill="#DDDDDD" />
<rect x="3" y="24" width="1" height="3" fill="#D3D3D3" />
<rect x="5" y="24" width="1" height="8" fill="#D3D3D3" />
<rect x="8" y="24" width="1" height="3" fill="#D9D9D9" />
<rect x="9" y="24" width="1" height="4" fill="#D7D7D7" />
<rect x="10" y="24" width="1" height="2" fill="#CDCDCD" />
<rect x="11" y="24" width="1" height="4" fill="#DDDDDD" />
<rect x="12" y="24" width="1" height="1" fill="#D6D6D6" />
<rect x="13" y="24" width="1" height="2" fill="#C8C8C8" />
<rect x="14" y="24" width="1" height="4" fill="#D3D3D3" />
<rect x="15" y="24" width="1" height="3" fill="#D4D4D4" />
<rect x="17" y="24" width="1" height="1" fill="#D5D5D5" />
<rect x="18" y="24" width="1" height="1" fill="#D0D0D0" />
<rect x="19" y="24" width="1" height="1" fill="#CDCDCD" />
<rect x="20" y="24" width="1" height="3" fill="#DEDEDE" />
<rect x="21" y="24" width="1" height="3" fill="#CFCFCF" />
<rect x="22" y="24" width="2" height="3" fill="#DADADA" />
<rect x="24" y="24" width="1" height="4" fill="#D2D2D2" />
<rect x="25" y="24" width="2" height="3" fill="#D7D7D7" />
<rect x="29" y="24" width="1" height="3" fill="#DDDDDD" />
<rect x="30" y="24" width="1" height="4" fill="#D9D9D9" />
<rect x="31" y="24" width="1" height="4" fill="#C5C5C5" />
<rect x="0" y="25" width="1" height="1" fill="#CDCDCD" />
<rect x="1" y="25" width="1" height="1" fill="#CFCFCF" />
<rect x="6" y="25" width="1" height="7" fill="#DDDDDD" />
<rect x="7" y="25" width="1" height="7" fill="#D5D5D5" />
<rect x="12" y="25" width="1" height="1" fill="#D7D7D7" />
<rect x="16" y="25" width="1" height="7" fill="#D0D0D0" />
<rect x="17" y="25" width="1" height="1" fill="#D6D6D6" />
<rect x="18" y="25" width="1" height="1" fill="#D3D3D3" />
<rect x="19" y="25" width="1" height="1" fill="#CBCBCB" />
<rect x="0" y="26" width="1" height="1" fill="#CECECE" />
<rect x="1" y="26" width="1" height="2" fill="#D0D0D0" />
<rect x="2" y="26" width="1" height="2" fill="#DEDEDE" />
<rect x="4" y="26" width="1" height="4" fill="#DADADA" />
<rect x="10" y="26" width="1" height="1" fill="#CECECE" />
<rect x="12" y="26" width="1" height="2" fill="#D9D9D9" />
<rect x="13" y="26" width="1" height="1" fill="#C9C9C9" />
<rect x="17" y="26" width="1" height="6" fill="#DADADA" />
<rect x="18" y="26" width="1" height="1" fill="#D5D5D5" />
<rect x="19" y="26" width="1" height="1" fill="#C9C9C9" />
<rect x="27" y="26" width="1" height="2" fill="#D4D4D4" />
<rect x="28" y="26" width="1" height="6" fill="#D0D0D0" />
<rect x="0" y="27" width="1" height="1" fill="#CDCDCD" />
<rect x="3" y="27" width="1" height="1" fill="#D2D2D2" />
<rect x="8" y="27" width="1" height="2" fill="#D7D7D7" />
<rect x="10" y="27" width="1" height="1" fill="#CFCFCF" />
<rect x="13" y="27" width="1" height="1" fill="#CBCBCB" />
<rect x="15" y="27" width="1" height="1" fill="#D3D3D3" />
<rect x="18" y="27" width="1" height="1" fill="#D6D6D6" />
<rect x="19" y="27" width="1" height="1" fill="#CCCCCC" />
<rect x="20" y="27" width="1" height="1" fill="#DDDDDD" />
<rect x="21" y="27" width="1" height="1" fill="#CECECE" />
<rect x="22" y="27" width="2" height="1" fill="#D9D9D9" />
<rect x="25" y="27" width="1" height="1" fill="#D7D7D7" />
<rect x="26" y="27" width="1" height="1" fill="#D5D5D5" />
<rect x="29" y="27" width="1" height="1" fill="#DCDCDC" />
<rect x="0" y="28" width="1" height="1" fill="#CCCCCC" />
<rect x="1" y="28" width="1" height="1" fill="#D2D2D2" />
<rect x="2" y="28" width="1" height="1" fill="#E0E0E0" />
<rect x="3" y="28" width="1" height="2" fill="#D0D0D0" />
<rect x="9" y="28" width="1" height="4" fill="#E2E2E2" />
<rect x="10" y="28" width="2" height="1" fill="#D0D0D0" />
<rect x="12" y="28" width="1" height="2" fill="#CBCBCB" />
<rect x="13" y="28" width="1" height="1" fill="#CCCCCC" />
<rect x="14" y="28" width="1" height="4" fill="#DDDDDD" />
<rect x="15" y="28" width="1" height="1" fill="#D2D2D2" />
<rect x="18" y="28" width="1" height="1" fill="#D9D9D9" />
<rect x="19" y="28" width="1" height="1" fill="#CECECE" />
<rect x="20" y="28" width="1" height="1" fill="#DCDCDC" />
<rect x="21" y="28" width="1" height="1" fill="#CDCDCD" />
<rect x="22" y="28" width="2" height="1" fill="#D7D7D7" />
<rect x="24" y="28" width="1" height="4" fill="#E2E2E2" />
<rect x="25" y="28" width="1" height="4" fill="#D6D6D6" />
<rect x="26" y="28" width="1" height="1" fill="#D4D4D4" />
<rect x="27" y="28" width="1" height="1" fill="#D5D5D5" />
<rect x="29" y="28" width="1" height="1" fill="#DBDBDB" />
<rect x="30" y="28" width="1" height="4" fill="#DADADA" />
<rect x="31" y="28" width="1" height="2" fill="#D2D2D2" />
<rect x="0" y="29" width="1" height="3" fill="#CBCBCB" />
<rect x="1" y="29" width="1" height="1" fill="#D3D3D3" />
<rect x="2" y="29" width="1" height="1" fill="#E1E1E1" />
<rect x="8" y="29" width="1" height="3" fill="#D6D6D6" />
<rect x="10" y="29" width="1" height="1" fill="#D2D2D2" />
<rect x="11" y="29" width="1" height="3" fill="#D0D0D0" />
<rect x="13" y="29" width="1" height="1" fill="#CDCDCD" />
<rect x="15" y="29" width="1" height="3" fill="#D0D0D0" />
<rect x="18" y="29" width="1" height="1" fill="#D7D7D7" />
<rect x="19" y="29" width="1" height="3" fill="#CFCFCF" />
<rect x="20" y="29" width="1" height="1" fill="#DDDDDD" />
<rect x="21" y="29" width="1" height="1" fill="#CECECE" />
<rect x="22" y="29" width="2" height="1" fill="#D9D9D9" />
<rect x="26" y="29" width="1" height="1" fill="#D3D3D3" />
<rect x="27" y="29" width="1" height="1" fill="#D6D6D6" />
<rect x="29" y="29" width="1" height="3" fill="#DADADA" />
<rect x="1" y="30" width="1" height="2" fill="#D4D4D4" />
<rect x="2" y="30" width="1" height="2" fill="#E3E3E3" />
<rect x="3" y="30" width="1" height="1" fill="#D2D2D2" />
<rect x="4" y="30" width="1" height="2" fill="#D9D9D9" />
<rect x="10" y="30" width="1" height="2" fill="#D3D3D3" />
<rect x="12" y="30" width="1" height="2" fill="#C9C9C9" />
<rect x="13" y="30" width="1" height="2" fill="#CECECE" />
<rect x="18" y="30" width="1" height="1" fill="#D6D6D6" />
<rect x="20" y="30" width="1" height="1" fill="#E2E2E2" />
<rect x="21" y="30" width="1" height="1" fill="#D3D3D3" />
<rect x="22" y="30" width="2" height="1" fill="#DDDDDD" />
<rect x="26" y="30" width="1" height="2" fill="#D4D4D4" />
<rect x="27" y="30" width="1" height="2" fill="#D7D7D7" />
<rect x="31" y="30" width="1" height="2" fill="#D0D0D0" />
<rect x="3" y="31" width="1" height="1" fill="#D3D3D3" />
<rect x="18" y="31" width="1" height="1" fill="#D5D5D5" />
<rect x="20" y="31" width="1" height="1" fill="#E5E5E5" />
<rect x="21" y="31" width="1" height="1" fill="#D5D5D5" />
<rect x="22" y="31" width="2" height="1" fill="#E1E1E1" />
</svg>