<?xml version="1.0" encoding="UTF-8" ?>
<svg version="1.1" width="32" height="32" xmlns="http://www.w3.org/2000/svg" shape-rendering="crispEdges">
<rect x="27" y="0" width="1" height="1" fill="#57AB4A" />
<rect x="26" y="1" width="1" height="1" fill="#73C146" />
<rect x="25" y="2" width="1" height="1" fill="#63B754" />
<rect x="26" y="2" width="1" height="1" fill="#69BA43" />
<rect x="24" y="3" width="1" height="1" fill="#65B541" />
<rect x="25" y="3" width="1" height="1" fill="#5CB03F" />
<rect x="24" y="4" width="1" height="1" fill="#4C993A" />
<rect x="25" y="4" width="1" height="1" fill="#4C963A" />
<rect x="23" y="5" width="1" height="1" fill="#418A37" />
<rect x="24" y="5" width="1" height="1" fill="#42803B" />
<rect x="22" y="6" width="1" height="1" fill="#4C9648" />
<rect x="23" y="6" width="1" height="1" fill="#58A34F" />
<rect x="24" y="6" width="1" height="1" fill="#417D35" />
<rect x="22" y="7" width="1" height="1" fill="#42923D" />
<rect x="23" y="7" width="1" height="1" fill="#29791F" />
<rect x="21" y="8" width="1" height="1" fill="#4A9A36" />
<rect x="22" y="8" width="1" height="1" fill="#469346" />
<rect x="23" y="8" width="1" height="1" fill="#4B9D30" />
<rect x="30" y="8" width="1" height="1" fill="#69BC47" />
<rect x="20" y="9" width="1" height="1" fill="#64B744" />
<rect x="21" y="9" width="1" height="1" fill="#56A642" />
<rect x="22" y="9" width="1" height="1" fill="#46953D" />
<rect x="23" y="9" width="1" height="1" fill="#59AB3C" />
<rect x="29" y="9" width="1" height="1" fill="#5EB146" />
<rect x="20" y="10" width="1" height="1" fill="#56A936" />
<rect x="21" y="10" width="1" height="1" fill="#63B34F" />
<rect x="22" y="10" width="1" height="1" fill="#3D8B37" />
<rect x="27" y="10" width="1" height="1" fill="#468C42" />
<rect x="28" y="10" width="1" height="1" fill="#53A33F" />
<rect x="19" y="11" width="1" height="1" fill="#468B32" />
<rect x="20" y="11" width="1" height="1" fill="#5FAB48" />
<rect x="21" y="11" width="1" height="1" fill="#60B64A" />
<rect x="26" y="11" width="1" height="1" fill="#539C44" />
<rect x="27" y="11" width="1" height="1" fill="#5DA653" />
<rect x="28" y="11" width="1" height="1" fill="#54A440" />
<rect x="18" y="12" width="1" height="1" fill="#52A147" />
<rect x="19" y="12" width="1" height="1" fill="#569649" />
<rect x="20" y="12" width="1" height="1" fill="#68A95A" />
<rect x="21" y="12" width="1" height="1" fill="#448836" />
<rect x="26" y="12" width="1" height="1" fill="#5BA742" />
<rect x="27" y="12" width="1" height="1" fill="#56A141" />
<rect x="4" y="13" width="1" height="1" fill="#44923C" />
<rect x="5" y="13" width="1" height="1" fill="#418E3E" />
<rect x="6" y="13" width="1" height="1" fill="#449141" />
<rect x="7" y="13" width="1" height="1" fill="#449340" />
<rect x="8" y="13" width="1" height="1" fill="#4E9A49" />
<rect x="18" y="13" width="1" height="1" fill="#387E34" />
<rect x="19" y="13" width="1" height="1" fill="#3D8733" />
<rect x="20" y="13" width="1" height="1" fill="#347B29" />
<rect x="21" y="13" width="1" height="1" fill="#569A4C" />
<rect x="25" y="13" width="1" height="1" fill="#51A040" />
<rect x="26" y="13" width="1" height="1" fill="#6EB959" />
<rect x="27" y="13" width="1" height="1" fill="#6FBD59" />
<rect x="6" y="14" width="1" height="1" fill="#45953E" />
<rect x="7" y="14" width="1" height="1" fill="#4E9B44" />
<rect x="8" y="14" width="1" height="1" fill="#4E9B49" />
<rect x="9" y="14" width="1" height="1" fill="#317622" />
<rect x="17" y="14" width="1" height="1" fill="#326521" />
<rect x="18" y="14" width="1" height="1" fill="#40833A" />
<rect x="19" y="14" width="1" height="1" fill="#428039" />
<rect x="20" y="14" width="1" height="1" fill="#498D3F" />
<rect x="24" y="14" width="1" height="1" fill="#4A993E" />
<rect x="25" y="14" width="1" height="1" fill="#4A9540" />
<rect x="26" y="14" width="1" height="1" fill="#6FBE52" />
<rect x="7" y="15" width="1" height="1" fill="#428A3D" />
<rect x="8" y="15" width="1" height="1" fill="#5A9F4D" />
<rect x="9" y="15" width="2" height="1" fill="#6AAC4A" />
<rect x="17" y="15" width="1" height="1" fill="#3B6A28" />
<rect x="18" y="15" width="1" height="1" fill="#44873E" />
<rect x="19" y="15" width="1" height="1" fill="#3E7B39" />
<rect x="20" y="15" width="1" height="1" fill="#488C3E" />
<rect x="23" y="15" width="1" height="1" fill="#45943A" />
<rect x="24" y="15" width="1" height="1" fill="#4E9B44" />
<rect x="25" y="15" width="1" height="1" fill="#489242" />
<rect x="8" y="16" width="1" height="1" fill="#5BA253" />
<rect x="9" y="16" width="1" height="1" fill="#6AB442" />
<rect x="10" y="16" width="1" height="1" fill="#72B942" />
<rect x="16" y="16" width="1" height="1" fill="#73BB5C" />
<rect x="17" y="16" width="1" height="1" fill="#386F22" />
<rect x="18" y="16" width="1" height="1" fill="#347527" />
<rect x="19" y="16" width="1" height="1" fill="#65A659" />
<rect x="22" y="16" width="1" height="1" fill="#5DA747" />
<rect x="23" y="16" width="1" height="1" fill="#56A042" />
<rect x="24" y="16" width="1" height="1" fill="#469636" />
<rect x="25" y="16" width="1" height="1" fill="#47923E" />
<rect x="8" y="17" width="1" height="1" fill="#448038" />
<rect x="9" y="17" width="1" height="1" fill="#407733" />
<rect x="10" y="17" width="1" height="1" fill="#51953C" />
<rect x="11" y="17" width="1" height="1" fill="#579E47" />
<rect x="16" y="17" width="1" height="1" fill="#408B2A" />
<rect x="17" y="17" width="1" height="1" fill="#6FB559" />
<rect x="18" y="17" width="1" height="1" fill="#61A456" />
<rect x="19" y="17" width="1" height="1" fill="#50963D" />
<rect x="21" y="17" width="1" height="1" fill="#5EAB44" />
<rect x="22" y="17" width="1" height="1" fill="#3A8424" />
<rect x="23" y="17" width="1" height="1" fill="#57A141" />
<rect x="24" y="17" width="1" height="1" fill="#41912F" />
<rect x="8" y="18" width="1" height="1" fill="#418038" />
<rect x="9" y="18" width="1" height="1" fill="#366A27" />
<rect x="10" y="18" width="1" height="1" fill="#427D3B" />
<rect x="11" y="18" width="1" height="1" fill="#47863E" />
<rect x="15" y="18" width="1" height="1" fill="#3B8A39" />
<rect x="16" y="18" width="1" height="1" fill="#56A548" />
<rect x="17" y="18" width="1" height="1" fill="#4AA03E" />
<rect x="18" y="18" width="1" height="1" fill="#3D892A" />
<rect x="19" y="18" width="1" height="1" fill="#61AF46" />
<rect x="21" y="18" width="1" height="1" fill="#2F7118" />
<rect x="22" y="18" width="1" height="1" fill="#3C8431" />
<rect x="23" y="18" width="1" height="1" fill="#539B48" />
<rect x="24" y="18" width="1" height="1" fill="#499741" />
<rect x="8" y="19" width="1" height="1" fill="#438E3A" />
<rect x="9" y="19" width="1" height="1" fill="#488F41" />
<rect x="10" y="19" width="1" height="1" fill="#4A8B45" />
<rect x="11" y="19" width="1" height="1" fill="#408A3D" />
<rect x="12" y="19" width="1" height="1" fill="#416E32" />
<rect x="15" y="19" width="1" height="1" fill="#428F40" />
<rect x="16" y="19" width="1" height="1" fill="#3E8E38" />
<rect x="17" y="19" width="1" height="1" fill="#4C9B41" />
<rect x="18" y="19" width="1" height="1" fill="#307814" />
<rect x="20" y="19" width="1" height="1" fill="#75B94B" />
<rect x="21" y="19" width="1" height="1" fill="#509842" />
<rect x="22" y="19" width="1" height="1" fill="#55A23E" />
<rect x="23" y="19" width="1" height="1" fill="#428A3C" />
<rect x="8" y="20" width="1" height="1" fill="#45983C" />
<rect x="9" y="20" width="1" height="1" fill="#428F3B" />
<rect x="10" y="20" width="1" height="1" fill="#438C41" />
<rect x="11" y="20" width="1" height="1" fill="#40863B" />
<rect x="12" y="20" width="1" height="1" fill="#3F6E36" />
<rect x="14" y="20" width="1" height="1" fill="#3C8537" />
<rect x="15" y="20" width="1" height="1" fill="#408D3E" />
<rect x="16" y="20" width="1" height="1" fill="#439240" />
<rect x="17" y="20" width="1" height="1" fill="#4D9A49" />
<rect x="18" y="20" width="1" height="1" fill="#307621" />
<rect x="19" y="20" width="1" height="1" fill="#6AAC4A" />
<rect x="20" y="20" width="1" height="1" fill="#72B942" />
<rect x="21" y="20" width="1" height="1" fill="#488F32" />
<rect x="22" y="20" width="1" height="1" fill="#579E47" />
<rect x="9" y="21" width="1" height="1" fill="#3F8732" />
<rect x="10" y="21" width="1" height="1" fill="#509246" />
<rect x="11" y="21" width="1" height="1" fill="#488641" />
<rect x="12" y="21" width="1" height="1" fill="#43752F" />
<rect x="14" y="21" width="1" height="1" fill="#458E3B" />
<rect x="15" y="21" width="1" height="1" fill="#439041" />
<rect x="16" y="21" width="1" height="1" fill="#408F3F" />
<rect x="17" y="21" width="1" height="1" fill="#4D9B44" />
<rect x="19" y="21" width="1" height="1" fill="#457332" />
<rect x="20" y="21" width="1" height="1" fill="#6AB442" />
<rect x="21" y="21" width="1" height="1" fill="#51953C" />
<rect x="22" y="21" width="1" height="1" fill="#47863F" />
<rect x="9" y="22" width="1" height="1" fill="#63B34C" />
<rect x="10" y="22" width="1" height="1" fill="#488D3C" />
<rect x="11" y="22" width="1" height="1" fill="#569B44" />
<rect x="12" y="22" width="1" height="1" fill="#69B049" />
<rect x="14" y="22" width="1" height="1" fill="#458E3E" />
<rect x="15" y="22" width="1" height="1" fill="#468E43" />
<rect x="16" y="22" width="1" height="1" fill="#428A3D" />
<rect x="17" y="22" width="1" height="1" fill="#56A249" />
<rect x="18" y="22" width="1" height="1" fill="#529F3A" />
<rect x="19" y="22" width="1" height="1" fill="#5F9756" />
<rect x="20" y="22" width="1" height="1" fill="#70AA52" />
<rect x="21" y="22" width="1" height="1" fill="#327B17" />
<rect x="28" y="22" width="1" height="1" fill="#62B24B" />
<rect x="29" y="22" width="1" height="1" fill="#51A040" />
<rect x="30" y="22" width="1" height="1" fill="#6FB959" />
<rect x="31" y="22" width="1" height="1" fill="#5DAA37" />
<rect x="9" y="23" width="1" height="1" fill="#63B44D" />
<rect x="10" y="23" width="1" height="1" fill="#3C7A2C" />
<rect x="11" y="23" width="1" height="1" fill="#59A53E" />
<rect x="12" y="23" width="1" height="1" fill="#63AE41" />
<rect x="13" y="23" width="1" height="1" fill="#4B9F3E" />
<rect x="14" y="23" width="1" height="1" fill="#3F8838" />
<rect x="15" y="23" width="1" height="1" fill="#3D853A" />
<rect x="16" y="23" width="1" height="1" fill="#3F873A" />
<rect x="17" y="23" width="1" height="1" fill="#529E45" />
<rect x="18" y="23" width="1" height="1" fill="#4E9B36" />
<rect x="19" y="23" width="1" height="1" fill="#6BA557" />
<rect x="20" y="23" width="1" height="1" fill="#487A3A" />
<rect x="21" y="23" width="1" height="1" fill="#4A8832" />
<rect x="26" y="23" width="1" height="1" fill="#5DAE46" />
<rect x="27" y="23" width="1" height="1" fill="#47953D" />
<rect x="28" y="23" width="1" height="1" fill="#4A993E" />
<rect x="8" y="24" width="1" height="1" fill="#4DA139" />
<rect x="9" y="24" width="1" height="1" fill="#4C9B3E" />
<rect x="10" y="24" width="1" height="1" fill="#469538" />
<rect x="11" y="24" width="1" height="1" fill="#67BA40" />
<rect x="12" y="24" width="1" height="1" fill="#49942A" />
<rect x="13" y="24" width="1" height="1" fill="#41943B" />
<rect x="14" y="24" width="1" height="1" fill="#4F9848" />
<rect x="15" y="24" width="1" height="1" fill="#3F8639" />
<rect x="16" y="24" width="1" height="1" fill="#367D35" />
<rect x="17" y="24" width="1" height="1" fill="#58A151" />
<rect x="18" y="24" width="1" height="1" fill="#57A247" />
<rect x="19" y="24" width="1" height="1" fill="#62B138" />
<rect x="20" y="24" width="1" height="1" fill="#44813B" />
<rect x="24" y="24" width="1" height="1" fill="#53A43C" />
<rect x="25" y="24" width="1" height="1" fill="#5BAB4B" />
<rect x="26" y="24" width="1" height="1" fill="#61B24B" />
<rect x="27" y="24" width="1" height="1" fill="#459339" />
<rect x="1" y="25" width="1" height="1" fill="#538D3E" />
<rect x="2" y="25" width="1" height="1" fill="#529243" />
<rect x="3" y="25" width="1" height="1" fill="#408F3E" />
<rect x="8" y="25" width="1" height="1" fill="#47953D" />
<rect x="9" y="25" width="1" height="1" fill="#62B24B" />
<rect x="10" y="25" width="1" height="1" fill="#4F9E3B" />
<rect x="11" y="25" width="1" height="1" fill="#75B94B" />
<rect x="12" y="25" width="1" height="1" fill="#2F6515" />
<rect x="13" y="25" width="1" height="1" fill="#326C23" />
<rect x="14" y="25" width="1" height="1" fill="#5DA554" />
<rect x="15" y="25" width="1" height="1" fill="#3B7E2E" />
<rect x="16" y="25" width="1" height="1" fill="#488947" />
<rect x="17" y="25" width="1" height="1" fill="#4D983D" />
<rect x="18" y="25" width="1" height="1" fill="#4B9641" />
<rect x="19" y="25" width="1" height="1" fill="#5EB745" />
<rect x="20" y="25" width="1" height="1" fill="#63B456" />
<rect x="23" y="25" width="1" height="1" fill="#5AAD44" />
<rect x="24" y="25" width="1" height="1" fill="#53A34D" />
<rect x="25" y="25" width="1" height="1" fill="#57A74D" />
<rect x="3" y="26" width="1" height="1" fill="#428A3D" />
<rect x="4" y="26" width="1" height="1" fill="#499741" />
<rect x="5" y="26" width="1" height="1" fill="#41912F" />
<rect x="8" y="26" width="1" height="1" fill="#4A993E" />
<rect x="9" y="26" width="1" height="1" fill="#51A040" />
<rect x="10" y="26" width="1" height="1" fill="#59A941" />
<rect x="11" y="26" width="1" height="1" fill="#368525" />
<rect x="12" y="26" width="1" height="1" fill="#499143" />
<rect x="13" y="26" width="1" height="1" fill="#439846" />
<rect x="14" y="26" width="1" height="1" fill="#38832D" />
<rect x="15" y="26" width="1" height="1" fill="#428A35" />
<rect x="16" y="26" width="1" height="1" fill="#4E944C" />
<rect x="17" y="26" width="1" height="1" fill="#529E3F" />
<rect x="18" y="26" width="1" height="1" fill="#4D9748" />
<rect x="19" y="26" width="1" height="1" fill="#419932" />
<rect x="22" y="26" width="1" height="1" fill="#489838" />
<rect x="23" y="26" width="1" height="1" fill="#4F9A34" />
<rect x="24" y="26" width="1" height="1" fill="#449240" />
<rect x="25" y="26" width="1" height="1" fill="#4B9643" />
<rect x="3" y="27" width="1" height="1" fill="#448B3A" />
<rect x="4" y="27" width="1" height="1" fill="#46903F" />
<rect x="5" y="27" width="1" height="1" fill="#509B40" />
<rect x="8" y="27" width="1" height="1" fill="#4A9540" />
<rect x="9" y="27" width="1" height="1" fill="#6EB959" />
<rect x="10" y="27" width="1" height="1" fill="#5CA742" />
<rect x="11" y="27" width="1" height="1" fill="#6DAE53" />
<rect x="12" y="27" width="1" height="1" fill="#4E8E43" />
<rect x="13" y="27" width="1" height="1" fill="#409038" />
<rect x="14" y="27" width="1" height="1" fill="#46903A" />
<rect x="15" y="27" width="1" height="1" fill="#579F4C" />
<rect x="16" y="27" width="1" height="1" fill="#45903D" />
<rect x="17" y="27" width="1" height="1" fill="#469636" />
<rect x="18" y="27" width="1" height="1" fill="#428F3E" />
<rect x="19" y="27" width="1" height="1" fill="#41903B" />
<rect x="21" y="27" width="1" height="1" fill="#458C3F" />
<rect x="22" y="27" width="1" height="1" fill="#48943B" />
<rect x="23" y="27" width="1" height="1" fill="#84CD72" />
<rect x="24" y="27" width="1" height="1" fill="#49973D" />
<rect x="3" y="28" width="1" height="1" fill="#43903D" />
<rect x="4" y="28" width="1" height="1" fill="#3A852C" />
<rect x="5" y="28" width="1" height="1" fill="#4A9737" />
<rect x="6" y="28" width="1" height="1" fill="#529D44" />
<rect x="8" y="28" width="1" height="1" fill="#70BE52" />
<rect x="9" y="28" width="1" height="1" fill="#589B49" />
<rect x="10" y="28" width="1" height="1" fill="#397224" />
<rect x="11" y="28" width="1" height="1" fill="#3F8232" />
<rect x="12" y="28" width="1" height="1" fill="#529930" />
<rect x="13" y="28" width="1" height="1" fill="#419244" />
<rect x="14" y="28" width="1" height="1" fill="#448A40" />
<rect x="15" y="28" width="1" height="1" fill="#59A146" />
<rect x="16" y="28" width="1" height="1" fill="#3E8E26" />
<rect x="17" y="28" width="1" height="1" fill="#68B850" />
<rect x="18" y="28" width="1" height="1" fill="#449434" />
<rect x="20" y="28" width="1" height="1" fill="#449432" />
<rect x="21" y="28" width="1" height="1" fill="#55A042" />
<rect x="22" y="28" width="1" height="1" fill="#6AB654" />
<rect x="23" y="28" width="1" height="1" fill="#428D37" />
<rect x="26" y="28" width="1" height="1" fill="#398126" />
<rect x="27" y="28" width="1" height="1" fill="#428A3D" />
<rect x="28" y="28" width="1" height="1" fill="#448B3A" />
<rect x="29" y="28" width="1" height="1" fill="#43903D" />
<rect x="3" y="29" width="1" height="1" fill="#4E9841" />
<rect x="4" y="29" width="1" height="1" fill="#3B7F2E" />
<rect x="5" y="29" width="1" height="1" fill="#54A840" />
<rect x="6" y="29" width="1" height="1" fill="#59AD45" />
<rect x="8" y="29" width="1" height="1" fill="#4D9946" />
<rect x="9" y="29" width="1" height="1" fill="#44913F" />
<rect x="10" y="29" width="1" height="1" fill="#47803A" />
<rect x="11" y="29" width="1" height="1" fill="#417836" />
<rect x="12" y="29" width="1" height="1" fill="#68AB5D" />
<rect x="13" y="29" width="1" height="1" fill="#458231" />
<rect x="14" y="29" width="1" height="1" fill="#4C8736" />
<rect x="15" y="29" width="1" height="1" fill="#5DAC4A" />
<rect x="16" y="29" width="1" height="1" fill="#428E32" />
<rect x="17" y="29" width="1" height="1" fill="#468F34" />
<rect x="18" y="29" width="1" height="1" fill="#5BA349" />
<rect x="20" y="29" width="1" height="1" fill="#58A849" />
<rect x="21" y="29" width="1" height="1" fill="#46953B" />
<rect x="22" y="29" width="1" height="1" fill="#59A54A" />
<rect x="23" y="29" width="1" height="1" fill="#61AF4E" />
<rect x="25" y="29" width="1" height="1" fill="#5DB03F" />
<rect x="26" y="29" width="1" height="1" fill="#5EAE4E" />
<rect x="3" y="30" width="1" height="1" fill="#69B64F" />
<rect x="4" y="30" width="1" height="1" fill="#5DAE3E" />
<rect x="5" y="30" width="1" height="1" fill="#4E9B3C" />
<rect x="6" y="30" width="1" height="1" fill="#61B14A" />
<rect x="8" y="30" width="1" height="1" fill="#459145" />
<rect x="9" y="30" width="1" height="1" fill="#448D3D" />
<rect x="10" y="30" width="1" height="1" fill="#71B65C" />
<rect x="11" y="30" width="1" height="1" fill="#58A13D" />
<rect x="12" y="30" width="1" height="1" fill="#63B350" />
<rect x="13" y="30" width="1" height="1" fill="#3F8925" />
<rect x="14" y="30" width="1" height="1" fill="#5EA743" />
<rect x="15" y="30" width="1" height="1" fill="#71C54D" />
<rect x="16" y="30" width="1" height="1" fill="#65BA4E" />
<rect x="17" y="30" width="1" height="1" fill="#36782A" />
<rect x="19" y="30" width="1" height="1" fill="#417627" />
<rect x="20" y="30" width="1" height="1" fill="#7BBF57" />
<rect x="21" y="30" width="1" height="1" fill="#5DA335" />
<rect x="22" y="30" width="1" height="1" fill="#72C14C" />
<rect x="24" y="30" width="1" height="1" fill="#4E9A37" />
<rect x="25" y="30" width="1" height="1" fill="#3D8727" />
<rect x="3" y="31" width="1" height="1" fill="#57A843" />
<rect x="4" y="31" width="1" height="1" fill="#59A343" />
<rect x="5" y="31" width="1" height="1" fill="#44863E" />
<rect x="6" y="31" width="1" height="1" fill="#569F3D" />
<rect x="8" y="31" width="1" height="1" fill="#519C43" />
<rect x="9" y="31" width="1" height="1" fill="#4A953E" />
<rect x="10" y="31" width="1" height="1" fill="#44923B" />
<rect x="11" y="31" width="1" height="1" fill="#7FCD55" />
<rect x="12" y="31" width="1" height="1" fill="#57A941" />
<rect x="13" y="31" width="1" height="1" fill="#428932" />
<rect x="14" y="31" width="1" height="1" fill="#3F822A" />
<rect x="15" y="31" width="1" height="1" fill="#50973A" />
<rect x="16" y="31" width="1" height="1" fill="#3E8636" />
<rect x="17" y="31" width="1" height="1" fill="#3E7C35" />
<rect x="19" y="31" width="1" height="1" fill="#3C663C" />
<rect x="20" y="31" width="1" height="1" fill="#397C1E" />
<rect x="21" y="31" width="1" height="1" fill="#75C23E" />
<rect x="22" y="31" width="1" height="1" fill="#58AB43" />
<rect x="23" y="31" width="1" height="1" fill="#65B74A" />
<rect x="24" y="31" width="1" height="1" fill="#439336" />
<rect x="25" y="31" width="1" height="1" fill="#5B9B4D" />
</svg>