<?xml version="1.0" encoding="UTF-8" ?>
<svg version="1.1" width="32" height="32" xmlns="http://www.w3.org/2000/svg" shape-rendering="crispEdges">
<rect x="0" y="0" width="32" height="32" fill="#000000" />
<rect x="12" y="3" width="1" height="1" fill="#FFFFFF" />
<rect x="13" y="3" width="1" height="1" fill="#FFFFFF" />
<rect x="14" y="3" width="1" height="1" fill="#FFFFFF" />
<rect x="0" y="4" width="1" height="1" fill="#FFFFFF" />
<rect x="1" y="4" width="1" height="1" fill="#FFFFFF" />
<rect x="2" y="4" width="1" height="1" fill="#FFFFFF" />
<rect x="12" y="4" width="1" height="1" fill="#FFFFFF" />
<rect x="13" y="4" width="1" height="1" fill="#FFFFFF" />
<rect x="14" y="4" width="1" height="1" fill="#FFFFFF" />
<rect x="0" y="5" width="1" height="1" fill="#FFFFFF" />
<rect x="1" y="5" width="1" height="1" fill="#FFFFFF" />
<rect x="2" y="5" width="1" height="1" fill="#FFFFFF" />
<rect x="12" y="5" width="1" height="1" fill="#FFFFFF" />
<rect x="13" y="5" width="1" height="1" fill="#FFFFFF" />
<rect x="14" y="5" width="1" height="1" fill="#FFFFFF" />
<rect x="15" y="5" width="1" height="1" fill="#FFFFFF" />
<rect x="16" y="5" width="1" height="1" fill="#FFFFFF" />
<rect x="0" y="6" width="1" height="1" fill="#FFFFFF" />
<rect x="1" y="6" width="1" height="1" fill="#FFFFFF" />
<rect x="2" y="6" width="1" height="1" fill="#FFFFFF" />
<rect x="14" y="6" width="1" height="1" fill="#FFFFFF" />
<rect x="15" y="6" width="1" height="1" fill="#FFFFFF" />
<rect x="16" y="6" width="1" height="1" fill="#FFFFFF" />
<rect x="14" y="7" width="1" height="1" fill="#FFFFFF" />
<rect x="15" y="7" width="1" height="1" fill="#FFFFFF" />
<rect x="16" y="7" width="1" height="1" fill="#FFFFFF" />
<rect x="24" y="12" width="1" height="1" fill="#FFFFFF" />
<rect x="25" y="12" width="1" height="1" fill="#FFFFFF" />
<rect x="26" y="12" width="1" height="1" fill="#FFFFFF" />
<rect x="24" y="13" width="1" height="1" fill="#FFFFFF" />
<rect x="25" y="13" width="1" height="1" fill="#FFFFFF" />
<rect x="26" y="13" width="1" height="1" fill="#FFFFFF" />
<rect x="22" y="14" width="1" height="1" fill="#FFFFFF" />
<rect x="23" y="14" width="1" height="1" fill="#FFFFFF" />
<rect x="24" y="14" width="1" height="1" fill="#FFFFFF" />
<rect x="25" y="14" width="1" height="1" fill="#FFFFFF" />
<rect x="26" y="14" width="1" height="1" fill="#FFFFFF" />
<rect x="22" y="15" width="1" height="1" fill="#FFFFFF" />
<rect x="23" y="15" width="1" height="1" fill="#FFFFFF" />
<rect x="24" y="15" width="1" height="1" fill="#FFFFFF" />
<rect x="22" y="16" width="1" height="1" fill="#FFFFFF" />
<rect x="23" y="16" width="1" height="1" fill="#FFFFFF" />
<rect x="24" y="16" width="1" height="1" fill="#FFFFFF" />
<rect x="25" y="16" width="1" height="1" fill="#FFFFFF" />
<rect x="23" y="17" width="1" height="1" fill="#FFFFFF" />
<rect x="24" y="17" width="1" height="1" fill="#FFFFFF" />
<rect x="25" y="17" width="1" height="1" fill="#FFFFFF" />
<rect x="26" y="17" width="1" height="1" fill="#FFFFFF" />
<rect x="27" y="17" width="1" height="1" fill="#FFFFFF" />
<rect x="21" y="18" width="1" height="1" fill="#FFFFFF" />
<rect x="22" y="18" width="1" height="1" fill="#FFFFFF" />
<rect x="23" y="18" width="1" height="1" fill="#FFFFFF" />
<rect x="24" y="18" width="1" height="1" fill="#FFFFFF" />
<rect x="25" y="18" width="1" height="1" fill="#FFFFFF" />
<rect x="26" y="18" width="1" height="1" fill="#FFFFFF" />
<rect x="27" y="18" width="1" height="1" fill="#FFFFFF" />
<rect x="21" y="19" width="1" height="1" fill="#FFFFFF" />
<rect x="22" y="19" width="1" height="1" fill="#FFFFFF" />
<rect x="23" y="19" width="1" height="1" fill="#FFFFFF" />
<rect x="25" y="19" width="1" height="1" fill="#FFFFFF" />
<rect x="26" y="19" width="1" height="1" fill="#FFFFFF" />
<rect x="27" y="19" width="1" height="1" fill="#FFFFFF" />
<rect x="21" y="20" width="1" height="1" fill="#FFFFFF" />
<rect x="22" y="20" width="1" height="1" fill="#FFFFFF" />
<rect x="23" y="20" width="1" height="1" fill="#FFFFFF" />
<rect x="28" y="21" width="1" height="1" fill="#FFFFFF" />
<rect x="29" y="21" width="1" height="1" fill="#FFFFFF" />
<rect x="30" y="21" width="1" height="1" fill="#FFFFFF" />
<rect x="26" y="22" width="1" height="1" fill="#FFFFFF" />
<rect x="27" y="22" width="1" height="1" fill="#FFFFFF" />
<rect x="28" y="22" width="1" height="1" fill="#FFFFFF" />
<rect x="29" y="22" width="1" height="1" fill="#FFFFFF" />
<rect x="30" y="22" width="1" height="1" fill="#FFFFFF" />
<rect x="26" y="23" width="1" height="1" fill="#FFFFFF" />
<rect x="27" y="23" width="1" height="1" fill="#FFFFFF" />
<rect x="28" y="23" width="1" height="1" fill="#FFFFFF" />
<rect x="29" y="23" width="1" height="1" fill="#FFFFFF" />
<rect x="30" y="23" width="1" height="1" fill="#FFFFFF" />
<rect x="26" y="24" width="1" height="1" fill="#FFFFFF" />
<rect x="27" y="24" width="1" height="1" fill="#FFFFFF" />
<rect x="28" y="24" width="1" height="1" fill="#FFFFFF" />
<rect x="26" y="25" width="1" height="1" fill="#FFFFFF" />
<rect x="27" y="25" width="1" height="1" fill="#FFFFFF" />
<rect x="28" y="25" width="1" height="1" fill="#FFFFFF" />
<rect x="29" y="25" width="1" height="1" fill="#FFFFFF" />
<rect x="30" y="25" width="1" height="1" fill="#FFFFFF" />
<rect x="20" y="26" width="1" height="1" fill="#FFFFFF" />
<rect x="21" y="26" width="1" height="1" fill="#FFFFFF" />
<rect x="22" y="26" width="1" height="1" fill="#FFFFFF" />
<rect x="26" y="26" width="1" height="1" fill="#FFFFFF" />
<rect x="27" y="26" width="1" height="1" fill="#FFFFFF" />
<rect x="28" y="26" width="1" height="1" fill="#FFFFFF" />
<rect x="29" y="26" width="1" height="1" fill="#FFFFFF" />
<rect x="30" y="26" width="1" height="1" fill="#FFFFFF" />
<rect x="20" y="27" width="1" height="1" fill="#FFFFFF" />
<rect x="21" y="27" width="1" height="1" fill="#FFFFFF" />
<rect x="22" y="27" width="1" height="1" fill="#FFFFFF" />
<rect x="26" y="27" width="1" height="1" fill="#FFFFFF" />
<rect x="27" y="27" width="1" height="1" fill="#FFFFFF" />
<rect x="28" y="27" width="1" height="1" fill="#FFFFFF" />
<rect x="29" y="27" width="1" height="1" fill="#FFFFFF" />
<rect x="30" y="27" width="1" height="1" fill="#FFFFFF" />
<rect x="20" y="28" width="1" height="1" fill="#FFFFFF" />
<rect x="21" y="28" width="1" height="1" fill="#FFFFFF" />
<rect x="22" y="28" width="1" height="1" fill="#FFFFFF" />
<rect x="27" y="28" width="1" height="1" fill="#FFFFFF" />
<rect x="28" y="28" width="1" height="1" fill="#FFFFFF" />
<rect x="29" y="28" width="1" height="1" fill="#FFFFFF" />
</svg>
