<?xml version="1.0" encoding="UTF-8" ?>
<svg version="1.1" width="32" height="32" xmlns="http://www.w3.org/2000/svg" shape-rendering="crispEdges">
<rect x="0" y="0" width="32" height="32" fill="#8080FF" />
<rect x="11" y="1" width="1" height="1" fill="#807CFF" />
<rect x="12" y="1" width="1" height="1" fill="#807AFF" />
<rect x="13" y="1" width="1" height="1" fill="#8076FF" />
<rect x="14" y="1" width="1" height="1" fill="#807AFF" />
<rect x="15" y="1" width="1" height="1" fill="#807CFF" />
<rect x="0" y="2" width="1" height="1" fill="#8076FF" />
<rect x="1" y="2" width="1" height="1" fill="#8076FF" />
<rect x="2" y="2" width="1" height="1" fill="#807AFF" />
<rect x="3" y="2" width="1" height="1" fill="#807CFF" />
<rect x="10" y="2" width="1" height="1" fill="#7C80FF" />
<rect x="11" y="2" width="1" height="1" fill="#7A7AFF" />
<rect x="12" y="2" width="1" height="1" fill="#7A74FF" />
<rect x="13" y="2" width="1" height="1" fill="#806DFE" />
<rect x="14" y="2" width="1" height="1" fill="#8574FF" />
<rect x="15" y="2" width="1" height="1" fill="#857AFF" />
<rect x="16" y="2" width="1" height="1" fill="#8280FF" />
<rect x="0" y="3" width="1" height="1" fill="#806DFE" />
<rect x="1" y="3" width="1" height="1" fill="#826DFE" />
<rect x="2" y="3" width="1" height="1" fill="#8574FF" />
<rect x="3" y="3" width="1" height="1" fill="#857AFF" />
<rect x="4" y="3" width="1" height="1" fill="#8280FF" />
<rect x="10" y="3" width="1" height="1" fill="#7A80FF" />
<rect x="11" y="3" width="1" height="1" fill="#747AFF" />
<rect x="12" y="3" width="1" height="1" fill="#7474FE" />
<rect x="13" y="3" width="1" height="1" fill="#806BFE" />
<rect x="14" y="3" width="1" height="1" fill="#8B6DFE" />
<rect x="15" y="3" width="1" height="1" fill="#8B71FE" />
<rect x="16" y="3" width="1" height="1" fill="#857AFF" />
<rect x="17" y="3" width="1" height="1" fill="#807CFF" />
<rect x="0" y="4" width="1" height="1" fill="#806DFE" />
<rect x="1" y="4" width="1" height="1" fill="#856DFE" />
<rect x="2" y="4" width="1" height="1" fill="#8B74FE" />
<rect x="3" y="4" width="1" height="1" fill="#8B7AFF" />
<rect x="4" y="4" width="1" height="1" fill="#8580FF" />
<rect x="10" y="4" width="1" height="1" fill="#7680FF" />
<rect x="11" y="4" width="1" height="1" fill="#6D80FE" />
<rect x="12" y="4" width="1" height="1" fill="#6B80FE" />
<rect x="13" y="4" width="1" height="1" fill="#7A7AFF" />
<rect x="14" y="4" width="1" height="1" fill="#8B74FE" />
<rect x="15" y="4" width="1" height="1" fill="#906EFD" />
<rect x="16" y="4" width="1" height="1" fill="#8E74FE" />
<rect x="17" y="4" width="1" height="1" fill="#857AFF" />
<rect x="18" y="4" width="1" height="1" fill="#8280FF" />
<rect x="1" y="5" width="1" height="1" fill="#8980FF" />
<rect x="2" y="5" width="1" height="1" fill="#9280FE" />
<rect x="3" y="5" width="1" height="1" fill="#9280FE" />
<rect x="4" y="5" width="1" height="1" fill="#8980FF" />
<rect x="10" y="5" width="1" height="1" fill="#7A80FF" />
<rect x="11" y="5" width="1" height="1" fill="#7485FF" />
<rect x="12" y="5" width="1" height="1" fill="#6D8BFE" />
<rect x="13" y="5" width="1" height="1" fill="#748BFE" />
<rect x="15" y="5" width="1" height="1" fill="#8B74FE" />
<rect x="16" y="5" width="1" height="1" fill="#9274FE" />
<rect x="17" y="5" width="1" height="1" fill="#8B7AFF" />
<rect x="18" y="5" width="1" height="1" fill="#8580FF" />
<rect x="0" y="6" width="1" height="1" fill="#8092FE" />
<rect x="1" y="6" width="1" height="1" fill="#8592FE" />
<rect x="2" y="6" width="1" height="1" fill="#8B8BFE" />
<rect x="3" y="6" width="1" height="1" fill="#8B85FF" />
<rect x="4" y="6" width="1" height="1" fill="#8580FF" />
<rect x="10" y="6" width="1" height="1" fill="#7C80FF" />
<rect x="11" y="6" width="1" height="1" fill="#7A85FF" />
<rect x="12" y="6" width="1" height="1" fill="#718BFE" />
<rect x="13" y="6" width="1" height="1" fill="#6E90FD" />
<rect x="14" y="6" width="1" height="1" fill="#748BFE" />
<rect x="15" y="6" width="1" height="1" fill="#8585FF" />
<rect x="16" y="6" width="1" height="1" fill="#9480FE" />
<rect x="17" y="6" width="1" height="1" fill="#9280FE" />
<rect x="18" y="6" width="1" height="1" fill="#8980FF" />
<rect x="0" y="7" width="1" height="1" fill="#8092FE" />
<rect x="1" y="7" width="1" height="1" fill="#8292FE" />
<rect x="2" y="7" width="1" height="1" fill="#858BFF" />
<rect x="3" y="7" width="1" height="1" fill="#8585FF" />
<rect x="4" y="7" width="1" height="1" fill="#8280FF" />
<rect x="11" y="7" width="1" height="1" fill="#8082FF" />
<rect x="12" y="7" width="1" height="1" fill="#7A85FF" />
<rect x="13" y="7" width="1" height="1" fill="#748EFE" />
<rect x="14" y="7" width="1" height="1" fill="#7492FE" />
<rect x="15" y="7" width="1" height="1" fill="#8094FE" />
<rect x="16" y="7" width="1" height="1" fill="#8B8BFE" />
<rect x="17" y="7" width="1" height="1" fill="#8B85FF" />
<rect x="18" y="7" width="1" height="1" fill="#8580FF" />
<rect x="0" y="8" width="1" height="1" fill="#8089FF" />
<rect x="1" y="8" width="1" height="1" fill="#8089FF" />
<rect x="2" y="8" width="1" height="1" fill="#8085FF" />
<rect x="3" y="8" width="1" height="1" fill="#8082FF" />
<rect x="12" y="8" width="1" height="1" fill="#7C80FF" />
<rect x="13" y="8" width="1" height="1" fill="#7A85FF" />
<rect x="14" y="8" width="1" height="1" fill="#7A8BFF" />
<rect x="15" y="8" width="1" height="1" fill="#8092FE" />
<rect x="16" y="8" width="1" height="1" fill="#858BFF" />
<rect x="17" y="8" width="1" height="1" fill="#8585FF" />
<rect x="18" y="8" width="1" height="1" fill="#8280FF" />
<rect x="13" y="9" width="1" height="1" fill="#8082FF" />
<rect x="14" y="9" width="1" height="1" fill="#8085FF" />
<rect x="15" y="9" width="1" height="1" fill="#8089FF" />
<rect x="16" y="9" width="1" height="1" fill="#8085FF" />
<rect x="17" y="9" width="1" height="1" fill="#8082FF" />
<rect x="23" y="10" width="1" height="1" fill="#807CFF" />
<rect x="24" y="10" width="1" height="1" fill="#807AFF" />
<rect x="25" y="10" width="1" height="1" fill="#8076FF" />
<rect x="26" y="10" width="1" height="1" fill="#807AFF" />
<rect x="27" y="10" width="1" height="1" fill="#807CFF" />
<rect x="22" y="11" width="1" height="1" fill="#7C80FF" />
<rect x="23" y="11" width="1" height="1" fill="#7A7AFF" />
<rect x="24" y="11" width="1" height="1" fill="#7A74FF" />
<rect x="25" y="11" width="1" height="1" fill="#806DFE" />
<rect x="26" y="11" width="1" height="1" fill="#8574FF" />
<rect x="27" y="11" width="1" height="1" fill="#857AFF" />
<rect x="28" y="11" width="1" height="1" fill="#8280FF" />
<rect x="21" y="12" width="1" height="1" fill="#807CFF" />
<rect x="22" y="12" width="1" height="1" fill="#7A7AFF" />
<rect x="23" y="12" width="1" height="1" fill="#7471FE" />
<rect x="24" y="12" width="1" height="1" fill="#746DFE" />
<rect x="25" y="12" width="1" height="1" fill="#806BFE" />
<rect x="26" y="12" width="1" height="1" fill="#8B74FE" />
<rect x="27" y="12" width="1" height="1" fill="#8B7AFF" />
<rect x="28" y="12" width="1" height="1" fill="#8580FF" />
<rect x="20" y="13" width="1" height="1" fill="#7C80FF" />
<rect x="21" y="13" width="1" height="1" fill="#7A7AFF" />
<rect x="22" y="13" width="1" height="1" fill="#7174FE" />
<rect x="23" y="13" width="1" height="1" fill="#6E6EFD" />
<rect x="24" y="13" width="1" height="1" fill="#7474FE" />
<rect x="25" y="13" width="1" height="1" fill="#857AFF" />
<rect x="26" y="13" width="1" height="1" fill="#9480FE" />
<rect x="27" y="13" width="1" height="1" fill="#9280FE" />
<rect x="28" y="13" width="1" height="1" fill="#8980FF" />
<rect x="20" y="14" width="1" height="1" fill="#7A80FF" />
<rect x="21" y="14" width="1" height="1" fill="#747AFF" />
<rect x="22" y="14" width="1" height="1" fill="#6D71FE" />
<rect x="23" y="14" width="1" height="1" fill="#746DFE" />
<rect x="24" y="14" width="1" height="1" fill="#8076FF" />
<rect x="25" y="14" width="1" height="1" fill="#8B85FF" />
<rect x="26" y="14" width="1" height="1" fill="#9289FE" />
<rect x="27" y="14" width="1" height="1" fill="#8B85FF" />
<rect x="28" y="14" width="1" height="1" fill="#8580FF" />
<rect x="20" y="15" width="1" height="1" fill="#7680FF" />
<rect x="21" y="15" width="1" height="1" fill="#6B80FE" />
<rect x="22" y="15" width="1" height="1" fill="#667AFD" />
<rect x="23" y="15" width="1" height="1" fill="#747AFF" />
<rect x="24" y="15" width="1" height="1" fill="#8B76FE" />
<rect x="25" y="15" width="1" height="1" fill="#9680FE" />
<rect x="26" y="15" width="1" height="1" fill="#947CFE" />
<rect x="27" y="15" width="1" height="1" fill="#8980FF" />
<rect x="28" y="15" width="1" height="1" fill="#827CFF" />
<rect x="20" y="16" width="1" height="1" fill="#7A7CFF" />
<rect x="21" y="16" width="1" height="1" fill="#6D80FE" />
<rect x="22" y="16" width="1" height="1" fill="#687CFE" />
<rect x="23" y="16" width="1" height="1" fill="#7182FE" />
<rect x="24" y="16" width="1" height="1" fill="#8576FF" />
<rect x="25" y="16" width="1" height="1" fill="#9276FE" />
<rect x="26" y="16" width="1" height="1" fill="#906EFD" />
<rect x="27" y="16" width="1" height="1" fill="#8B76FE" />
<rect x="28" y="16" width="1" height="1" fill="#857AFF" />
<rect x="29" y="16" width="1" height="1" fill="#8280FF" />
<rect x="19" y="17" width="1" height="1" fill="#7C80FF" />
<rect x="20" y="17" width="1" height="1" fill="#767AFF" />
<rect x="21" y="17" width="1" height="1" fill="#6B7AFE" />
<rect x="22" y="17" width="1" height="1" fill="#687AFE" />
<rect x="23" y="17" width="1" height="1" fill="#6D85FE" />
<rect x="25" y="17" width="1" height="1" fill="#8E7AFE" />
<rect x="26" y="17" width="1" height="1" fill="#946EFD" />
<rect x="27" y="17" width="1" height="1" fill="#9474FE" />
<rect x="28" y="17" width="1" height="1" fill="#8B7AFF" />
<rect x="29" y="17" width="1" height="1" fill="#8580FF" />
<rect x="19" y="18" width="1" height="1" fill="#7A80FF" />
<rect x="20" y="18" width="1" height="1" fill="#747AFF" />
<rect x="21" y="18" width="1" height="1" fill="#6D76FE" />
<rect x="22" y="18" width="1" height="1" fill="#747AFF" />
<rect x="23" y="18" width="1" height="1" fill="#7689FF" />
<rect x="24" y="18" width="1" height="1" fill="#7A92FE" />
<rect x="25" y="18" width="1" height="1" fill="#808EFE" />
<rect x="26" y="18" width="1" height="1" fill="#8B85FF" />
<rect x="27" y="18" width="1" height="1" fill="#9680FE" />
<rect x="28" y="18" width="1" height="1" fill="#9280FE" />
<rect x="29" y="18" width="1" height="1" fill="#8980FF" />
<rect x="19" y="19" width="1" height="1" fill="#7680FF" />
<rect x="20" y="19" width="1" height="1" fill="#6D80FE" />
<rect x="21" y="19" width="1" height="1" fill="#6B80FE" />
<rect x="22" y="19" width="1" height="1" fill="#7A85FF" />
<rect x="23" y="19" width="1" height="1" fill="#858BFF" />
<rect x="24" y="19" width="1" height="1" fill="#8596FE" />
<rect x="25" y="19" width="1" height="1" fill="#8296FE" />
<rect x="26" y="19" width="1" height="1" fill="#8596FE" />
<rect x="27" y="19" width="1" height="1" fill="#8E89FE" />
<rect x="28" y="19" width="1" height="1" fill="#8B80FF" />
<rect x="29" y="19" width="1" height="1" fill="#8576FF" />
<rect x="30" y="19" width="1" height="1" fill="#807AFF" />
<rect x="31" y="19" width="1" height="1" fill="#807CFF" />
<rect x="19" y="20" width="1" height="1" fill="#7A80FF" />
<rect x="20" y="20" width="1" height="1" fill="#7485FF" />
<rect x="21" y="20" width="1" height="1" fill="#748BFE" />
<rect x="22" y="20" width="1" height="1" fill="#8094FE" />
<rect x="23" y="20" width="1" height="1" fill="#8992FE" />
<rect x="24" y="20" width="1" height="1" fill="#8594FE" />
<rect x="25" y="20" width="1" height="1" fill="#808EFE" />
<rect x="26" y="20" width="1" height="1" fill="#7C8EFE" />
<rect x="27" y="20" width="1" height="1" fill="#807CFF" />
<rect x="28" y="20" width="1" height="1" fill="#8074FF" />
<rect x="29" y="20" width="1" height="1" fill="#826BFE" />
<rect x="30" y="20" width="1" height="1" fill="#8574FF" />
<rect x="31" y="20" width="1" height="1" fill="#827AFF" />
<rect x="19" y="21" width="1" height="1" fill="#7C80FF" />
<rect x="20" y="21" width="1" height="1" fill="#7A85FF" />
<rect x="21" y="21" width="1" height="1" fill="#7A8BFF" />
<rect x="22" y="21" width="1" height="1" fill="#8092FE" />
<rect x="23" y="21" width="1" height="1" fill="#858BFF" />
<rect x="24" y="21" width="1" height="1" fill="#8289FF" />
<rect x="25" y="21" width="1" height="1" fill="#7C80FF" />
<rect x="26" y="21" width="1" height="1" fill="#747CFF" />
<rect x="27" y="21" width="1" height="1" fill="#746DFE" />
<rect x="28" y="21" width="1" height="1" fill="#7A6BFE" />
<rect x="29" y="21" width="1" height="1" fill="#8568FE" />
<rect x="30" y="21" width="1" height="1" fill="#8E74FE" />
<rect x="31" y="21" width="1" height="1" fill="#857AFF" />
<rect x="20" y="22" width="1" height="1" fill="#8082FF" />
<rect x="21" y="22" width="1" height="1" fill="#8085FF" />
<rect x="22" y="22" width="1" height="1" fill="#8089FF" />
<rect x="23" y="22" width="1" height="1" fill="#8085FF" />
<rect x="24" y="22" width="1" height="1" fill="#7A82FF" />
<rect x="25" y="22" width="1" height="1" fill="#747AFF" />
<rect x="26" y="22" width="1" height="1" fill="#6B74FE" />
<rect x="27" y="22" width="1" height="1" fill="#6E6EFD" />
<rect x="28" y="22" width="1" height="1" fill="#7A74FF" />
<rect x="29" y="22" width="1" height="1" fill="#8B7AFF" />
<rect x="30" y="22" width="1" height="1" fill="#9680FE" />
<rect x="31" y="22" width="1" height="1" fill="#8980FF" />
<rect x="24" y="23" width="1" height="1" fill="#7680FF" />
<rect x="25" y="23" width="1" height="1" fill="#6D7CFE" />
<rect x="26" y="23" width="1" height="1" fill="#6877FD" />
<rect x="27" y="23" width="1" height="1" fill="#7474FE" />
<rect x="28" y="23" width="1" height="1" fill="#8576FF" />
<rect x="29" y="23" width="1" height="1" fill="#9280FE" />
<rect x="30" y="23" width="1" height="1" fill="#9482FE" />
<rect x="31" y="23" width="1" height="1" fill="#8582FF" />
<rect x="19" y="24" width="1" height="1" fill="#807CFF" />
<rect x="20" y="24" width="1" height="1" fill="#807AFF" />
<rect x="21" y="24" width="1" height="1" fill="#8076FF" />
<rect x="22" y="24" width="1" height="1" fill="#807AFF" />
<rect x="23" y="24" width="1" height="1" fill="#807CFF" />
<rect x="24" y="24" width="1" height="1" fill="#7680FF" />
<rect x="25" y="24" width="1" height="1" fill="#6B80FE" />
<rect x="26" y="24" width="1" height="1" fill="#6277FD" />
<rect x="27" y="24" width="1" height="1" fill="#6E6EFD" />
<rect x="28" y="24" width="1" height="1" fill="#8566FD" />
<rect x="29" y="24" width="1" height="1" fill="#966EFD" />
<rect x="30" y="24" width="1" height="1" fill="#9977FD" />
<rect x="31" y="24" width="1" height="1" fill="#8980FF" />
<rect x="18" y="25" width="1" height="1" fill="#7C80FF" />
<rect x="19" y="25" width="1" height="1" fill="#7A7AFF" />
<rect x="20" y="25" width="1" height="1" fill="#7A74FF" />
<rect x="21" y="25" width="1" height="1" fill="#806DFE" />
<rect x="22" y="25" width="1" height="1" fill="#8574FF" />
<rect x="23" y="25" width="1" height="1" fill="#857AFF" />
<rect x="24" y="25" width="1" height="1" fill="#7A80FF" />
<rect x="25" y="25" width="1" height="1" fill="#6680FD" />
<rect x="26" y="25" width="1" height="1" fill="#5874FC" />
<rect x="27" y="25" width="1" height="1" fill="#6366FC" />
<rect x="28" y="25" width="1" height="1" fill="#8558FC" />
<rect x="29" y="25" width="1" height="1" fill="#A261FB" />
<rect x="30" y="25" width="1" height="1" fill="#A46EFC" />
<rect x="31" y="25" width="1" height="1" fill="#8E7CFE" />
<rect x="18" y="26" width="1" height="1" fill="#7A80FF" />
<rect x="19" y="26" width="1" height="1" fill="#747AFF" />
<rect x="20" y="26" width="1" height="1" fill="#7474FE" />
<rect x="21" y="26" width="1" height="1" fill="#806DFE" />
<rect x="22" y="26" width="1" height="1" fill="#8B74FE" />
<rect x="23" y="26" width="1" height="1" fill="#8B7AFF" />
<rect x="24" y="26" width="1" height="1" fill="#7C80FF" />
<rect x="25" y="26" width="1" height="1" fill="#6082FC" />
<rect x="26" y="26" width="1" height="1" fill="#4A80F9" />
<rect x="27" y="26" width="1" height="1" fill="#527CFB" />
<rect x="28" y="26" width="1" height="1" fill="#7F74FF" />
<rect x="29" y="26" width="1" height="1" fill="#AD77FB" />
<rect x="30" y="26" width="1" height="1" fill="#B47AF9" />
<rect x="31" y="26" width="1" height="1" fill="#9680FE" />
<rect x="18" y="27" width="1" height="1" fill="#7680FF" />
<rect x="19" y="27" width="1" height="1" fill="#6D80FE" />
<rect x="20" y="27" width="1" height="1" fill="#6D80FE" />
<rect x="22" y="27" width="1" height="1" fill="#9280FE" />
<rect x="23" y="27" width="1" height="1" fill="#9280FE" />
<rect x="24" y="27" width="1" height="1" fill="#8280FF" />
<rect x="25" y="27" width="1" height="1" fill="#6685FD" />
<rect x="26" y="27" width="1" height="1" fill="#5290FA" />
<rect x="27" y="27" width="1" height="1" fill="#58A0F9" />
<rect x="28" y="27" width="1" height="1" fill="#80A7FC" />
<rect x="29" y="27" width="1" height="1" fill="#A7A0F9" />
<rect x="30" y="27" width="1" height="1" fill="#AD90FA" />
<rect x="31" y="27" width="1" height="1" fill="#9485FE" />
<rect x="18" y="28" width="1" height="1" fill="#7A80FF" />
<rect x="19" y="28" width="1" height="1" fill="#7485FF" />
<rect x="20" y="28" width="1" height="1" fill="#748BFE" />
<rect x="21" y="28" width="1" height="1" fill="#8092FE" />
<rect x="22" y="28" width="1" height="1" fill="#8B8BFE" />
<rect x="23" y="28" width="1" height="1" fill="#8B85FF" />
<rect x="24" y="28" width="1" height="1" fill="#8280FF" />
<rect x="25" y="28" width="1" height="1" fill="#7185FE" />
<rect x="26" y="28" width="1" height="1" fill="#6696FC" />
<rect x="27" y="28" width="1" height="1" fill="#6AACFA" />
<rect x="28" y="28" width="1" height="1" fill="#80B7F8" />
<rect x="29" y="28" width="1" height="1" fill="#95ACFA" />
<rect x="30" y="28" width="1" height="1" fill="#9996FC" />
<rect x="31" y="28" width="1" height="1" fill="#8B85FF" />
<rect x="18" y="29" width="1" height="1" fill="#7C80FF" />
<rect x="19" y="29" width="1" height="1" fill="#7A85FF" />
<rect x="20" y="29" width="1" height="1" fill="#7A8BFF" />
<rect x="21" y="29" width="1" height="1" fill="#8092FE" />
<rect x="22" y="29" width="1" height="1" fill="#858BFF" />
<rect x="23" y="29" width="1" height="1" fill="#8585FF" />
<rect x="24" y="29" width="1" height="1" fill="#8280FF" />
<rect x="25" y="29" width="1" height="1" fill="#7C82FF" />
<rect x="26" y="29" width="1" height="1" fill="#7A8EFE" />
<rect x="27" y="29" width="1" height="1" fill="#7A9DFD" />
<rect x="28" y="29" width="1" height="1" fill="#80A4FC" />
<rect x="29" y="29" width="1" height="1" fill="#859DFD" />
<rect x="30" y="29" width="1" height="1" fill="#858EFE" />
<rect x="31" y="29" width="1" height="1" fill="#8282FF" />
<rect x="19" y="30" width="1" height="1" fill="#8082FF" />
<rect x="20" y="30" width="1" height="1" fill="#8085FF" />
<rect x="21" y="30" width="1" height="1" fill="#8089FF" />
<rect x="22" y="30" width="1" height="1" fill="#8085FF" />
<rect x="23" y="30" width="1" height="1" fill="#8082FF" />
<rect x="26" y="30" width="1" height="1" fill="#8082FF" />
<rect x="27" y="30" width="1" height="1" fill="#8085FF" />
<rect x="28" y="30" width="1" height="1" fill="#8089FF" />
<rect x="29" y="30" width="1" height="1" fill="#8085FF" />
<rect x="30" y="30" width="1" height="1" fill="#8082FF" />
</svg>
