<?xml version="1.0" encoding="UTF-8" ?>
<svg version="1.1" width="100" height="100" xmlns="http://www.w3.org/2000/svg" shape-rendering="crispEdges">
<rect x="49" y="0" width="2" height="11" fill="#000000" />
<rect x="48" y="1" width="1" height="11" fill="#000000" />
<rect x="51" y="1" width="1" height="11" fill="#000000" />
<rect x="47" y="2" width="1" height="11" fill="#000000" />
<rect x="52" y="2" width="1" height="11" fill="#000000" />
<rect x="46" y="3" width="1" height="11" fill="#000000" />
<rect x="53" y="3" width="1" height="11" fill="#000000" />
<rect x="45" y="4" width="1" height="11" fill="#000000" />
<rect x="54" y="4" width="1" height="11" fill="#000000" />
<rect x="44" y="5" width="1" height="11" fill="#000000" />
<rect x="55" y="5" width="1" height="11" fill="#000000" />
<rect x="43" y="6" width="1" height="11" fill="#000000" />
<rect x="56" y="6" width="1" height="11" fill="#000000" />
<rect x="42" y="7" width="1" height="11" fill="#000000" />
<rect x="57" y="7" width="1" height="11" fill="#000000" />
<rect x="41" y="8" width="1" height="11" fill="#000000" />
<rect x="58" y="8" width="1" height="11" fill="#000000" />
<rect x="40" y="9" width="1" height="11" fill="#000000" />
<rect x="59" y="9" width="1" height="11" fill="#000000" />
<rect x="39" y="10" width="1" height="11" fill="#000000" />
<rect x="60" y="10" width="1" height="11" fill="#000000" />
<rect x="38" y="11" width="1" height="11" fill="#000000" />
<rect x="61" y="11" width="1" height="11" fill="#000000" />
<rect x="37" y="12" width="1" height="11" fill="#000000" />
<rect x="62" y="12" width="1" height="11" fill="#000000" />
<rect x="36" y="13" width="1" height="11" fill="#000000" />
<rect x="63" y="13" width="1" height="11" fill="#000000" />
<rect x="35" y="14" width="1" height="11" fill="#000000" />
<rect x="64" y="14" width="1" height="11" fill="#000000" />
<rect x="34" y="15" width="1" height="11" fill="#000000" />
<rect x="65" y="15" width="1" height="11" fill="#000000" />
<rect x="33" y="16" width="1" height="11" fill="#000000" />
<rect x="66" y="16" width="1" height="11" fill="#000000" />
<rect x="32" y="17" width="1" height="11" fill="#000000" />
<rect x="67" y="17" width="1" height="11" fill="#000000" />
<rect x="31" y="18" width="1" height="11" fill="#000000" />
<rect x="68" y="18" width="1" height="11" fill="#000000" />
<rect x="30" y="19" width="1" height="11" fill="#000000" />
<rect x="69" y="19" width="1" height="11" fill="#000000" />
<rect x="29" y="20" width="1" height="11" fill="#000000" />
<rect x="70" y="20" width="1" height="11" fill="#000000" />
<rect x="28" y="21" width="1" height="11" fill="#000000" />
<rect x="71" y="21" width="1" height="11" fill="#000000" />
<rect x="27" y="22" width="1" height="11" fill="#000000" />
<rect x="72" y="22" width="1" height="11" fill="#000000" />
<rect x="26" y="23" width="1" height="11" fill="#000000" />
<rect x="73" y="23" width="1" height="11" fill="#000000" />
<rect x="25" y="24" width="1" height="11" fill="#000000" />
<rect x="74" y="24" width="1" height="11" fill="#000000" />
<rect x="24" y="25" width="1" height="11" fill="#000000" />
<rect x="75" y="25" width="1" height="11" fill="#000000" />
<rect x="23" y="26" width="1" height="11" fill="#000000" />
<rect x="76" y="26" width="1" height="11" fill="#000000" />
<rect x="22" y="27" width="1" height="11" fill="#000000" />
<rect x="77" y="27" width="1" height="11" fill="#000000" />
<rect x="21" y="28" width="1" height="11" fill="#000000" />
<rect x="78" y="28" width="1" height="11" fill="#000000" />
<rect x="20" y="29" width="1" height="11" fill="#000000" />
<rect x="79" y="29" width="1" height="11" fill="#000000" />
<rect x="19" y="30" width="1" height="11" fill="#000000" />
<rect x="80" y="30" width="1" height="11" fill="#000000" />
<rect x="18" y="31" width="1" height="11" fill="#000000" />
<rect x="81" y="31" width="1" height="11" fill="#000000" />
<rect x="17" y="32" width="1" height="11" fill="#000000" />
<rect x="82" y="32" width="1" height="11" fill="#000000" />
<rect x="16" y="33" width="1" height="11" fill="#000000" />
<rect x="83" y="33" width="1" height="11" fill="#000000" />
<rect x="15" y="34" width="1" height="11" fill="#000000" />
<rect x="84" y="34" width="1" height="11" fill="#000000" />
<rect x="14" y="35" width="1" height="11" fill="#000000" />
<rect x="85" y="35" width="1" height="11" fill="#000000" />
<rect x="13" y="36" width="1" height="11" fill="#000000" />
<rect x="86" y="36" width="1" height="11" fill="#000000" />
<rect x="12" y="37" width="1" height="11" fill="#000000" />
<rect x="87" y="37" width="1" height="11" fill="#000000" />
<rect x="11" y="38" width="1" height="11" fill="#000000" />
<rect x="88" y="38" width="1" height="11" fill="#000000" />
<rect x="10" y="39" width="1" height="22" fill="#000000" />
<rect x="89" y="39" width="1" height="22" fill="#000000" />
<rect x="9" y="40" width="1" height="20" fill="#000000" />
<rect x="90" y="40" width="1" height="20" fill="#000000" />
<rect x="8" y="41" width="1" height="18" fill="#000000" />
<rect x="91" y="41" width="1" height="18" fill="#000000" />
<rect x="7" y="42" width="1" height="16" fill="#000000" />
<rect x="92" y="42" width="1" height="16" fill="#000000" />
<rect x="6" y="43" width="1" height="14" fill="#000000" />
<rect x="93" y="43" width="1" height="14" fill="#000000" />
<rect x="5" y="44" width="1" height="12" fill="#000000" />
<rect x="94" y="44" width="1" height="12" fill="#000000" />
<rect x="4" y="45" width="1" height="10" fill="#000000" />
<rect x="95" y="45" width="1" height="10" fill="#000000" />
<rect x="3" y="46" width="1" height="8" fill="#000000" />
<rect x="96" y="46" width="1" height="8" fill="#000000" />
<rect x="2" y="47" width="1" height="6" fill="#000000" />
<rect x="97" y="47" width="1" height="6" fill="#000000" />
<rect x="1" y="48" width="1" height="4" fill="#000000" />
<rect x="98" y="48" width="1" height="4" fill="#000000" />
<rect x="0" y="49" width="1" height="2" fill="#000000" />
<rect x="99" y="49" width="1" height="2" fill="#000000" />
<rect x="11" y="51" width="1" height="11" fill="#000000" />
<rect x="88" y="51" width="1" height="11" fill="#000000" />
<rect x="12" y="52" width="1" height="11" fill="#000000" />
<rect x="87" y="52" width="1" height="11" fill="#000000" />
<rect x="13" y="53" width="1" height="11" fill="#000000" />
<rect x="86" y="53" width="1" height="11" fill="#000000" />
<rect x="14" y="54" width="1" height="11" fill="#000000" />
<rect x="85" y="54" width="1" height="11" fill="#000000" />
<rect x="15" y="55" width="1" height="11" fill="#000000" />
<rect x="84" y="55" width="1" height="11" fill="#000000" />
<rect x="16" y="56" width="1" height="11" fill="#000000" />
<rect x="83" y="56" width="1" height="11" fill="#000000" />
<rect x="17" y="57" width="1" height="11" fill="#000000" />
<rect x="82" y="57" width="1" height="11" fill="#000000" />
<rect x="18" y="58" width="1" height="11" fill="#000000" />
<rect x="81" y="58" width="1" height="11" fill="#000000" />
<rect x="19" y="59" width="1" height="11" fill="#000000" />
<rect x="80" y="59" width="1" height="11" fill="#000000" />
<rect x="20" y="60" width="1" height="11" fill="#000000" />
<rect x="79" y="60" width="1" height="11" fill="#000000" />
<rect x="21" y="61" width="1" height="11" fill="#000000" />
<rect x="78" y="61" width="1" height="11" fill="#000000" />
<rect x="22" y="62" width="1" height="11" fill="#000000" />
<rect x="77" y="62" width="1" height="11" fill="#000000" />
<rect x="23" y="63" width="1" height="11" fill="#000000" />
<rect x="76" y="63" width="1" height="11" fill="#000000" />
<rect x="24" y="64" width="1" height="11" fill="#000000" />
<rect x="75" y="64" width="1" height="11" fill="#000000" />
<rect x="25" y="65" width="1" height="11" fill="#000000" />
<rect x="74" y="65" width="1" height="11" fill="#000000" />
<rect x="26" y="66" width="1" height="11" fill="#000000" />
<rect x="73" y="66" width="1" height="11" fill="#000000" />
<rect x="27" y="67" width="1" height="11" fill="#000000" />
<rect x="72" y="67" width="1" height="11" fill="#000000" />
<rect x="28" y="68" width="1" height="11" fill="#000000" />
<rect x="71" y="68" width="1" height="11" fill="#000000" />
<rect x="29" y="69" width="1" height="11" fill="#000000" />
<rect x="70" y="69" width="1" height="11" fill="#000000" />
<rect x="30" y="70" width="1" height="11" fill="#000000" />
<rect x="69" y="70" width="1" height="11" fill="#000000" />
<rect x="31" y="71" width="1" height="11" fill="#000000" />
<rect x="68" y="71" width="1" height="11" fill="#000000" />
<rect x="32" y="72" width="1" height="11" fill="#000000" />
<rect x="67" y="72" width="1" height="11" fill="#000000" />
<rect x="33" y="73" width="1" height="11" fill="#000000" />
<rect x="66" y="73" width="1" height="11" fill="#000000" />
<rect x="34" y="74" width="1" height="11" fill="#000000" />
<rect x="65" y="74" width="1" height="11" fill="#000000" />
<rect x="35" y="75" width="1" height="11" fill="#000000" />
<rect x="64" y="75" width="1" height="11" fill="#000000" />
<rect x="36" y="76" width="1" height="11" fill="#000000" />
<rect x="63" y="76" width="1" height="11" fill="#000000" />
<rect x="37" y="77" width="1" height="11" fill="#000000" />
<rect x="62" y="77" width="1" height="11" fill="#000000" />
<rect x="38" y="78" width="1" height="11" fill="#000000" />
<rect x="61" y="78" width="1" height="11" fill="#000000" />
<rect x="39" y="79" width="1" height="11" fill="#000000" />
<rect x="60" y="79" width="1" height="11" fill="#000000" />
<rect x="40" y="80" width="1" height="11" fill="#000000" />
<rect x="59" y="80" width="1" height="11" fill="#000000" />
<rect x="41" y="81" width="1" height="11" fill="#000000" />
<rect x="58" y="81" width="1" height="11" fill="#000000" />
<rect x="42" y="82" width="1" height="11" fill="#000000" />
<rect x="57" y="82" width="1" height="11" fill="#000000" />
<rect x="43" y="83" width="1" height="11" fill="#000000" />
<rect x="56" y="83" width="1" height="11" fill="#000000" />
<rect x="44" y="84" width="1" height="11" fill="#000000" />
<rect x="55" y="84" width="1" height="11" fill="#000000" />
<rect x="45" y="85" width="1" height="11" fill="#000000" />
<rect x="54" y="85" width="1" height="11" fill="#000000" />
<rect x="46" y="86" width="1" height="11" fill="#000000" />
<rect x="53" y="86" width="1" height="11" fill="#000000" />
<rect x="47" y="87" width="1" height="11" fill="#000000" />
<rect x="52" y="87" width="1" height="11" fill="#000000" />
<rect x="48" y="88" width="1" height="11" fill="#000000" />
<rect x="51" y="88" width="1" height="11" fill="#000000" />
<rect x="49" y="89" width="2" height="11" fill="#000000" />
</svg>