<?xml version="1.0" encoding="UTF-8" ?>
<svg version="1.1" width="32" height="32" xmlns="http://www.w3.org/2000/svg" shape-rendering="crispEdges">
<rect x="0" y="0" width="32" height="32" fill="#8080FF" />
<rect x="26" y="0" width="1" height="1" fill="#7680FF" />
<rect x="27" y="0" width="1" height="1" fill="#6D80FE" />
<rect x="28" y="0" width="1" height="1" fill="#6D80FE" />
<rect x="30" y="0" width="1" height="1" fill="#9280FE" />
<rect x="31" y="0" width="1" height="1" fill="#8980FF" />
<rect x="4" y="1" width="1" height="1" fill="#807CFF" />
<rect x="5" y="1" width="1" height="1" fill="#807AFF" />
<rect x="6" y="1" width="1" height="1" fill="#8076FF" />
<rect x="7" y="1" width="1" height="1" fill="#807AFF" />
<rect x="8" y="1" width="1" height="1" fill="#807CFF" />
<rect x="26" y="1" width="1" height="1" fill="#7680FF" />
<rect x="27" y="1" width="1" height="1" fill="#6D82FE" />
<rect x="28" y="1" width="1" height="1" fill="#6D85FE" />
<rect x="29" y="1" width="1" height="1" fill="#8089FF" />
<rect x="30" y="1" width="1" height="1" fill="#9285FE" />
<rect x="31" y="1" width="1" height="1" fill="#8982FF" />
<rect x="3" y="2" width="1" height="1" fill="#7C80FF" />
<rect x="4" y="2" width="1" height="1" fill="#7A7AFF" />
<rect x="5" y="2" width="1" height="1" fill="#7A74FF" />
<rect x="6" y="2" width="1" height="1" fill="#806DFE" />
<rect x="7" y="2" width="1" height="1" fill="#8574FF" />
<rect x="8" y="2" width="1" height="1" fill="#8576FF" />
<rect x="9" y="2" width="1" height="1" fill="#827AFF" />
<rect x="10" y="2" width="1" height="1" fill="#8076FF" />
<rect x="11" y="2" width="1" height="1" fill="#807AFF" />
<rect x="12" y="2" width="1" height="1" fill="#807CFF" />
<rect x="13" y="2" width="1" height="1" fill="#807CFF" />
<rect x="14" y="2" width="1" height="1" fill="#807AFF" />
<rect x="15" y="2" width="1" height="1" fill="#8074FF" />
<rect x="16" y="2" width="1" height="1" fill="#8074FF" />
<rect x="17" y="2" width="1" height="1" fill="#8074FF" />
<rect x="18" y="2" width="1" height="1" fill="#807AFF" />
<rect x="19" y="2" width="1" height="1" fill="#807CFF" />
<rect x="26" y="2" width="1" height="1" fill="#7A80FF" />
<rect x="27" y="2" width="1" height="1" fill="#7485FF" />
<rect x="28" y="2" width="1" height="1" fill="#748BFE" />
<rect x="29" y="2" width="1" height="1" fill="#8092FE" />
<rect x="30" y="2" width="1" height="1" fill="#8B8BFE" />
<rect x="31" y="2" width="1" height="1" fill="#8585FF" />
<rect x="3" y="3" width="1" height="1" fill="#7A80FF" />
<rect x="4" y="3" width="1" height="1" fill="#747AFF" />
<rect x="5" y="3" width="1" height="1" fill="#7471FE" />
<rect x="6" y="3" width="1" height="1" fill="#8068FE" />
<rect x="7" y="3" width="1" height="1" fill="#896BFE" />
<rect x="8" y="3" width="1" height="1" fill="#856DFE" />
<rect x="9" y="3" width="1" height="1" fill="#8071FE" />
<rect x="10" y="3" width="1" height="1" fill="#806DFE" />
<rect x="11" y="3" width="1" height="1" fill="#8574FF" />
<rect x="12" y="3" width="1" height="1" fill="#827AFF" />
<rect x="13" y="3" width="1" height="1" fill="#7C7AFF" />
<rect x="14" y="3" width="1" height="1" fill="#7674FE" />
<rect x="15" y="3" width="1" height="1" fill="#7A68FE" />
<rect x="16" y="3" width="1" height="1" fill="#8068FE" />
<rect x="17" y="3" width="1" height="1" fill="#8568FE" />
<rect x="18" y="3" width="1" height="1" fill="#8974FE" />
<rect x="19" y="3" width="1" height="1" fill="#857AFF" />
<rect x="20" y="3" width="1" height="1" fill="#8280FF" />
<rect x="21" y="3" width="1" height="1" fill="#807CFF" />
<rect x="22" y="3" width="1" height="1" fill="#807AFF" />
<rect x="23" y="3" width="1" height="1" fill="#8076FF" />
<rect x="24" y="3" width="1" height="1" fill="#807AFF" />
<rect x="25" y="3" width="1" height="1" fill="#807CFF" />
<rect x="26" y="3" width="1" height="1" fill="#7C80FF" />
<rect x="27" y="3" width="1" height="1" fill="#7A85FF" />
<rect x="28" y="3" width="1" height="1" fill="#7A8BFF" />
<rect x="29" y="3" width="1" height="1" fill="#8092FE" />
<rect x="30" y="3" width="1" height="1" fill="#858BFF" />
<rect x="31" y="3" width="1" height="1" fill="#8285FF" />
<rect x="3" y="4" width="1" height="1" fill="#7680FF" />
<rect x="4" y="4" width="1" height="1" fill="#6B80FE" />
<rect x="5" y="4" width="1" height="1" fill="#687AFE" />
<rect x="6" y="4" width="1" height="1" fill="#7A74FF" />
<rect x="7" y="4" width="1" height="1" fill="#8B6DFE" />
<rect x="8" y="4" width="1" height="1" fill="#8B6DFE" />
<rect x="9" y="4" width="1" height="1" fill="#826DFE" />
<rect x="10" y="4" width="1" height="1" fill="#826DFE" />
<rect x="11" y="4" width="1" height="1" fill="#8B74FE" />
<rect x="12" y="4" width="1" height="1" fill="#857AFF" />
<rect x="13" y="4" width="1" height="1" fill="#7A7AFF" />
<rect x="14" y="4" width="1" height="1" fill="#6D74FE" />
<rect x="15" y="4" width="1" height="1" fill="#7468FD" />
<rect x="16" y="4" width="1" height="1" fill="#8068FE" />
<rect x="17" y="4" width="1" height="1" fill="#8B68FD" />
<rect x="18" y="4" width="1" height="1" fill="#9274FE" />
<rect x="19" y="4" width="1" height="1" fill="#8B7AFF" />
<rect x="20" y="4" width="1" height="1" fill="#8280FF" />
<rect x="21" y="4" width="1" height="1" fill="#7A7AFF" />
<rect x="22" y="4" width="1" height="1" fill="#7A74FF" />
<rect x="23" y="4" width="1" height="1" fill="#806DFE" />
<rect x="24" y="4" width="1" height="1" fill="#8574FF" />
<rect x="25" y="4" width="1" height="1" fill="#857AFF" />
<rect x="26" y="4" width="1" height="1" fill="#8280FF" />
<rect x="27" y="4" width="1" height="1" fill="#8082FF" />
<rect x="28" y="4" width="1" height="1" fill="#8085FF" />
<rect x="29" y="4" width="1" height="1" fill="#8089FF" />
<rect x="30" y="4" width="1" height="1" fill="#8085FF" />
<rect x="31" y="4" width="1" height="1" fill="#8082FF" />
<rect x="3" y="5" width="1" height="1" fill="#7A80FF" />
<rect x="4" y="5" width="1" height="1" fill="#6D85FE" />
<rect x="5" y="5" width="1" height="1" fill="#6885FE" />
<rect x="6" y="5" width="1" height="1" fill="#7485FF" />
<rect x="7" y="5" width="1" height="1" fill="#827AFF" />
<rect x="8" y="5" width="1" height="1" fill="#857AFF" />
<rect x="9" y="5" width="1" height="1" fill="#807AFF" />
<rect x="10" y="5" width="1" height="1" fill="#8580FF" />
<rect x="11" y="5" width="1" height="1" fill="#9280FE" />
<rect x="12" y="5" width="1" height="1" fill="#8980FF" />
<rect x="13" y="5" width="1" height="1" fill="#7680FF" />
<rect x="14" y="5" width="1" height="1" fill="#6680FD" />
<rect x="15" y="5" width="1" height="1" fill="#6D80FE" />
<rect x="17" y="5" width="1" height="1" fill="#9280FE" />
<rect x="18" y="5" width="1" height="1" fill="#9980FD" />
<rect x="19" y="5" width="1" height="1" fill="#9280FE" />
<rect x="20" y="5" width="1" height="1" fill="#8280FF" />
<rect x="21" y="5" width="1" height="1" fill="#747AFF" />
<rect x="22" y="5" width="1" height="1" fill="#7474FE" />
<rect x="23" y="5" width="1" height="1" fill="#806DFE" />
<rect x="24" y="5" width="1" height="1" fill="#8B74FE" />
<rect x="25" y="5" width="1" height="1" fill="#8B7AFF" />
<rect x="26" y="5" width="1" height="1" fill="#8580FF" />
<rect x="1" y="6" width="1" height="1" fill="#807CFF" />
<rect x="2" y="6" width="1" height="1" fill="#807AFF" />
<rect x="3" y="6" width="1" height="1" fill="#7C76FF" />
<rect x="4" y="6" width="1" height="1" fill="#7180FE" />
<rect x="5" y="6" width="1" height="1" fill="#6888FD" />
<rect x="6" y="6" width="1" height="1" fill="#6E90FD" />
<rect x="7" y="6" width="1" height="1" fill="#808BFF" />
<rect x="8" y="6" width="1" height="1" fill="#8B8BFE" />
<rect x="9" y="6" width="1" height="1" fill="#898BFE" />
<rect x="10" y="6" width="1" height="1" fill="#8992FE" />
<rect x="11" y="6" width="1" height="1" fill="#8B8BFE" />
<rect x="12" y="6" width="1" height="1" fill="#8585FF" />
<rect x="13" y="6" width="1" height="1" fill="#7A85FF" />
<rect x="14" y="6" width="1" height="1" fill="#6D8BFE" />
<rect x="15" y="6" width="1" height="1" fill="#7496FD" />
<rect x="16" y="6" width="1" height="1" fill="#8096FE" />
<rect x="17" y="6" width="1" height="1" fill="#8B96FD" />
<rect x="18" y="6" width="1" height="1" fill="#928BFE" />
<rect x="19" y="6" width="1" height="1" fill="#8B85FF" />
<rect x="20" y="6" width="1" height="1" fill="#7C80FF" />
<rect x="21" y="6" width="1" height="1" fill="#6D80FE" />
<rect x="22" y="6" width="1" height="1" fill="#6D80FE" />
<rect x="24" y="6" width="1" height="1" fill="#9280FE" />
<rect x="25" y="6" width="1" height="1" fill="#9280FE" />
<rect x="26" y="6" width="1" height="1" fill="#8980FF" />
<rect x="0" y="7" width="1" height="1" fill="#7C80FF" />
<rect x="1" y="7" width="1" height="1" fill="#7A7AFF" />
<rect x="2" y="7" width="1" height="1" fill="#7A74FF" />
<rect x="3" y="7" width="1" height="1" fill="#806DFE" />
<rect x="4" y="7" width="1" height="1" fill="#8076FF" />
<rect x="5" y="7" width="1" height="1" fill="#7A85FF" />
<rect x="6" y="7" width="1" height="1" fill="#7694FE" />
<rect x="7" y="7" width="1" height="1" fill="#7C96FE" />
<rect x="8" y="7" width="1" height="1" fill="#8594FE" />
<rect x="9" y="7" width="1" height="1" fill="#858EFE" />
<rect x="10" y="7" width="1" height="1" fill="#858BFF" />
<rect x="11" y="7" width="1" height="1" fill="#8582FF" />
<rect x="12" y="7" width="1" height="1" fill="#8280FF" />
<rect x="13" y="7" width="1" height="1" fill="#7C82FF" />
<rect x="14" y="7" width="1" height="1" fill="#768BFE" />
<rect x="15" y="7" width="1" height="1" fill="#7A96FE" />
<rect x="16" y="7" width="1" height="1" fill="#8096FE" />
<rect x="17" y="7" width="1" height="1" fill="#8596FE" />
<rect x="18" y="7" width="1" height="1" fill="#898BFE" />
<rect x="19" y="7" width="1" height="1" fill="#8585FF" />
<rect x="20" y="7" width="1" height="1" fill="#7C80FF" />
<rect x="21" y="7" width="1" height="1" fill="#7485FF" />
<rect x="22" y="7" width="1" height="1" fill="#748BFE" />
<rect x="23" y="7" width="1" height="1" fill="#8092FE" />
<rect x="24" y="7" width="1" height="1" fill="#8B8BFE" />
<rect x="25" y="7" width="1" height="1" fill="#8B85FF" />
<rect x="26" y="7" width="1" height="1" fill="#8580FF" />
<rect x="0" y="8" width="1" height="1" fill="#7A80FF" />
<rect x="1" y="8" width="1" height="1" fill="#747AFF" />
<rect x="2" y="8" width="1" height="1" fill="#7474FE" />
<rect x="3" y="8" width="1" height="1" fill="#806DFE" />
<rect x="4" y="8" width="1" height="1" fill="#8974FE" />
<rect x="5" y="8" width="1" height="1" fill="#8580FF" />
<rect x="6" y="8" width="1" height="1" fill="#808BFF" />
<rect x="7" y="8" width="1" height="1" fill="#8092FE" />
<rect x="8" y="8" width="1" height="1" fill="#828EFE" />
<rect x="9" y="8" width="1" height="1" fill="#8085FF" />
<rect x="10" y="8" width="1" height="1" fill="#7C7CFF" />
<rect x="11" y="8" width="1" height="1" fill="#8074FF" />
<rect x="12" y="8" width="1" height="1" fill="#8576FF" />
<rect x="13" y="8" width="1" height="1" fill="#857CFF" />
<rect x="14" y="8" width="1" height="1" fill="#8285FF" />
<rect x="15" y="8" width="1" height="1" fill="#808BFF" />
<rect x="16" y="8" width="1" height="1" fill="#808BFF" />
<rect x="17" y="8" width="1" height="1" fill="#808BFF" />
<rect x="18" y="8" width="1" height="1" fill="#8085FF" />
<rect x="19" y="8" width="1" height="1" fill="#8082FF" />
<rect x="20" y="8" width="1" height="1" fill="#7C80FF" />
<rect x="21" y="8" width="1" height="1" fill="#7A85FF" />
<rect x="22" y="8" width="1" height="1" fill="#7A8BFF" />
<rect x="23" y="8" width="1" height="1" fill="#8092FE" />
<rect x="24" y="8" width="1" height="1" fill="#858BFF" />
<rect x="25" y="8" width="1" height="1" fill="#8585FF" />
<rect x="26" y="8" width="1" height="1" fill="#8280FF" />
<rect x="0" y="9" width="1" height="1" fill="#7680FF" />
<rect x="1" y="9" width="1" height="1" fill="#6D80FE" />
<rect x="2" y="9" width="1" height="1" fill="#6D80FE" />
<rect x="4" y="9" width="1" height="1" fill="#9280FE" />
<rect x="5" y="9" width="1" height="1" fill="#9282FE" />
<rect x="6" y="9" width="1" height="1" fill="#8985FF" />
<rect x="7" y="9" width="1" height="1" fill="#8089FF" />
<rect x="8" y="9" width="1" height="1" fill="#7A85FF" />
<rect x="9" y="9" width="1" height="1" fill="#747CFF" />
<rect x="10" y="9" width="1" height="1" fill="#7474FE" />
<rect x="11" y="9" width="1" height="1" fill="#806DFE" />
<rect x="12" y="9" width="1" height="1" fill="#8B74FE" />
<rect x="13" y="9" width="1" height="1" fill="#8B7AFF" />
<rect x="14" y="9" width="1" height="1" fill="#8580FF" />
<rect x="21" y="9" width="1" height="1" fill="#8082FF" />
<rect x="22" y="9" width="1" height="1" fill="#8085FF" />
<rect x="23" y="9" width="1" height="1" fill="#8089FF" />
<rect x="24" y="9" width="1" height="1" fill="#8085FF" />
<rect x="25" y="9" width="1" height="1" fill="#8082FF" />
<rect x="0" y="10" width="1" height="1" fill="#7A80FF" />
<rect x="1" y="10" width="1" height="1" fill="#7485FF" />
<rect x="2" y="10" width="1" height="1" fill="#748BFE" />
<rect x="3" y="10" width="1" height="1" fill="#8092FE" />
<rect x="4" y="10" width="1" height="1" fill="#8B8BFE" />
<rect x="5" y="10" width="1" height="1" fill="#8B85FF" />
<rect x="6" y="10" width="1" height="1" fill="#8580FF" />
<rect x="8" y="10" width="1" height="1" fill="#7680FF" />
<rect x="9" y="10" width="1" height="1" fill="#6D80FE" />
<rect x="10" y="10" width="1" height="1" fill="#6D80FE" />
<rect x="11" y="10" width="1" height="1" fill="#807CFF" />
<rect x="12" y="10" width="1" height="1" fill="#927AFE" />
<rect x="13" y="10" width="1" height="1" fill="#9276FE" />
<rect x="14" y="10" width="1" height="1" fill="#897AFF" />
<rect x="15" y="10" width="1" height="1" fill="#807CFF" />
<rect x="0" y="11" width="1" height="1" fill="#7C80FF" />
<rect x="1" y="11" width="1" height="1" fill="#7A82FF" />
<rect x="2" y="11" width="1" height="1" fill="#7A85FF" />
<rect x="3" y="11" width="1" height="1" fill="#8089FF" />
<rect x="4" y="11" width="1" height="1" fill="#8585FF" />
<rect x="5" y="11" width="1" height="1" fill="#8582FF" />
<rect x="6" y="11" width="1" height="1" fill="#8280FF" />
<rect x="8" y="11" width="1" height="1" fill="#7A80FF" />
<rect x="9" y="11" width="1" height="1" fill="#7485FF" />
<rect x="10" y="11" width="1" height="1" fill="#718BFE" />
<rect x="11" y="11" width="1" height="1" fill="#7A8BFF" />
<rect x="12" y="11" width="1" height="1" fill="#8580FF" />
<rect x="13" y="11" width="1" height="1" fill="#8B74FE" />
<rect x="14" y="11" width="1" height="1" fill="#8B74FE" />
<rect x="15" y="11" width="1" height="1" fill="#857AFF" />
<rect x="16" y="11" width="1" height="1" fill="#8280FF" />
<rect x="0" y="12" width="1" height="1" fill="#7C80FF" />
<rect x="1" y="12" width="1" height="1" fill="#7A7CFF" />
<rect x="2" y="12" width="1" height="1" fill="#7A7AFF" />
<rect x="3" y="12" width="1" height="1" fill="#8076FF" />
<rect x="4" y="12" width="1" height="1" fill="#857AFF" />
<rect x="5" y="12" width="1" height="1" fill="#857CFF" />
<rect x="6" y="12" width="1" height="1" fill="#8280FF" />
<rect x="8" y="12" width="1" height="1" fill="#7C80FF" />
<rect x="9" y="12" width="1" height="1" fill="#7A85FF" />
<rect x="10" y="12" width="1" height="1" fill="#748BFE" />
<rect x="11" y="12" width="1" height="1" fill="#748BFE" />
<rect x="12" y="12" width="1" height="1" fill="#7A80FF" />
<rect x="13" y="12" width="1" height="1" fill="#8574FF" />
<rect x="14" y="12" width="1" height="1" fill="#8E74FE" />
<rect x="15" y="12" width="1" height="1" fill="#8B7AFF" />
<rect x="16" y="12" width="1" height="1" fill="#8580FF" />
<rect x="0" y="13" width="1" height="1" fill="#7A80FF" />
<rect x="1" y="13" width="1" height="1" fill="#747AFF" />
<rect x="2" y="13" width="1" height="1" fill="#7474FE" />
<rect x="3" y="13" width="1" height="1" fill="#806DFE" />
<rect x="4" y="13" width="1" height="1" fill="#8B74FE" />
<rect x="5" y="13" width="1" height="1" fill="#8B7AFF" />
<rect x="6" y="13" width="1" height="1" fill="#8580FF" />
<rect x="9" y="13" width="1" height="1" fill="#8082FF" />
<rect x="10" y="13" width="1" height="1" fill="#7685FF" />
<rect x="11" y="13" width="1" height="1" fill="#6D89FE" />
<rect x="12" y="13" width="1" height="1" fill="#6D85FE" />
<rect x="13" y="13" width="1" height="1" fill="#8082FF" />
<rect x="14" y="13" width="1" height="1" fill="#9280FE" />
<rect x="15" y="13" width="1" height="1" fill="#9280FE" />
<rect x="16" y="13" width="1" height="1" fill="#8980FF" />
<rect x="0" y="14" width="1" height="1" fill="#7680FF" />
<rect x="1" y="14" width="1" height="1" fill="#6D80FE" />
<rect x="2" y="14" width="1" height="1" fill="#6D80FE" />
<rect x="4" y="14" width="1" height="1" fill="#9280FE" />
<rect x="5" y="14" width="1" height="1" fill="#9280FE" />
<rect x="6" y="14" width="1" height="1" fill="#8980FF" />
<rect x="10" y="14" width="1" height="1" fill="#7A80FF" />
<rect x="11" y="14" width="1" height="1" fill="#7482FF" />
<rect x="12" y="14" width="1" height="1" fill="#7482FF" />
<rect x="13" y="14" width="1" height="1" fill="#8082FF" />
<rect x="14" y="14" width="1" height="1" fill="#8B7CFF" />
<rect x="15" y="14" width="1" height="1" fill="#8B7CFF" />
<rect x="16" y="14" width="1" height="1" fill="#857CFF" />
<rect x="0" y="15" width="1" height="1" fill="#7A80FF" />
<rect x="1" y="15" width="1" height="1" fill="#7485FF" />
<rect x="2" y="15" width="1" height="1" fill="#748BFE" />
<rect x="3" y="15" width="1" height="1" fill="#8092FE" />
<rect x="4" y="15" width="1" height="1" fill="#8B8BFE" />
<rect x="5" y="15" width="1" height="1" fill="#8B85FF" />
<rect x="6" y="15" width="1" height="1" fill="#8580FF" />
<rect x="10" y="15" width="1" height="1" fill="#7A80FF" />
<rect x="11" y="15" width="1" height="1" fill="#7180FE" />
<rect x="12" y="15" width="1" height="1" fill="#6D7AFE" />
<rect x="13" y="15" width="1" height="1" fill="#7A74FF" />
<rect x="14" y="15" width="1" height="1" fill="#8B6DFE" />
<rect x="15" y="15" width="1" height="1" fill="#9274FE" />
<rect x="16" y="15" width="1" height="1" fill="#8B7AFF" />
<rect x="17" y="15" width="1" height="1" fill="#8280FF" />
<rect x="0" y="16" width="1" height="1" fill="#7C80FF" />
<rect x="1" y="16" width="1" height="1" fill="#7A85FF" />
<rect x="2" y="16" width="1" height="1" fill="#7A8BFF" />
<rect x="3" y="16" width="1" height="1" fill="#8092FE" />
<rect x="4" y="16" width="1" height="1" fill="#858BFF" />
<rect x="5" y="16" width="1" height="1" fill="#8585FF" />
<rect x="6" y="16" width="1" height="1" fill="#8280FF" />
<rect x="10" y="16" width="1" height="1" fill="#7A80FF" />
<rect x="11" y="16" width="1" height="1" fill="#6D7CFE" />
<rect x="12" y="16" width="1" height="1" fill="#6874FD" />
<rect x="13" y="16" width="1" height="1" fill="#746BFE" />
<rect x="14" y="16" width="1" height="1" fill="#8B66FD" />
<rect x="15" y="16" width="1" height="1" fill="#966BFD" />
<rect x="16" y="16" width="1" height="1" fill="#9271FE" />
<rect x="17" y="16" width="1" height="1" fill="#857AFF" />
<rect x="18" y="16" width="1" height="1" fill="#807CFF" />
<rect x="1" y="17" width="1" height="1" fill="#8082FF" />
<rect x="2" y="17" width="1" height="1" fill="#8085FF" />
<rect x="3" y="17" width="1" height="1" fill="#8089FF" />
<rect x="4" y="17" width="1" height="1" fill="#8085FF" />
<rect x="5" y="17" width="1" height="1" fill="#8082FF" />
<rect x="10" y="17" width="1" height="1" fill="#7680FF" />
<rect x="11" y="17" width="1" height="1" fill="#6680FD" />
<rect x="12" y="17" width="1" height="1" fill="#5D80FC" />
<rect x="13" y="17" width="1" height="1" fill="#6B80FE" />
<rect x="14" y="17" width="1" height="1" fill="#8B7AFF" />
<rect x="15" y="17" width="1" height="1" fill="#9D74FD" />
<rect x="16" y="17" width="1" height="1" fill="#996EFD" />
<rect x="17" y="17" width="1" height="1" fill="#8E74FE" />
<rect x="18" y="17" width="1" height="1" fill="#857AFF" />
<rect x="19" y="17" width="1" height="1" fill="#8280FF" />
<rect x="8" y="18" width="1" height="1" fill="#807CFF" />
<rect x="9" y="18" width="1" height="1" fill="#807AFF" />
<rect x="10" y="18" width="1" height="1" fill="#7A76FF" />
<rect x="11" y="18" width="1" height="1" fill="#6D80FE" />
<rect x="12" y="18" width="1" height="1" fill="#688EFD" />
<rect x="13" y="18" width="1" height="1" fill="#6E9DFC" />
<rect x="14" y="18" width="1" height="1" fill="#8096FE" />
<rect x="15" y="18" width="1" height="1" fill="#8B85FF" />
<rect x="16" y="18" width="1" height="1" fill="#9274FE" />
<rect x="17" y="18" width="1" height="1" fill="#9274FE" />
<rect x="18" y="18" width="1" height="1" fill="#8B7AFF" />
<rect x="19" y="18" width="1" height="1" fill="#8580FF" />
<rect x="7" y="19" width="1" height="1" fill="#7C80FF" />
<rect x="8" y="19" width="1" height="1" fill="#7A7AFF" />
<rect x="9" y="19" width="1" height="1" fill="#7A74FF" />
<rect x="10" y="19" width="1" height="1" fill="#7C6DFE" />
<rect x="11" y="19" width="1" height="1" fill="#7C7AFF" />
<rect x="12" y="19" width="1" height="1" fill="#7A8BFF" />
<rect x="13" y="19" width="1" height="1" fill="#749DFD" />
<rect x="14" y="19" width="1" height="1" fill="#749DFD" />
<rect x="15" y="19" width="1" height="1" fill="#7A92FE" />
<rect x="16" y="19" width="1" height="1" fill="#8985FF" />
<rect x="17" y="19" width="1" height="1" fill="#9480FE" />
<rect x="18" y="19" width="1" height="1" fill="#9280FE" />
<rect x="19" y="19" width="1" height="1" fill="#8980FF" />
<rect x="7" y="20" width="1" height="1" fill="#7A80FF" />
<rect x="8" y="20" width="1" height="1" fill="#747AFF" />
<rect x="9" y="20" width="1" height="1" fill="#7474FE" />
<rect x="10" y="20" width="1" height="1" fill="#806DFE" />
<rect x="11" y="20" width="1" height="1" fill="#8B76FE" />
<rect x="12" y="20" width="1" height="1" fill="#8B82FF" />
<rect x="13" y="20" width="1" height="1" fill="#808EFE" />
<rect x="14" y="20" width="1" height="1" fill="#7494FE" />
<rect x="15" y="20" width="1" height="1" fill="#7494FE" />
<rect x="16" y="20" width="1" height="1" fill="#8094FE" />
<rect x="17" y="20" width="1" height="1" fill="#8B8BFE" />
<rect x="18" y="20" width="1" height="1" fill="#8B85FF" />
<rect x="19" y="20" width="1" height="1" fill="#8580FF" />
<rect x="7" y="21" width="1" height="1" fill="#7680FF" />
<rect x="8" y="21" width="1" height="1" fill="#6D80FE" />
<rect x="9" y="21" width="1" height="1" fill="#6D80FE" />
<rect x="11" y="21" width="1" height="1" fill="#9280FE" />
<rect x="12" y="21" width="1" height="1" fill="#9280FE" />
<rect x="13" y="21" width="1" height="1" fill="#8580FF" />
<rect x="14" y="21" width="1" height="1" fill="#7A85FF" />
<rect x="15" y="21" width="1" height="1" fill="#7A8BFF" />
<rect x="16" y="21" width="1" height="1" fill="#8092FE" />
<rect x="17" y="21" width="1" height="1" fill="#858BFF" />
<rect x="18" y="21" width="1" height="1" fill="#8585FF" />
<rect x="19" y="21" width="1" height="1" fill="#8280FF" />
<rect x="7" y="22" width="1" height="1" fill="#7A80FF" />
<rect x="8" y="22" width="1" height="1" fill="#7485FF" />
<rect x="9" y="22" width="1" height="1" fill="#748BFE" />
<rect x="10" y="22" width="1" height="1" fill="#8092FE" />
<rect x="11" y="22" width="1" height="1" fill="#8B8BFE" />
<rect x="12" y="22" width="1" height="1" fill="#8B85FF" />
<rect x="13" y="22" width="1" height="1" fill="#8580FF" />
<rect x="14" y="22" width="1" height="1" fill="#8082FF" />
<rect x="15" y="22" width="1" height="1" fill="#8085FF" />
<rect x="16" y="22" width="1" height="1" fill="#8089FF" />
<rect x="17" y="22" width="1" height="1" fill="#8085FF" />
<rect x="18" y="22" width="1" height="1" fill="#8082FF" />
<rect x="7" y="23" width="1" height="1" fill="#7C80FF" />
<rect x="8" y="23" width="1" height="1" fill="#7A85FF" />
<rect x="9" y="23" width="1" height="1" fill="#7A8BFF" />
<rect x="10" y="23" width="1" height="1" fill="#8092FE" />
<rect x="11" y="23" width="1" height="1" fill="#858BFF" />
<rect x="12" y="23" width="1" height="1" fill="#8585FF" />
<rect x="13" y="23" width="1" height="1" fill="#8280FF" />
<rect x="8" y="24" width="1" height="1" fill="#8082FF" />
<rect x="9" y="24" width="1" height="1" fill="#8085FF" />
<rect x="10" y="24" width="1" height="1" fill="#8089FF" />
<rect x="11" y="24" width="1" height="1" fill="#8085FF" />
<rect x="12" y="24" width="1" height="1" fill="#8082FF" />
</svg>
