# WaveFront *.obj file (generated by Autodesk ATF)

g Corps68

v -1.095969 1.050000 -1.000000
v -0.685969 1.562500 -1.000000
v -0.685969 1.549651 -1.114042
v -0.685969 1.511747 -1.222365
v -0.685969 1.450689 -1.319539
v -0.685969 1.369539 -1.400689
v -0.685969 1.272365 -1.461747
v -0.685969 1.164042 -1.499651
v -0.685969 1.050000 -1.512500
v -0.050000 1.562500 -1.000000
v -0.050000 1.549651 -1.114042
v -0.050000 1.511747 -1.222365
v -0.050000 1.450689 -1.319539
v -0.050000 1.369539 -1.400689
v -0.050000 1.272365 -1.461747
v -0.050000 1.164042 -1.499651
v -0.050000 1.050000 -1.512500
v -0.050000 2.357461 0.017550
v -1.095969 1.050000 0.100000
v -0.050000 2.357461 0.100000
v -0.050000 1.050000 1.407461
v -0.050000 1.236071 1.394153
v -0.050000 1.418354 1.354500
v -0.050000 1.593139 1.289308
v -0.050000 1.756867 1.199906
v -0.050000 1.906205 1.088113
v -0.050000 2.038113 0.956205
v -0.050000 2.149906 0.806867
v -0.050000 2.239308 0.643139
v -0.050000 2.304500 0.468354
v -0.050000 2.344153 0.286071
vt 0.000000 0.000000 0.000000
vt 0.000000 0.057502 0.000000
vt -0.656320 0.057502 0.000000
vt 0.000000 0.115005 0.000000
vt -0.656320 0.115005 0.000000
vt 0.000000 0.172507 0.000000
vt -0.656320 0.172507 0.000000
vt 0.000000 0.230009 0.000000
vt -0.656320 0.230009 0.000000
vt 0.000000 0.287512 0.000000
vt -0.656320 0.287512 0.000000
vt 0.000000 0.345014 0.000000
vt -0.656320 0.345014 0.000000
vt 0.000000 0.402517 0.000000
vt -0.656320 0.402517 0.000000
vt -0.317984 0.000000 0.000000
vt 0.317984 0.000000 0.000000
vt -0.317984 0.115005 0.000000
vt 0.317984 0.115005 0.000000
vt -0.317984 0.230009 0.000000
vt 0.317984 0.230009 0.000000
vt -0.317984 0.345014 0.000000
vt 0.317984 0.345014 0.000000
vt -0.317984 0.460019 0.000000
vt 0.317984 0.460019 0.000000
vt -0.317984 0.575024 0.000000
vt 0.317984 0.575024 0.000000
vt -0.317984 0.690028 0.000000
vt 0.317984 0.690028 0.000000
vt -0.317984 0.805033 0.000000
vt 0.317984 0.805033 0.000000
vt -2.537993 0.050000 0.000000
vt -2.537993 0.685969 0.000000
vt -3.829260 0.050000 0.000000
vt 0.000000 0.100000 0.000000
vt 0.000000 0.017550 0.000000
vt 1.674367 0.100000 0.000000
vt 1.018047 -1.000000 0.000000
vt 1.674367 -1.000000 0.000000
vt -0.837184 0.000000 0.000000
vt 0.837184 0.000000 0.000000
vt -0.837184 0.093352 0.000000
vt -0.837184 1.026877 0.000000
vt -0.837184 0.933525 0.000000
vt 0.837184 0.933525 0.000000
vt -0.837184 0.840172 0.000000
vt 0.837184 0.840172 0.000000
vt -0.837184 0.746820 0.000000
vt 0.837184 0.746820 0.000000
vt -0.837184 0.653467 0.000000
vt 0.837184 0.653467 0.000000
vt -0.837184 0.560115 0.000000
vt 0.837184 0.560115 0.000000
vt -0.837184 0.466762 0.000000
vt 0.837184 0.466762 0.000000
vt -0.837184 0.373410 0.000000
vt 0.837184 0.373410 0.000000
vt -0.837184 0.280057 0.000000
vt 0.837184 0.280057 0.000000
vt -0.837184 0.186705 0.000000
vt 0.837184 0.186705 0.000000
vt 0.837184 0.093352 0.000000
vt 1.045969 -1.512500 0.000000
vt 1.045969 1.407461 0.000000
vt 0.410000 -1.512500 0.000000
vt 0.000000 0.100000 0.000000
vt 0.000000 -1.000000 0.000000
vt 1.307461 0.017550 0.000000
vt 1.099906 0.806867 0.000000
vt 0.512500 -1.000000 0.000000
vt 0.988113 0.956205 0.000000
vt 0.856205 1.088113 0.000000
vt 1.189308 0.643139 0.000000
vt 1.307461 0.100000 0.000000
vt 1.254500 0.468354 0.000000
vt 1.294153 0.286071 0.000000
vt 0.706867 1.199906 0.000000
vt 0.543139 1.289308 0.000000
vt 0.368354 1.354500 0.000000
vt 0.186071 1.394153 0.000000
vt 0.000000 1.407461 0.000000
vt 0.114042 -1.499651 0.000000
vt 0.000000 -1.512500 0.000000
vt 0.222365 -1.461747 0.000000
vt 0.319539 -1.400689 0.000000
vt 0.400689 -1.319539 0.000000
vt 0.461747 -1.222365 0.000000
vt 0.499651 -1.114042 0.000000
vn -0.780869 0.624695 -0.000000
vn -0.780869 0.609033 -0.139008
vn -0.780869 0.609033 -0.139008
vn -0.780869 0.562831 -0.271045
vn -0.780869 0.562831 -0.271045
vn -0.780869 0.488406 -0.389491
vn -0.780869 0.488406 -0.389491
vn -0.780869 0.389491 -0.488406
vn -0.780869 0.389491 -0.488406
vn -0.780869 0.271045 -0.562831
vn -0.780869 0.271045 -0.562831
vn -0.780869 0.139008 -0.609033
vn -0.780869 0.139008 -0.609033
vn -0.780869 -0.000000 -0.624695
vn -0.780869 -0.000000 -0.624695
vn -0.000000 1.000000 -0.000000
vn -0.000000 1.000000 -0.000000
vn -0.000000 0.974928 -0.222521
vn -0.000000 0.974928 -0.222521
vn -0.000000 0.900969 -0.433884
vn -0.000000 0.900969 -0.433884
vn -0.000000 0.781831 -0.623490
vn -0.000000 0.781831 -0.623490
vn -0.000000 0.623490 -0.781831
vn -0.000000 0.623490 -0.781831
vn -0.000000 0.433884 -0.900969
vn -0.000000 0.433884 -0.900969
vn -0.000000 0.222521 -0.974928
vn -0.000000 0.222521 -0.974928
vn -0.000000 0.000000 -1.000000
vn 0.000000 -0.000000 -1.000000
vn -0.000000 0.788024 -0.615644
vn -0.000000 0.788024 -0.615644
vn -0.000000 0.788024 -0.615644
vn -0.780869 0.624695 0.000000
vn -0.780869 0.624695 0.000000
vn -0.780869 0.624695 0.000000
vn -0.780869 0.624695 0.000000
vn -0.780869 0.618337 0.088903
vn -0.780869 -0.000000 0.624695
vn -0.780869 0.088903 0.618337
vn -0.780869 0.088903 0.618337
vn -0.780869 0.175997 0.599391
vn -0.780869 0.175997 0.599391
vn -0.780869 0.259508 0.568243
vn -0.780869 0.259508 0.568243
vn -0.780869 0.337736 0.525527
vn -0.780869 0.337736 0.525527
vn -0.780869 0.409088 0.472113
vn -0.780869 0.409088 0.472113
vn -0.780869 0.472113 0.409088
vn -0.780869 0.472113 0.409088
vn -0.780869 0.525527 0.337736
vn -0.780869 0.525527 0.337736
vn -0.780869 0.568243 0.259508
vn -0.780869 0.568243 0.259508
vn -0.780869 0.599391 0.175997
vn -0.780869 0.599391 0.175997
vn -0.780869 0.618337 0.088903
vn 0.000000 -1.000000 0.000000
vn 0.000000 -1.000000 0.000000
vn 0.000000 -1.000000 0.000000
vn 0.000000 -1.000000 0.000000
vn 0.000000 -1.000000 0.000000
vn 1.000000 0.000000 -0.000000
vn 1.000000 0.000000 -0.000000
vn 1.000000 0.000000 -0.000000
vn 1.000000 0.000000 -0.000000
vn 1.000000 0.000000 -0.000000
vn 1.000000 0.000000 -0.000000
vn 1.000000 0.000000 -0.000000
vn 1.000000 0.000000 -0.000000
vn 1.000000 0.000000 -0.000000
vn 1.000000 0.000000 -0.000000
vn 1.000000 0.000000 -0.000000
vn 1.000000 0.000000 -0.000000
vn 1.000000 0.000000 -0.000000
vn 1.000000 0.000000 -0.000000
vn 1.000000 0.000000 -0.000000
vn 1.000000 0.000000 -0.000000
vn 1.000000 0.000000 -0.000000
vn 1.000000 0.000000 -0.000000
vn 1.000000 0.000000 -0.000000
vn 1.000000 0.000000 -0.000000
vn 1.000000 0.000000 -0.000000
f 2/1/1 3/2/2 1/3/3
f 3/2/2 4/4/4 1/5/5
f 4/4/4 5/6/6 1/7/7
f 5/6/6 6/8/8 1/9/9
f 6/8/8 7/10/10 1/11/11
f 7/10/10 8/12/12 1/13/13
f 8/12/12 9/14/14 1/15/15
f 2/16/16 10/17/17 3/18/18
f 3/18/18 10/17/17 11/19/19
f 3/18/18 11/19/19 4/20/20
f 4/20/20 11/19/19 12/21/21
f 4/20/20 12/21/21 5/22/22
f 5/22/22 12/21/21 13/23/23
f 5/22/22 13/23/23 6/24/24
f 6/24/24 13/23/23 14/25/25
f 6/24/24 14/25/25 7/26/26
f 7/26/26 14/25/25 15/27/27
f 7/26/26 15/27/27 8/28/28
f 8/28/28 15/27/27 16/29/29
f 8/28/28 16/29/29 9/30/30
f 9/30/30 16/29/29 17/31/31
f 10/32/32 2/33/33 18/34/34
f 20/35/35 18/36/36 19/37/37
f 19/37/37 18/36/36 2/38/1
f 19/37/37 2/38/1 1/39/38
f 20/40/35 19/41/37 31/42/39
f 21/43/40 22/44/41 19/45/42
f 22/44/41 23/46/43 19/47/44
f 23/46/43 24/48/45 19/49/46
f 24/48/45 25/50/47 19/51/48
f 25/50/47 26/52/49 19/53/50
f 26/52/49 27/54/51 19/55/52
f 27/54/51 28/56/53 19/57/54
f 28/56/53 29/58/55 19/59/56
f 29/58/55 30/60/57 19/61/58
f 30/60/57 31/42/39 19/62/59
f 17/63/60 21/64/61 9/65/62
f 9/65/62 21/64/61 19/66/63
f 9/65/62 19/66/63 1/67/64
f 18/68/65 28/69/66 10/70/67
f 10/70/67 28/69/66 27/71/68
f 10/70/67 27/71/68 26/72/69
f 28/69/66 18/68/65 29/73/70
f 29/73/70 18/68/65 20/74/71
f 29/73/70 20/74/71 30/75/72
f 30/75/72 20/74/71 31/76/73
f 26/72/69 25/77/74 10/70/67
f 10/70/67 25/77/74 24/78/75
f 10/70/67 24/78/75 23/79/76
f 23/79/76 22/80/77 10/70/67
f 10/70/67 22/80/77 21/81/78
f 10/70/67 21/81/78 16/82/79
f 16/82/79 21/81/78 17/83/80
f 16/82/79 15/84/81 10/70/67
f 10/70/67 15/84/81 14/85/82
f 10/70/67 14/85/82 13/86/83
f 13/86/83 12/87/84 10/70/67
f 10/70/67 12/87/84 11/88/85
# 31 vertices
# 88 texture params
# 85 normals
# 58 facets

# 1 groups
