# WaveFront *.obj file (generated by Autodesk ATF)

g Corps69

v -1.535969 0.500000 -2.000000
v -1.310969 0.781250 -2.000000
v -1.310969 0.771667 -2.072793
v -1.310969 0.743570 -2.140625
v -1.310969 0.698874 -2.198874
v -1.310969 0.640625 -2.243570
v -1.310969 0.572793 -2.271667
v -1.310969 0.500000 -2.281250
v 1.000000 0.781250 -2.000000
v 1.000000 0.771667 -2.072793
v 1.000000 0.743570 -2.140625
v 1.000000 0.698874 -2.198874
v 1.000000 0.640625 -2.243570
v 1.000000 0.572793 -2.271667
v 1.000000 0.500000 -2.281250
v -0.155484 0.771667 -2.072793
v -0.155484 0.743570 -2.140625
v -0.155484 0.698874 -2.198874
v -0.155484 0.640625 -2.243570
v -0.155484 0.572793 -2.271667
v 1.000000 1.169961 -1.502450
v 1.000000 1.169961 0.100000
v 1.000000 1.153164 0.249080
v 1.000000 1.103614 0.390685
v 1.000000 1.023797 0.517714
v 1.000000 0.917714 0.623797
v 1.000000 0.790685 0.703614
v 1.000000 0.649080 0.753164
v 1.000000 0.500000 0.769961
v 0.000000 2.419961 0.097550
v 0.000000 2.419961 0.100000
v -1.135969 1.000000 -1.720000
v 0.000000 1.000000 -1.720000
v 0.000000 1.000000 0.100000
v -0.000000 0.982963 0.229410
v -0.000000 0.933013 0.350000
v -0.000000 0.853553 0.453553
v -0.000000 0.750000 0.533013
v -0.000000 0.629410 0.582963
v 0.000000 0.500000 0.600000
v 0.000000 0.500000 2.019961
v -0.000000 0.773239 2.000419
v -0.000000 1.040916 1.942189
v -0.000000 1.297581 1.846458
v -0.000000 1.538009 1.715174
v -0.000000 1.757307 1.551010
v -0.000000 1.951010 1.357307
v -0.000000 2.115174 1.138009
v -0.000000 2.246458 0.897581
v -0.000000 2.342189 0.640916
v -0.000000 2.400419 0.373239
v -1.135969 1.000000 0.100000
v -1.535969 0.500000 0.100000
v -1.135969 0.500000 0.600000
v -1.135969 0.629410 0.582963
v -1.135969 0.750000 0.533013
v -1.135969 0.853553 0.453553
v -1.135969 0.933013 0.350000
v -1.135969 0.982963 0.229410
vt -0.000000 0.000000 0.000000
vt -0.000000 0.036816 0.000000
vt -0.360176 0.036816 0.000000
vt -0.000000 0.073631 0.000000
vt -0.360176 0.073631 0.000000
vt -0.000000 0.110447 0.000000
vt -0.360176 0.110447 0.000000
vt 0.000000 0.147262 0.000000
vt -0.360176 0.147262 0.000000
vt -0.000000 0.184078 0.000000
vt -0.360176 0.184078 0.000000
vt -0.000000 0.220893 0.000000
vt -0.360176 0.220893 0.000000
vt -1.155484 0.073631 0.000000
vt -1.155484 0.000000 0.000000
vt 0.000000 0.073631 0.000000
vt 1.155484 0.000000 0.000000
vt 1.155484 0.073631 0.000000
vt 0.000000 0.147262 0.000000
vt 1.155484 0.147262 0.000000
vt 0.000000 0.220893 0.000000
vt 1.155484 0.220893 0.000000
vt 0.000000 0.294524 0.000000
vt 1.155484 0.294524 0.000000
vt 0.000000 0.368155 0.000000
vt 1.155484 0.368155 0.000000
vt 1.155484 0.441787 0.000000
vt -1.155484 0.441787 0.000000
vt -1.155484 0.368155 0.000000
vt -1.155484 0.294524 0.000000
vt -1.155484 0.220893 0.000000
vt -1.155484 0.147262 0.000000
vt 0.669961 -1.502450 0.000000
vt 0.523797 0.517714 0.000000
vt 0.281250 -2.000000 0.000000
vt 0.417714 0.623797 0.000000
vt 0.290685 0.703614 0.000000
vt 0.603614 0.390685 0.000000
vt 0.669961 0.100000 0.000000
vt 0.653164 0.249080 0.000000
vt 0.149080 0.753164 0.000000
vt 0.140625 -2.243570 0.000000
vt 0.198874 -2.198874 0.000000
vt 0.072793 -2.271667 0.000000
vt 0.000000 0.769961 0.000000
vt 0.000000 -2.281250 0.000000
vt 0.243570 -2.140625 0.000000
vt 0.271667 -2.072793 0.000000
vt 0.000000 -1.502450 0.000000
vt 1.600781 0.097550 0.000000
vt 0.000000 0.100000 0.000000
vt 1.600781 0.100000 0.000000
vt -1.624315 1.135969 0.000000
vt -1.624315 0.000000 0.000000
vt -1.268996 1.310969 0.000000
vt -1.268996 -1.000000 0.000000
vt -1.900385 -1.000000 0.000000
vt -3.930780 0.000000 0.000000
vt 1.419961 -1.720000 0.000000
vt 1.419961 0.100000 0.000000
vt 0.000000 0.097550 0.000000
vt 0.019542 0.373239 0.000000
vt 0.000000 0.100000 0.000000
vt 1.436998 0.229410 0.000000
vt 0.662654 1.551010 0.000000
vt 0.468951 1.357307 0.000000
vt 0.304787 1.138009 0.000000
vt 0.881952 1.715174 0.000000
vt 1.486948 0.350000 0.000000
vt 1.122380 1.846458 0.000000
vt 1.566408 0.453553 0.000000
vt 1.379045 1.942189 0.000000
vt 1.669961 0.533013 0.000000
vt 1.646722 2.000419 0.000000
vt 1.790551 0.582963 0.000000
vt 1.919961 2.019961 0.000000
vt 1.919961 0.600000 0.000000
vt 0.173503 0.897581 0.000000
vt 0.077772 0.640916 0.000000
vt -0.000000 -1.720000 0.000000
vt 1.135969 -1.720000 0.000000
vt 0.000000 0.100000 0.000000
vt 1.135969 0.100000 0.000000
vt -0.000000 -1.720000 0.000000
vt 0.280137 -2.000000 0.000000
vt 0.000000 0.100000 0.000000
vt 0.640312 0.100000 0.000000
vt 0.640312 -2.000000 0.000000
vt -0.320156 0.000000 0.000000
vt 0.320156 0.000000 0.000000
vt -0.320156 0.065450 0.000000
vt -0.320156 0.392699 0.000000
vt -0.320156 0.327249 0.000000
vt 0.320156 0.327249 0.000000
vt -0.320156 0.261799 0.000000
vt 0.320156 0.261799 0.000000
vt -0.320156 0.196350 0.000000
vt 0.320156 0.196350 0.000000
vt -0.320156 0.130900 0.000000
vt 0.320156 0.130900 0.000000
vt 0.320156 0.065450 0.000000
vt -0.567984 0.000000 0.000000
vt 0.567984 0.000000 0.000000
vt -0.567984 0.130900 0.000000
vt 0.567984 0.130900 0.000000
vt -0.567984 0.261799 0.000000
vt 0.567984 0.261799 0.000000
vt -0.567984 0.392699 0.000000
vt 0.567984 0.392699 0.000000
vt -0.567984 0.523599 0.000000
vt 0.567984 0.523599 0.000000
vt -0.567984 0.654498 0.000000
vt 0.567984 0.654498 0.000000
vt -0.567984 0.785398 0.000000
vt 0.567984 0.785398 0.000000
vt 0.800391 0.000000 0.000000
vt 0.800391 0.184920 0.000000
vt -0.800391 0.000000 0.000000
vt -0.800391 0.290589 0.000000
vt 0.800391 0.369840 0.000000
vt -0.800391 0.581177 0.000000
vt 0.800391 0.554760 0.000000
vt 0.800391 0.739680 0.000000
vt -0.800391 0.871766 0.000000
vt 0.800391 0.924600 0.000000
vt 0.800391 1.109520 0.000000
vt -0.800391 1.162354 0.000000
vt 0.800391 1.294440 0.000000
vt -0.800391 1.452943 0.000000
vt 0.800391 1.479360 0.000000
vt 0.800391 1.664280 0.000000
vt -0.800391 1.743531 0.000000
vt 0.800391 1.849200 0.000000
vt -0.800391 2.034120 0.000000
vt 0.800391 2.034120 0.000000
vt 0.225000 -2.281250 0.000000
vt 2.535969 -2.281250 0.000000
vt 1.535969 0.600000 0.000000
vt 2.535969 0.769961 0.000000
vt 1.535969 2.019961 0.000000
vt 0.400000 0.600000 0.000000
vt 0.000000 0.100000 0.000000
vt 0.000000 -2.000000 0.000000
vn -0.780869 0.624695 -0.000000
vn -0.780869 0.603409 -0.161683
vn -0.780869 0.603409 -0.161683
vn -0.780869 0.541002 -0.312348
vn -0.780869 0.541002 -0.312348
vn -0.780869 0.441726 -0.441726
vn -0.780869 0.441726 -0.441726
vn -0.780869 0.312348 -0.541002
vn -0.780869 0.312348 -0.541002
vn -0.780869 0.161683 -0.603409
vn -0.780869 0.161683 -0.603409
vn -0.780869 0.000000 -0.624695
vn -0.780869 0.000000 -0.624695
vn -0.000000 0.965926 -0.258819
vn 0.000000 1.000000 0.000000
vn -0.000000 0.965926 -0.258819
vn 0.000000 1.000000 0.000000
vn -0.000000 0.965926 -0.258819
vn -0.000000 0.866025 -0.500000
vn -0.000000 0.866025 -0.500000
vn -0.000000 0.707107 -0.707107
vn -0.000000 0.707107 -0.707107
vn -0.000000 0.500000 -0.866025
vn -0.000000 0.500000 -0.866025
vn -0.000000 0.258819 -0.965926
vn -0.000000 0.258819 -0.965926
vn -0.000000 0.000000 -1.000000
vn -0.000000 0.000000 -1.000000
vn -0.000000 0.258819 -0.965926
vn -0.000000 0.500000 -0.866025
vn -0.000000 0.707107 -0.707107
vn -0.000000 0.866025 -0.500000
vn 1.000000 0.000000 0.000000
vn 1.000000 0.000000 0.000000
vn 1.000000 0.000000 0.000000
vn 1.000000 0.000000 0.000000
vn 1.000000 0.000000 0.000000
vn 1.000000 0.000000 0.000000
vn 1.000000 0.000000 0.000000
vn 1.000000 0.000000 0.000000
vn 1.000000 0.000000 0.000000
vn 1.000000 0.000000 0.000000
vn 1.000000 0.000000 0.000000
vn 1.000000 0.000000 0.000000
vn 1.000000 0.000000 0.000000
vn 1.000000 0.000000 0.000000
vn 1.000000 0.000000 0.000000
vn 1.000000 0.000000 0.000000
vn 0.780869 0.624695 -0.000000
vn 0.780869 0.624695 -0.000000
vn 0.780869 0.624695 -0.000000
vn 0.780869 0.624695 -0.000000
vn -0.000000 0.788024 -0.615644
vn -0.000000 0.788024 -0.615644
vn -0.000000 0.788024 -0.615644
vn -0.000000 0.788024 -0.615644
vn -0.000000 0.788024 -0.615644
vn -0.000000 0.788024 -0.615644
vn -1.000000 0.000000 0.000000
vn -1.000000 0.000000 0.000000
vn -1.000000 0.000000 0.000000
vn -1.000000 0.000000 0.000000
vn -1.000000 0.000000 0.000000
vn -1.000000 0.000000 0.000000
vn -1.000000 0.000000 0.000000
vn -1.000000 0.000000 0.000000
vn -1.000000 0.000000 0.000000
vn -1.000000 0.000000 0.000000
vn -1.000000 0.000000 0.000000
vn -1.000000 0.000000 0.000000
vn -1.000000 0.000000 0.000000
vn -1.000000 0.000000 0.000000
vn -1.000000 0.000000 0.000000
vn -1.000000 0.000000 0.000000
vn -1.000000 0.000000 0.000000
vn -1.000000 0.000000 0.000000
vn -1.000000 0.000000 0.000000
vn -1.000000 0.000000 0.000000
vn -1.000000 0.000000 0.000000
vn 0.000000 1.000000 -0.000000
vn 0.000000 1.000000 -0.000000
vn 0.000000 1.000000 -0.000000
vn 0.000000 1.000000 -0.000000
vn -0.780869 0.624695 0.000000
vn -0.780869 0.624695 0.000000
vn -0.780869 0.624695 0.000000
vn -0.780869 0.624695 0.000000
vn -0.780869 0.603409 0.161683
vn -0.780869 0.000000 0.624695
vn -0.780869 0.161683 0.603409
vn -0.780869 0.161683 0.603409
vn -0.780869 0.312348 0.541002
vn -0.780869 0.312348 0.541002
vn -0.780869 0.441726 0.441726
vn -0.780869 0.441726 0.441726
vn -0.780869 0.541002 0.312348
vn -0.780869 0.541002 0.312348
vn -0.780869 0.603409 0.161683
vn -0.000000 0.965926 0.258819
vn -0.000000 0.965926 0.258819
vn -0.000000 0.866025 0.500000
vn -0.000000 0.866025 0.500000
vn -0.000000 0.707107 0.707107
vn -0.000000 0.707107 0.707107
vn -0.000000 0.500000 0.866025
vn -0.000000 0.500000 0.866025
vn -0.000000 0.258819 0.965926
vn -0.000000 0.258819 0.965926
vn -0.000000 0.000000 1.000000
vn -0.000000 0.000000 1.000000
vn 0.780869 0.618337 0.088903
vn 0.780869 0.609033 0.139008
vn 0.780869 0.599391 0.175997
vn 0.780869 0.562831 0.271045
vn 0.780869 0.568243 0.259508
vn 0.780869 0.525527 0.337736
vn 0.780869 0.488406 0.389491
vn 0.780869 0.472113 0.409088
vn 0.780869 0.409088 0.472113
vn 0.780869 0.389491 0.488406
vn 0.780869 0.337736 0.525527
vn 0.780869 0.271045 0.562831
vn 0.780869 0.259508 0.568243
vn 0.780869 0.175997 0.599391
vn 0.780869 0.139008 0.609033
vn 0.780869 0.088903 0.618337
vn 0.780869 0.000000 0.624695
vn 0.780869 0.000000 0.624695
vn 0.000000 -1.000000 0.000000
vn 0.000000 -1.000000 0.000000
vn 0.000000 -1.000000 0.000000
vn 0.000000 -1.000000 0.000000
vn 0.000000 -1.000000 0.000000
vn 0.000000 -1.000000 0.000000
vn 0.000000 -1.000000 0.000000
vn 0.000000 -1.000000 0.000000
f 2/1/1 3/2/2 1/3/3
f 3/2/2 4/4/4 1/5/5
f 4/4/4 5/6/6 1/7/7
f 5/6/6 6/8/8 1/9/9
f 6/8/8 7/10/10 1/11/11
f 7/10/10 8/12/12 1/13/13
f 3/14/14 2/15/15 16/16/16
f 16/16/16 2/15/15 9/17/17
f 16/16/16 9/17/17 10/18/18
f 16/16/16 10/18/18 17/19/19
f 17/19/19 10/18/18 11/20/20
f 17/19/19 11/20/20 18/21/21
f 18/21/21 11/20/20 12/22/22
f 18/21/21 12/22/22 19/23/23
f 19/23/23 12/22/22 13/24/24
f 19/23/23 13/24/24 20/25/25
f 20/25/25 13/24/24 14/26/26
f 20/25/25 14/26/26 15/27/27
f 15/27/27 8/28/28 20/25/25
f 20/25/25 8/28/28 7/29/29
f 20/25/25 7/29/29 19/23/23
f 19/23/23 7/29/29 6/30/30
f 19/23/23 6/30/30 18/21/21
f 18/21/21 6/30/30 5/31/31
f 18/21/21 5/31/31 17/19/19
f 17/19/19 5/31/31 4/32/32
f 17/19/19 4/32/32 16/16/16
f 16/16/16 4/32/32 3/14/14
f 21/33/33 25/34/34 9/35/35
f 9/35/35 25/34/34 26/36/36
f 9/35/35 26/36/36 27/37/37
f 25/34/34 21/33/33 24/38/38
f 24/38/38 21/33/33 22/39/39
f 24/38/38 22/39/39 23/40/40
f 27/37/37 28/41/41 9/35/35
f 9/35/35 28/41/41 13/42/42
f 9/35/35 13/42/42 12/43/43
f 13/42/42 28/41/41 14/44/44
f 14/44/44 28/41/41 29/45/45
f 14/44/44 29/45/45 15/46/46
f 12/43/43 11/47/47 9/35/35
f 9/35/35 11/47/47 10/48/48
f 21/49/49 30/50/50 22/51/51
f 22/51/51 30/50/50 31/52/52
f 32/53/53 33/54/54 2/55/55
f 2/55/55 33/54/54 9/56/56
f 9/56/56 33/54/54 21/57/57
f 21/57/57 33/54/54 30/58/58
f 33/59/59 34/60/60 30/61/61
f 30/61/61 34/60/60 51/62/62
f 30/61/61 51/62/62 31/63/63
f 35/64/64 46/65/65 34/60/60
f 34/60/60 46/65/65 47/66/66
f 34/60/60 47/66/66 48/67/67
f 46/65/65 35/64/64 45/68/68
f 45/68/68 35/64/64 36/69/69
f 45/68/68 36/69/69 44/70/70
f 44/70/70 36/69/69 37/71/71
f 44/70/70 37/71/71 43/72/72
f 43/72/72 37/71/71 38/73/73
f 43/72/72 38/73/73 42/74/74
f 42/74/74 38/73/73 39/75/75
f 42/74/74 39/75/75 41/76/76
f 41/76/76 39/75/75 40/77/77
f 48/67/67 49/78/78 34/60/60
f 34/60/60 49/78/78 50/79/79
f 34/60/60 50/79/79 51/62/62
f 33/80/80 32/81/81 34/82/82
f 34/82/82 32/81/81 52/83/83
f 32/84/84 2/85/1 52/86/85
f 52/86/85 2/85/1 53/87/86
f 53/87/86 2/85/1 1/88/87
f 52/89/85 53/90/86 59/91/88
f 54/92/89 55/93/90 53/94/91
f 55/93/90 56/95/92 53/96/93
f 56/95/92 57/97/94 53/98/95
f 57/97/94 58/99/96 53/100/97
f 58/99/96 59/91/88 53/101/98
f 34/102/82 52/103/83 35/104/99
f 35/104/99 52/103/83 59/105/100
f 35/104/99 59/105/100 36/106/101
f 36/106/101 59/105/100 58/107/102
f 36/106/101 58/107/102 37/108/103
f 37/108/103 58/107/102 57/109/104
f 37/108/103 57/109/104 38/110/105
f 38/110/105 57/109/104 56/111/106
f 38/110/105 56/111/106 39/112/107
f 39/112/107 56/111/106 55/113/108
f 39/112/107 55/113/108 40/114/109
f 40/114/109 55/113/108 54/115/110
f 31/116/52 51/117/111 22/118/51
f 22/118/51 51/117/111 23/119/112
f 23/119/112 51/117/111 50/120/113
f 23/119/112 50/120/113 24/121/114
f 24/121/114 50/120/113 49/122/115
f 24/121/114 49/122/115 48/123/116
f 24/121/114 48/123/116 25/124/117
f 25/124/117 48/123/116 47/125/118
f 25/124/117 47/125/118 46/126/119
f 25/124/117 46/126/119 26/127/120
f 26/127/120 46/126/119 45/128/121
f 26/127/120 45/128/121 27/129/122
f 27/129/122 45/128/121 44/130/123
f 27/129/122 44/130/123 43/131/124
f 27/129/122 43/131/124 28/132/125
f 28/132/125 43/131/124 42/133/126
f 28/132/125 42/133/126 29/134/127
f 29/134/127 42/133/126 41/135/128
f 8/136/129 15/137/130 40/138/131
f 40/138/131 15/137/130 29/139/132
f 40/138/131 29/139/132 41/140/133
f 40/138/131 54/141/134 8/136/129
f 8/136/129 54/141/134 53/142/135
f 8/136/129 53/142/135 1/143/136
# 59 vertices
# 143 texture params
# 136 normals
# 114 facets

# 1 groups
